<?xml version="1.0" standalone="no"?>
<!DOCTYPE svg PUBLIC "-//W3C//DTD SVG 1.1//EN" "http://www.w3.org/Graphics/SVG/1.1/DTD/svg11.dtd" >
<svg xmlns="http://www.w3.org/2000/svg" xmlns:xlink="http://www.w3.org/1999/xlink" version="1.1">
<metadata>
Created by FontForge 20170731 at Tue Apr 21 13:50:07 2020
 By Aleksey,,,
Copyright (c) 2019, Amin Abedi (www.fontamin.com|aminabedi68@gmail.com),
with Reserved Font Name Mikhak.

This Font Software is licensed under the SIL Open Font License, Version 1.1.
This license is available with a FAQ at: http://scripts.sil.org/OFL
</metadata>
<defs>
<font id="Mikhak-Bold" horiz-adv-x="0" >
  <font-face 
    font-family="Mikhak Bold"
    font-weight="700"
    font-stretch="normal"
    units-per-em="2048"
    panose-1="2 0 8 3 0 0 0 0 0 0"
    ascent="1638"
    descent="-410"
    x-height="1037"
    cap-height="1483"
    bbox="-412.817 -1362.03 2813 2581.13"
    underline-thickness="100"
    underline-position="-650"
    unicode-range="U+0020-FEFC"
  />
<missing-glyph horiz-adv-x="748" 
d="M68 0v1365h544v-1365h-544zM136 68h408v1229h-408v-1229z" />
    <glyph glyph-name="uni0622" unicode="&#x627;&#x653;" horiz-adv-x="522" 
d="M-134 1322q-55 21 -72 79q-12 42 2 80q86 223 245 293q65 29 138 29q126 -1 267 -87q82 -50 121 -54q7 -1 13 -1q63 0 67 73v2q12 97 84 118q17 4 34 4q63 0 100 -52q23 -32 23 -70q0 -146 -88 -238q-80 -83 -198 -83q-135 0 -283 91q-2 1 -3 2q-84 51 -137 51
q-73 0 -125 -100q-16 -29 -30 -66q-21 -55 -78 -73q-41 -13 -80 2zM264 1267q63 8 106 -39q26 -29 31 -66q46 -341 46 -694q0 -219 -21 -477q-6 -61 -58 -94q-35 -21 -74 -18q-61 6 -94 59q-21 34 -18 73q19 226 19 457q0 347 -42 662q-8 63 39 106q29 26 66 31z" />
    <glyph glyph-name="uni0623" unicode="&#x627;&#x654;" horiz-adv-x="445" 
d="M385 1815q-25 -19 -52 0q-7 5 -11 10q-37 48 -88 48q-57 0 -98 -50q-34 -42 -34 -95q0 -73 65 -89q25 -6 60 -6q80 0 183 36q31 10 51 -16q6 -8 8 -16q8 -28 -17 -47q-6 -5 -12 -7l-405 -141q-28 -10 -49 13q-6 7 -9 15q-10 28 13 49q7 6 15 9l113 39q-93 36 -106 133
q-2 14 -2 28q0 105 77 177q66 60 147 60q92 0 155 -80q3 -3 5 -6q19 -25 2 -52q-5 -7 -11 -12zM184 1287q63 8 106 -39q26 -29 31 -66q39 -297 45 -514q1 -63 1 -137q0 -285 -21 -540q-6 -61 -58 -94q-35 -21 -74 -18q-61 6 -94 59q-21 34 -18 73q21 259 21 520
q0 264 -28 492q-6 52 -16 127q-8 63 39 106q29 26 66 31z" />
    <glyph glyph-name="uni0624" unicode="&#x648;&#x654;" horiz-adv-x="878" 
d="M570 1299q-25 -19 -52 0q-7 5 -11 10q-37 48 -88 48q-57 0 -98 -50q-34 -42 -34 -95q0 -73 65 -89q25 -6 60 -6q80 0 183 36q31 10 51 -16q6 -8 8 -16q8 -28 -17 -47q-6 -5 -12 -7l-405 -141q-28 -10 -49 13q-6 7 -9 15q-10 28 13 49q7 6 15 9l113 39q-93 36 -106 133
q-2 14 -2 28q0 105 77 177q66 60 147 60q92 0 155 -80q3 -3 5 -6q19 -25 2 -52q-5 -7 -11 -12zM444 790q252 0 347 -299q50 -156 50 -362q0 -426 -384 -605q-121 -56 -275 -85q-62 -11 -108 35q-27 27 -34 63q-11 61 33 108q28 29 65 36q256 48 359 156q98 104 98 292
q0 315 -95 393q-26 22 -57 22q-60 0 -95 -78q-28 -63 -28 -158q2 -149 132 -150q50 0 124 18q61 15 110 -27q29 -26 38 -62q15 -60 -27 -110q-27 -30 -63 -39q-96 -24 -182 -24q-178 0 -279 118q-85 100 -85 249q0 194 79 335q99 173 277 174z" />
    <glyph glyph-name="uni0625" unicode="&#x627;&#x655;" horiz-adv-x="445" 
d="M385 -429q-25 -19 -52 0q-7 5 -11 10q-37 48 -88 48q-57 0 -98 -50q-34 -42 -34 -95q0 -73 65 -89q25 -6 60 -6q80 0 183 36q31 10 51 -16q6 -8 8 -16q8 -28 -17 -47q-6 -5 -12 -7l-405 -141q-28 -10 -49 13q-6 7 -9 15q-10 28 13 49q7 6 15 9l113 39q-93 36 -106 133
q-2 14 -2 28q0 105 77 177q66 60 147 60q92 0 155 -80q3 -3 5 -6q19 -25 2 -52q-5 -7 -11 -12zM184 1287q63 8 106 -39q26 -29 31 -66q39 -297 45 -514q1 -63 1 -137q0 -285 -21 -540q-6 -61 -58 -94q-35 -21 -74 -18q-61 6 -94 59q-21 34 -18 73q21 259 21 520
q0 264 -28 492q-6 52 -16 127q-8 63 39 106q29 26 66 31z" />
    <glyph glyph-name="uni0626" unicode="&#x64a;&#x654;" horiz-adv-x="1347" 
d="M471 1100q-25 -19 -52 0q-7 5 -11 10q-37 48 -88 48q-57 0 -98 -50q-34 -42 -34 -95q0 -73 65 -89q25 -6 60 -6q80 0 183 36q31 10 51 -16q6 -8 8 -16q8 -28 -17 -47q-6 -5 -12 -7l-405 -141q-28 -10 -49 13q-6 7 -9 15q-10 28 13 49q7 6 15 9l113 39q-93 36 -106 133
q-2 14 -2 28q0 105 77 177q66 60 147 60q92 0 155 -80q3 -3 5 -6q19 -25 2 -52q-5 -7 -11 -12zM1236 569q-36 -52 -100 -53q-38 -1 -70 21q-55 38 -122 38q-93 0 -169 -73q-79 -78 -80 -178q0 -75 62 -100q50 -20 173 -22q304 -5 371 -202q18 -52 18 -116q0 -204 -193 -322
q-184 -107 -455 -109q-353 0 -521 179q-126 135 -126 355q0 137 37 315q12 59 67 86q38 17 77 10q59 -12 86 -67q17 -38 10 -77q-31 -157 -31 -267q0 -153 70 -215q76 -69 287 -74q22 -1 44 -1q264 0 364 100q40 40 40 83q0 52 -53 68q-33 9 -96 10q-430 7 -471 303
q-4 31 -4 63q0 182 121 323q113 130 277 164q48 10 95 10q140 -1 260 -82q52 -36 53 -100q0 -39 -21 -70z" />
    <glyph glyph-name="uniE023" unicode="&#xfb94;&#xfe8e;" horiz-adv-x="1586" 
d="M556 1296q-26 48 3 96q14 23 37 36l594 317q48 26 96 -3q23 -14 36 -37q26 -48 -3 -96q-14 -23 -37 -36l-594 -317q-48 -26 -96 3q-23 14 -36 37zM217 1333q62 -2 97 -55q21 -33 20 -72q-11 -304 -11 -808q0 -121 29 -164q5 -7 10 -12q44 -45 188 -53q45 -2 107 -2h1
q205 0 275 51q47 35 48 94q-1 170 -377 554q-44 45 -31 109q9 43 41 70l24 16l734 360q58 29 115 -4q32 -20 49 -52q29 -58 -4 -115q-20 -32 -52 -49l-584 -287q165 -180 235 -297q96 -161 96 -305q0 -146 -99 -248q-27 -26 -57 -46q-143 -95 -413 -95h-1q-229 0 -342 43
q-84 32 -139 90q-87 92 -97 265q-2 34 -2 77q0 454 13 818q2 62 55 97q33 21 72 20z" />
    <glyph glyph-name="uniE024" unicode="&#xfb95;&#xfe8e;" horiz-adv-x="1645" 
d="M556 1296q-26 48 3 96q14 23 37 36l594 317q48 26 96 -3q23 -14 36 -37q26 -48 -3 -96q-14 -23 -37 -36l-594 -317q-48 -26 -96 3q-23 14 -36 37zM217 1333q62 -2 97 -55q21 -33 20 -72q-11 -304 -11 -808q0 -121 29 -164q5 -7 10 -12q44 -45 188 -53q45 -2 107 -2h1
q205 0 275 51q47 35 48 94q-1 170 -377 554q-44 45 -31 109q9 43 41 70l24 16l734 360q58 29 115 -4q32 -20 49 -52q29 -58 -4 -115q-20 -32 -52 -49l-584 -287q165 -180 235 -297q96 -161 96 -305q0 -146 -99 -248q-27 -26 -57 -46q-143 -95 -413 -95h-1q-229 0 -342 43
q-84 32 -139 90q-87 92 -97 265q-2 34 -2 77q0 454 13 818q2 62 55 97q33 21 72 20zM606 1038q46 45 110 32q37 -8 63 -34q188 -192 272 -301q100 -133 151 -259q68 -171 114 -226q49 -59 138 -74q56 -9 190 -9h1q63 0 100 -52q23 -32 23 -70q0 -63 -52 -99q-33 -23 -71 -23
h-1q-238 0 -364 58q-138 64 -231 232q-40 73 -77 171q-60 159 -296 408q-33 35 -71 74q-46 47 -33 110q8 36 34 62z" />
    <glyph glyph-name="uniE026" unicode="&#xfed3;&#xfe8e;" horiz-adv-x="1383" 
d="M822 1585q0 59 51 98q36 27 80 27q69 0 108 -70q18 -31 18 -55q0 -46 -30 -88q-37 -49 -99 -50q-86 0 -117 85q-11 29 -11 53zM942 923q-64 0 -105 -81q-34 -68 -34 -161q0 -108 84 -134q33 -10 79 -10q70 0 145 31q60 25 115 -12q32 -22 46 -55q25 -60 -12 -115
q-22 -32 -55 -46q-115 -47 -239 -47q-186 0 -298 103q-109 100 -109 269q0 154 64 287q97 200 293 216q16 1 33 1q396 -1 396 -771q0 -191 -128 -316q-23 -22 -49 -41q-166 -118 -470 -118h-1q-241 0 -352 33q-104 32 -169 100q-87 95 -97 265q-2 34 -2 77q0 454 13 818
q2 62 55 97q33 21 72 20q62 -2 97 -55q21 -33 20 -72q-11 -304 -11 -808q0 -117 29 -159q6 -9 13 -16q45 -44 195 -53q55 -3 137 -3h1q205 0 314 65q8 5 14 9q62 43 72 115q3 20 3 42q0 480 -134 521q-13 4 -25 4z" />
    <glyph glyph-name="uniE027" unicode="&#xfed7;&#xfe8e;" horiz-adv-x="1383" 
d="M666 1484q-33 45 -11 97q12 25 32 40q140 103 320 103q125 0 198 -57q62 -50 60 -130q0 -63 -50 -93q-24 -15 -51 -15q-59 0 -84 45q-5 11 -8 23q-2 31 -65 31q-115 -1 -204 -65q-48 -34 -101 -9q-22 12 -36 30zM942 923q-64 0 -105 -81q-34 -68 -34 -161q0 -108 84 -134
q33 -10 79 -10q70 0 145 31q60 25 115 -12q32 -22 46 -55q25 -60 -12 -115q-22 -32 -55 -46q-115 -47 -239 -47q-186 0 -298 103q-109 100 -109 269q0 154 64 287q97 200 293 216q16 1 33 1q396 -1 396 -771q0 -191 -128 -316q-23 -22 -49 -41q-166 -118 -470 -118h-1
q-241 0 -352 33q-104 32 -169 100q-87 95 -97 265q-2 34 -2 77q0 454 13 818q2 62 55 97q33 21 72 20q62 -2 97 -55q21 -33 20 -72q-11 -304 -11 -808q0 -117 29 -159q6 -9 13 -16q45 -44 195 -53q55 -3 137 -3h1q205 0 314 65q8 5 14 9q62 43 72 115q3 20 3 42
q0 480 -134 521q-13 4 -25 4z" />
    <glyph glyph-name="uniE028" unicode="&#xfb94;&#xfef0;" horiz-adv-x="2206" 
d="M1176 1296q-26 48 3 96q14 23 37 36l594 317q48 26 96 -3q23 -14 36 -37q26 -48 -3 -96q-14 -23 -37 -36l-594 -317q-48 -26 -96 3q-23 14 -36 37zM325 534q55 -19 74 -77q12 -41 -1 -80q-95 -261 -95 -439q0 -161 70 -233q91 -92 330 -92q246 0 342 94q33 33 34 59
q0 39 -54 77q-84 59 -265 81q-60 7 -91 61q-19 36 -15 75q7 60 61 91q36 19 75 15q301 -36 440 -176q93 -95 93 -224q0 -181 -175 -291q-179 -106 -445 -108q-352 0 -521 199q-125 148 -125 372q0 220 111 523q19 55 77 74q41 12 80 -1zM653 45q0 63 52 100q32 22 70 22h377
q391 0 440 101q9 19 9 44q-1 170 -377 554q-44 45 -31 109q9 43 41 70l24 16l734 360q58 29 115 -4q32 -20 49 -52q29 -58 -4 -115q-20 -32 -52 -49l-584 -287q165 -180 235 -297q96 -161 96 -305q0 -279 -341 -357q-143 -32 -354 -32h-377q-63 0 -100 52q-22 32 -22 70z
" />
    <glyph glyph-name="uniE029" unicode="&#xfb95;&#xfef0;" horiz-adv-x="2265" 
d="M1176 1296q-26 48 3 96q14 23 37 36l594 317q48 26 96 -3q23 -14 36 -37q26 -48 -3 -96q-14 -23 -37 -36l-594 -317q-48 -26 -96 3q-23 14 -36 37zM1226 1038q46 45 110 32q37 -8 63 -34q191 -195 277 -310q98 -132 144 -256q66 -175 103 -226q41 -56 112 -69
q45 -8 211 -8h18h1q63 0 100 -52q23 -32 23 -70q0 -63 -52 -99q-33 -23 -71 -23h-1q-238 0 -364 58q-138 64 -231 232q-40 73 -77 171q-60 159 -296 408q-33 35 -71 74q-46 47 -33 110q8 36 34 62zM325 534q55 -19 74 -77q12 -41 -1 -80q-95 -261 -95 -439q0 -161 70 -233
q91 -92 330 -92q246 0 342 94q33 33 34 59q0 39 -54 77q-84 59 -265 81q-60 7 -91 61q-19 36 -15 75q7 60 61 91q36 19 75 15q301 -36 440 -176q93 -95 93 -224q0 -181 -175 -291q-179 -106 -445 -108q-352 0 -521 199q-125 148 -125 372q0 220 111 523q19 55 77 74
q41 12 80 -1zM653 45q0 63 52 100q32 22 70 22h327q388 0 478 98q21 23 21 47q-1 170 -377 554q-44 45 -31 109q9 43 41 70l24 16l734 360q58 29 115 -4q32 -20 49 -52q29 -58 -4 -115q-20 -32 -52 -49l-584 -287q165 -180 235 -297q96 -161 96 -305q0 -317 -479 -375
q-116 -14 -266 -14h-327q-63 0 -100 52q-22 32 -22 70z" />
    <glyph glyph-name="uniFB00" unicode="ff" horiz-adv-x="1386" 
d="M38 821q-5 64 45 104q31 24 68 27q262 19 492 19q305 0 597 -34q61 -7 92 -61q20 -36 16 -74q-7 -60 -61 -91q-36 -20 -75 -16q-269 30 -569 30q-249 0 -474 -17q-64 -5 -104 45q-24 31 -27 68zM1307 1463q-47 -42 -109 -29q-16 4 -29 11q-23 -24 -36 -76
q-44 -292 -60 -863q-3 -98 -4 -182q-8 -160 -68 -322q-30 -81 -61 -124q-61 -2 -98 48q-23 30 -24 66q-5 649 26 998q19 399 119 574q25 42 53 72q50 94 116 95q101 -1 184 -95q42 -48 28 -111q-10 -37 -37 -62zM694 1463q-47 -42 -109 -29q-16 4 -29 11q-23 -24 -36 -76
q-44 -292 -60 -863q-3 -98 -4 -182q-9 -162 -68 -323q-29 -80 -60 -123q-60 -2 -98 47q-24 31 -25 67q-5 649 26 998q19 399 119 574q25 42 53 72q50 94 116 95q101 -1 184 -95q42 -48 28 -111q-10 -37 -37 -62z" />
    <glyph glyph-name="uniFB05" unicode="ft" horiz-adv-x="1325" 
d="M1286 804q-7 -61 -62 -91q-35 -19 -74 -14q-210 26 -499 26q-247 0 -483 -17q-63 -5 -103 46q-24 30 -27 68q-5 63 46 103q30 24 68 27q272 19 499 19q291 0 529 -30q60 -7 91 -62q19 -36 15 -75zM966 1337q61 -7 92 -61q19 -36 15 -74q-58 -500 -58 -847q0 -148 22 -188
q17 -29 51 -30q29 0 52 5q62 11 108 -35q27 -27 34 -63q11 -62 -35 -108q-27 -27 -63 -34q-53 -9 -96 -9q-230 0 -294 257q-23 90 -23 205q0 356 60 875q7 61 61 92q36 19 74 15zM694 1463q-34 -31 -76 -28q-15 4 -37 12q-30 11 -45 11q-28 0 -45 -110q-4 -25 -6 -50
q-31 -440 -38 -1142q-1 -87 -1 -160q0 -63 -52 -99q-33 -23 -71 -23q-63 0 -100 52q-22 32 -22 70q0 879 40 1323q22 260 135 359q61 53 143 53q101 -1 184 -95q43 -49 26 -114q-10 -35 -35 -59z" />
    <glyph glyph-name="uniFBA5" unicode="&#xfeea;&#x654;" horiz-adv-x="1081" arabic-form="final" 
d="M702 1823q0 -30 -28 -42q-8 -4 -18 -4q-113 0 -197 -51q-56 -36 -57 -72q0 -46 87 -73q11 -3 21 -6q152 -40 166 -136q2 -11 2 -22q0 -90 -122 -145q-109 -50 -266 -50q-30 0 -42 28q-4 9 -4 18q0 30 28 42q8 4 18 4q187 0 267 61q28 22 29 42q0 36 -63 59q-17 6 -37 11
q-131 34 -164 101q-12 26 -12 56q0 123 143 184q92 40 203 40q30 0 42 -27q4 -9 4 -18zM724 221q9 -63 -38 -107q-29 -26 -66 -31q-60 -8 -102 -8q-177 0 -306 77q-154 93 -155 262q1 248 323 401q134 62 171 131q5 9 7 16q17 57 73 80q40 15 79 4q57 -17 80 -73
q15 -40 4 -79q-47 -163 -256 -274q-26 -14 -54 -27q-180 -85 -181 -179q0 -33 45 -60q59 -35 170 -35q27 0 68 6q63 9 107 -38q26 -29 31 -66zM663 1075q62 6 104 -43q25 -30 29 -68l50 -547q14 -159 50 -205q29 -38 104 -43q26 -2 80 -2h1q63 0 100 -52q23 -32 23 -70
q0 -63 -52 -99q-33 -23 -71 -23h-1q-433 0 -478 470v2l-50 547q-6 63 44 105q30 24 67 28z" />
    <glyph glyph-name="uniFC31" unicode="&#xfed3;&#xfbfd;" horiz-adv-x="1857" arabic-form="isolated" 
d="M1296 1585q0 59 51 98q36 27 80 27q69 0 108 -70q18 -31 18 -55q0 -46 -30 -88q-37 -49 -99 -50q-86 0 -117 85q-11 29 -11 53zM1423 1169q396 -1 396 -770q0 -333 -376 -431q-172 -45 -438 -45h-230q-63 0 -100 52q-22 32 -22 70q0 63 52 100q32 22 70 22h230
q392 0 507 90q63 51 63 142q0 352 -87 475q-36 48 -79 49q-74 0 -110 -102q-22 -63 -22 -146q0 -97 67 -124q36 -14 96 -14q70 0 145 31q60 25 115 -12q32 -22 46 -55q25 -60 -12 -115q-22 -32 -55 -46q-115 -47 -239 -47q-186 0 -298 103q-109 100 -109 269q0 154 64 287
q97 200 293 216q17 1 33 1zM654 60q7 60 61 91q36 19 75 15q301 -36 440 -176q93 -95 93 -224q0 -181 -175 -291q-179 -106 -445 -108q-352 0 -521 199q-125 148 -125 372q0 220 111 523q19 55 77 74q41 12 80 -1q55 -19 74 -77q12 -41 -1 -80q-95 -261 -95 -439
q0 -161 70 -233q91 -92 330 -92q259 0 347 93q29 31 29 60q0 67 -111 111q-79 31 -208 47q-60 7 -91 61q-19 36 -15 75z" />
    <glyph glyph-name="uniFC32" unicode="&#xfed3;&#xfef2;" horiz-adv-x="1857" arabic-form="isolated" 
d="M380 -1029q-33 45 -11 97q12 25 32 40q140 103 320 103q125 0 198 -57q62 -50 60 -130q0 -63 -50 -93q-24 -15 -51 -15q-59 0 -84 45q-5 11 -8 23q-2 31 -65 31q-115 -1 -204 -65q-48 -34 -101 -9q-22 12 -36 30zM1296 1585q0 59 51 98q36 27 80 27q69 0 108 -70
q18 -31 18 -55q0 -46 -30 -88q-37 -49 -99 -50q-86 0 -117 85q-11 29 -11 53zM1423 1169q396 -1 396 -770q0 -333 -376 -431q-172 -45 -438 -45h-230q-63 0 -100 52q-22 32 -22 70q0 63 52 100q32 22 70 22h230q392 0 507 90q63 51 63 142q0 352 -87 475q-36 48 -79 49
q-74 0 -110 -102q-22 -63 -22 -146q0 -97 67 -124q36 -14 96 -14q70 0 145 31q60 25 115 -12q32 -22 46 -55q25 -60 -12 -115q-22 -32 -55 -46q-115 -47 -239 -47q-186 0 -298 103q-109 100 -109 269q0 154 64 287q97 200 293 216q17 1 33 1zM654 60q7 60 61 91q36 19 75 15
q301 -36 440 -176q93 -95 93 -224q0 -181 -175 -291q-179 -106 -445 -108q-352 0 -521 199q-125 148 -125 372q0 220 111 523q19 55 77 74q41 12 80 -1q55 -19 74 -77q12 -41 -1 -80q-95 -261 -95 -439q0 -161 70 -233q91 -92 330 -92q259 0 347 93q29 31 29 60
q0 67 -111 111q-79 31 -208 47q-60 7 -91 61q-19 36 -15 75z" />
    <glyph glyph-name="uniFC35" unicode="&#xfed7;&#xfef0;" horiz-adv-x="1857" arabic-form="isolated" 
d="M1129 1465q-33 45 -11 97q12 25 32 40q140 103 320 103q125 0 198 -57q62 -50 60 -130q0 -63 -50 -93q-24 -15 -51 -15q-59 0 -84 45q-5 11 -8 23q-2 31 -65 31q-115 -1 -204 -65q-48 -34 -101 -9q-22 12 -36 30zM1423 1169q396 -1 396 -770q0 -333 -376 -431
q-172 -45 -438 -45h-230q-63 0 -100 52q-22 32 -22 70q0 63 52 100q32 22 70 22h230q392 0 507 90q63 51 63 142q0 352 -87 475q-36 48 -79 49q-74 0 -110 -102q-22 -63 -22 -146q0 -97 67 -124q36 -14 96 -14q70 0 145 31q60 25 115 -12q32 -22 46 -55q25 -60 -12 -115
q-22 -32 -55 -46q-115 -47 -239 -47q-186 0 -298 103q-109 100 -109 269q0 154 64 287q97 200 293 216q17 1 33 1zM654 60q7 60 61 91q36 19 75 15q301 -36 440 -176q93 -95 93 -224q0 -181 -175 -291q-179 -106 -445 -108q-352 0 -521 199q-125 148 -125 372q0 220 111 523
q19 55 77 74q41 12 80 -1q55 -19 74 -77q12 -41 -1 -80q-95 -261 -95 -439q0 -161 70 -233q91 -92 330 -92q259 0 347 93q29 31 29 60q0 67 -111 111q-79 31 -208 47q-60 7 -91 61q-19 36 -15 75z" />
    <glyph glyph-name="uniFC36" unicode="&#xfed7;&#xfef2;" horiz-adv-x="1857" arabic-form="isolated" 
d="M1129 1465q-33 45 -11 97q12 25 32 40q140 103 320 103q125 0 198 -57q62 -50 60 -130q0 -63 -50 -93q-24 -15 -51 -15q-59 0 -84 45q-5 11 -8 23q-2 31 -65 31q-115 -1 -204 -65q-48 -34 -101 -9q-22 12 -36 30zM380 -1029q-33 45 -11 97q12 25 32 40q140 103 320 103
q125 0 198 -57q62 -50 60 -130q0 -63 -50 -93q-24 -15 -51 -15q-59 0 -84 45q-5 11 -8 23q-2 31 -65 31q-115 -1 -204 -65q-48 -34 -101 -9q-22 12 -36 30zM1423 1169q396 -1 396 -770q0 -333 -376 -431q-172 -45 -438 -45h-230q-63 0 -100 52q-22 32 -22 70q0 63 52 100
q32 22 70 22h230q392 0 507 90q63 51 63 142q0 352 -87 475q-36 48 -79 49q-74 0 -110 -102q-22 -63 -22 -146q0 -97 67 -124q36 -14 96 -14q70 0 145 31q60 25 115 -12q32 -22 46 -55q25 -60 -12 -115q-22 -32 -55 -46q-115 -47 -239 -47q-186 0 -298 103
q-109 100 -109 269q0 154 64 287q97 200 293 216q17 1 33 1zM654 60q7 60 61 91q36 19 75 15q301 -36 440 -176q93 -95 93 -224q0 -181 -175 -291q-179 -106 -445 -108q-352 0 -521 199q-125 148 -125 372q0 220 111 523q19 55 77 74q41 12 80 -1q55 -19 74 -77
q12 -41 -1 -80q-95 -261 -95 -439q0 -161 70 -233q91 -92 330 -92q259 0 347 93q29 31 29 60q0 67 -111 111q-79 31 -208 47q-60 7 -91 61q-19 36 -15 75z" />
    <glyph glyph-name="uniFC37" unicode="&#xfb90;&#xfe8e;" horiz-adv-x="1586" arabic-form="isolated" 
d="M217 1333q62 -2 97 -55q21 -33 20 -72q-11 -304 -11 -808q0 -121 29 -164q5 -7 10 -12q44 -45 188 -53q45 -2 107 -2h1q205 0 275 51q47 35 48 94q-1 170 -377 554q-44 45 -31 109q9 43 41 70l24 16l734 360q58 29 115 -4q32 -20 49 -52q29 -58 -4 -115q-20 -32 -52 -49
l-584 -287q165 -180 235 -297q96 -161 96 -305q0 -146 -99 -248q-27 -26 -57 -46q-143 -95 -413 -95h-1q-229 0 -342 43q-84 32 -139 90q-87 92 -97 265q-2 34 -2 77q0 454 13 818q2 62 55 97q33 21 72 20z" />
    <glyph glyph-name="uniFC3D" unicode="&#xfb90;&#xfbfd;" horiz-adv-x="2206" arabic-form="isolated" 
d="M325 534q55 -19 74 -77q12 -41 -1 -80q-95 -261 -95 -439q0 -161 70 -233q91 -92 330 -92q246 0 342 94q33 33 34 59q0 39 -54 77q-84 59 -265 81q-60 7 -91 61q-19 36 -15 75q7 60 61 91q36 19 75 15q301 -36 440 -176q93 -95 93 -224q0 -181 -175 -291
q-179 -106 -445 -108q-352 0 -521 199q-125 148 -125 372q0 220 111 523q19 55 77 74q41 12 80 -1zM653 45q0 63 52 100q32 22 70 22h377q391 0 440 101q9 19 9 44q-1 170 -377 554q-44 45 -31 109q9 43 41 70l24 16l734 360q58 29 115 -4q32 -20 49 -52q29 -58 -4 -115
q-20 -32 -52 -49l-584 -287q165 -180 235 -297q96 -161 96 -305q0 -279 -341 -357q-143 -32 -354 -32h-377q-63 0 -100 52q-22 32 -22 70z" />
    <glyph glyph-name="uniFC3E" unicode="&#xfb90;&#xfef2;" horiz-adv-x="2206" arabic-form="isolated" 
d="M380 -1029q-33 45 -11 97q12 25 32 40q140 103 320 103q125 0 198 -57q62 -50 60 -130q0 -63 -50 -93q-24 -15 -51 -15q-59 0 -84 45q-5 11 -8 23q-2 31 -65 31q-115 -1 -204 -65q-48 -34 -101 -9q-22 12 -36 30zM325 534q55 -19 74 -77q12 -41 -1 -80q-95 -261 -95 -439
q0 -161 70 -233q91 -92 330 -92q246 0 342 94q33 33 34 59q0 39 -54 77q-84 59 -265 81q-60 7 -91 61q-19 36 -15 75q7 60 61 91q36 19 75 15q301 -36 440 -176q93 -95 93 -224q0 -181 -175 -291q-179 -106 -445 -108q-352 0 -521 199q-125 148 -125 372q0 220 111 523
q19 55 77 74q41 12 80 -1zM653 45q0 63 52 100q32 22 70 22h377q391 0 440 101q9 19 9 44q-1 170 -377 554q-44 45 -31 109q9 43 41 70l24 16l734 360q58 29 115 -4q32 -20 49 -52q29 -58 -4 -115q-20 -32 -52 -49l-584 -287q165 -180 235 -297q96 -161 96 -305
q0 -279 -341 -357q-143 -32 -354 -32h-377q-63 0 -100 52q-22 32 -22 70z" />
    <glyph glyph-name="uniFC80" unicode="&#xfb91;&#xfe8e;" horiz-adv-x="1645" arabic-form="final" 
d="M217 1333q62 -2 97 -55q21 -33 20 -72q-11 -304 -11 -808q0 -121 29 -164q5 -7 10 -12q44 -45 188 -53q45 -2 107 -2h1q205 0 275 51q47 35 48 94q-1 170 -377 554q-44 45 -31 109q9 43 41 70l24 16l734 360q58 29 115 -4q32 -20 49 -52q29 -58 -4 -115q-20 -32 -52 -49
l-584 -287q165 -180 235 -297q96 -161 96 -305q0 -146 -99 -248q-27 -26 -57 -46q-143 -95 -413 -95h-1q-229 0 -342 43q-84 32 -139 90q-87 92 -97 265q-2 34 -2 77q0 454 13 818q2 62 55 97q33 21 72 20zM606 1038q46 45 110 32q37 -8 63 -34q188 -192 272 -301
q100 -133 151 -259q68 -171 114 -226q49 -59 138 -74q56 -9 190 -9h1q63 0 100 -52q23 -32 23 -70q0 -63 -52 -99q-33 -23 -71 -23h-1q-238 0 -364 58q-138 64 -231 232q-40 73 -77 171q-60 159 -296 408q-33 35 -71 74q-46 47 -33 110q8 36 34 62z" />
    <glyph glyph-name="uniFC83" unicode="&#xfb91;&#xfef0;" horiz-adv-x="2265" arabic-form="final" 
d="M1226 1038q46 45 110 32q37 -8 63 -34q191 -195 277 -310q98 -132 144 -256q66 -175 103 -226q41 -56 112 -69q45 -8 211 -8h18h1q63 0 100 -52q23 -32 23 -70q0 -63 -52 -99q-33 -23 -71 -23h-1q-238 0 -364 58q-138 64 -231 232q-40 73 -77 171q-60 159 -296 408
q-33 35 -71 74q-46 47 -33 110q8 36 34 62zM325 534q55 -19 74 -77q12 -41 -1 -80q-95 -261 -95 -439q0 -161 70 -233q91 -92 330 -92q246 0 342 94q33 33 34 59q0 39 -54 77q-84 59 -265 81q-60 7 -91 61q-19 36 -15 75q7 60 61 91q36 19 75 15q301 -36 440 -176
q93 -95 93 -224q0 -181 -175 -291q-179 -106 -445 -108q-352 0 -521 199q-125 148 -125 372q0 220 111 523q19 55 77 74q41 12 80 -1zM653 45q0 63 52 100q32 22 70 22h327q388 0 478 98q21 23 21 47q-1 170 -377 554q-44 45 -31 109q9 43 41 70l24 16l734 360q58 29 115 -4
q32 -20 49 -52q29 -58 -4 -115q-20 -32 -52 -49l-584 -287q165 -180 235 -297q96 -161 96 -305q0 -317 -479 -375q-116 -14 -266 -14h-327q-63 0 -100 52q-22 32 -22 70z" />
    <glyph glyph-name="uniFC84" unicode="&#xfb91;&#xfef2;" horiz-adv-x="2265" arabic-form="final" 
d="M380 -1029q-33 45 -11 97q12 25 32 40q140 103 320 103q125 0 198 -57q62 -50 60 -130q0 -63 -50 -93q-24 -15 -51 -15q-59 0 -84 45q-5 11 -8 23q-2 31 -65 31q-115 -1 -204 -65q-48 -34 -101 -9q-22 12 -36 30zM1226 1038q46 45 110 32q37 -8 63 -34q191 -195 277 -310
q98 -132 144 -256q66 -175 103 -226q41 -56 112 -69q45 -8 211 -8h18h1q63 0 100 -52q23 -32 23 -70q0 -63 -52 -99q-33 -23 -71 -23h-1q-238 0 -364 58q-138 64 -231 232q-40 73 -77 171q-60 159 -296 408q-33 35 -71 74q-46 47 -33 110q8 36 34 62zM325 534q55 -19 74 -77
q12 -41 -1 -80q-95 -261 -95 -439q0 -161 70 -233q91 -92 330 -92q246 0 342 94q33 33 34 59q0 39 -54 77q-84 59 -265 81q-60 7 -91 61q-19 36 -15 75q7 60 61 91q36 19 75 15q301 -36 440 -176q93 -95 93 -224q0 -181 -175 -291q-179 -106 -445 -108q-352 0 -521 199
q-125 148 -125 372q0 220 111 523q19 55 77 74q41 12 80 -1zM653 45q0 63 52 100q32 22 70 22h327q388 0 478 98q21 23 21 47q-1 170 -377 554q-44 45 -31 109q9 43 41 70l24 16l734 360q58 29 115 -4q32 -20 49 -52q29 -58 -4 -115q-20 -32 -52 -49l-584 -287
q165 -180 235 -297q96 -161 96 -305q0 -317 -479 -375q-116 -14 -266 -14h-327q-63 0 -100 52q-22 32 -22 70z" />
    <glyph glyph-name="uniFE71" unicode="&#x640;&#x64b;" horiz-adv-x="668" arabic-form="medial" 
d="M-123 45q0 63 52 99q33 23 71 23h668q63 0 100 -52q23 -32 23 -70q0 -63 -52 -99q-33 -23 -71 -23h-668q-63 0 -100 52q-23 32 -23 70zM90 1255q-10 28 13 49q7 6 15 9l405 144q28 10 49 -13q6 -7 9 -15q10 -28 -13 -49q-7 -6 -15 -9l-405 -144q-28 -10 -49 13
q-6 7 -9 15zM90 1047q-10 28 13 49q7 6 15 9l405 144q28 10 49 -13q6 -7 9 -15q10 -28 -13 -49q-7 -6 -15 -9l-405 -144q-28 -10 -49 13q-6 7 -9 15z" />
    <glyph glyph-name="uniFE77" unicode="&#x640;&#x64e;" horiz-adv-x="668" arabic-form="medial" 
d="M-123 45q0 63 52 99q33 23 71 23h668q63 0 100 -52q23 -32 23 -70q0 -63 -52 -99q-33 -23 -71 -23h-668q-63 0 -100 52q-23 32 -23 70zM90 1246q-10 28 13 49q7 6 15 9l405 144q28 10 49 -13q6 -7 9 -15q10 -28 -13 -49q-7 -6 -15 -9l-405 -144q-28 -10 -49 13
q-6 7 -9 15z" />
    <glyph glyph-name="uniFE79" unicode="&#x640;&#x64f;" horiz-adv-x="668" arabic-form="medial" 
d="M-123 45q0 63 52 99q33 23 71 23h668q63 0 100 -52q23 -32 23 -70q0 -63 -52 -99q-33 -23 -71 -23h-668q-63 0 -100 52q-23 32 -23 70zM364 1468q134 -6 135 -236q0 -237 -241 -291q-53 -11 -117 -15q-29 -2 -43 26q-4 9 -5 18q-2 31 26 44q8 3 16 4q167 9 224 65
q48 49 48 149q0 114 -23 135q-10 9 -24 9q-37 0 -65 -49q-20 -35 -20 -71q0 -70 188 -82q31 -2 65 -2q30 0 42 -28q3 -9 3 -17q0 -30 -28 -42q-9 -3 -17 -3q-342 1 -343 172q0 83 49 147q51 66 130 67z" />
    <glyph glyph-name="uniFE7B" unicode="&#x640;&#x650;" horiz-adv-x="668" arabic-form="medial" 
d="M-123 45q0 63 52 99q33 23 71 23h668q63 0 100 -52q23 -32 23 -70q0 -63 -52 -99q-33 -23 -71 -23h-668q-63 0 -100 52q-23 32 -23 70zM90 -444q-10 28 13 49q7 6 15 9l405 144q28 10 49 -13q6 -7 9 -15q10 -28 -13 -49q-7 -6 -15 -9l-405 -144q-28 -10 -49 13
q-6 7 -9 15z" />
    <glyph glyph-name="uniFE7D" unicode="&#x640;&#x651;" horiz-adv-x="668" arabic-form="medial" 
d="M-123 45q0 63 52 99q33 23 71 23h668q63 0 100 -52q23 -32 23 -70q0 -63 -52 -99q-33 -23 -71 -23h-668q-63 0 -100 52q-23 32 -23 70zM457 1599q27 12 50 -10q7 -7 10 -14q48 -107 48 -204t-70 -137q-33 -19 -74 -19q-79 1 -126 74q-49 -73 -128 -74q-74 0 -114 56
q-26 37 -26 86q1 94 70 186q19 25 50 15q8 -3 14 -7q25 -19 15 -50q-3 -8 -7 -14q-40 -52 -49 -113q-1 -10 -1 -17q2 -49 48 -50q39 0 64 47q18 35 20 87q1 29 28 41q6 2 11 3q30 3 45 -24q5 -10 6 -20q5 -108 60 -131q11 -5 22 -5q51 2 52 66q0 73 -42 168q-12 27 10 50
q7 7 14 10z" />
    <glyph glyph-name="uniFE7F" unicode="&#x640;&#x652;" horiz-adv-x="668" arabic-form="medial" 
d="M-123 45q0 63 52 99q33 23 71 23h668q63 0 100 -52q23 -32 23 -70q0 -63 -52 -99q-33 -23 -71 -23h-668q-63 0 -100 52q-23 32 -23 70zM328 1360q-44 0 -74 -43q-20 -30 -20 -67q0 -46 40 -75q25 -17 53 -17q48 0 76 45q17 28 17 65q0 49 -40 76q-23 16 -52 16zM328 1450
q93 0 147 -74q35 -49 35 -108q0 -99 -69 -158q-50 -42 -114 -42q-89 0 -144 71q-39 50 -39 111q0 95 68 155q52 45 116 45z" />
    <glyph glyph-name="uniFEF5" unicode="&#xfedf;&#xfe82;" horiz-adv-x="1231" arabic-form="isolated" 
d="M682 1730q26 -13 25 -44q0 -10 -4 -18q-76 -153 -193 -154q-65 1 -139 50q-46 32 -86 32q-69 0 -119 -79q-4 -5 -6 -9q-14 -26 -45 -23q-10 1 -18 5q-27 15 -22 46q1 9 5 16q59 103 154 128q26 6 51 6q68 -1 138 -48q48 -32 87 -32q63 2 111 102q13 27 43 26q10 0 18 -4z
M1012 1325q62 6 104 -43q25 -30 29 -68q27 -305 28 -667v-27q0 -341 -166 -481q-140 -116 -414 -116q-229 0 -431 30q-59 8 -89 62q-20 37 -14 77q9 60 64 89q36 19 75 14q192 -28 395 -28q178 0 239 26q62 27 82 104q15 63 15 223q0 353 -25 636q-1 18 -3 36q-6 63 44 105
q30 24 67 28zM343 1263q61 21 114 -17q30 -23 42 -57q85 -238 108 -475q12 -133 12 -306q0 -63 -52 -99q-33 -23 -71 -23q-63 0 -100 52q-22 32 -22 70q0 321 -51 525q-20 79 -54 174q-21 61 17 114q23 30 57 42z" />
    <glyph glyph-name="uniFEF6" unicode="&#xfee0;&#xfe82;" horiz-adv-x="1282" arabic-form="final" 
d="M682 1730q26 -13 25 -44q0 -10 -4 -18q-76 -153 -193 -154q-65 1 -139 50q-46 32 -86 32q-69 0 -119 -79q-4 -5 -6 -9q-14 -26 -45 -23q-10 1 -18 5q-27 15 -22 46q1 9 5 16q59 103 154 128q26 6 51 6q68 -1 138 -48q48 -32 87 -32q63 2 111 102q13 27 43 26q10 0 18 -4z
M910 1287q63 8 106 -40q25 -29 30 -66q42 -353 45 -609v-58q-2 -590 -645 -591q-108 0 -278 16q-60 5 -93 59q-20 36 -17 75q5 61 60 93q35 20 74 17q164 -16 254 -16q191 0 267 34q91 40 117 154q15 64 15 159q0 284 -35 584q-3 26 -6 53q-8 63 40 106q29 25 66 30z
M388 324q-58 12 -86 66q-20 38 -12 78q15 79 15 159q0 227 -99 447q-26 60 8 116q20 31 52 46q58 26 115 -8q33 -21 48 -54q122 -268 122 -547q0 -111 -19 -206q-12 -58 -66 -86q-38 -19 -78 -11zM968 637q63 0 100 -52q23 -33 23 -71q0 -234 57 -301q45 -45 133 -46h1
q63 0 100 -52q23 -32 23 -70q0 -63 -52 -99q-33 -23 -71 -23h-1q-297 1 -394 290q-42 127 -42 301q0 63 52 100q33 23 71 23z" />
    <glyph glyph-name="uniFEF7" unicode="&#xfedf;&#xfe84;" horiz-adv-x="1231" arabic-form="isolated" 
d="M1012 1325q62 6 104 -43q25 -30 29 -68q27 -305 28 -667v-27q0 -341 -166 -481q-140 -116 -414 -116q-229 0 -431 30q-59 8 -89 62q-20 37 -14 77q9 60 64 89q36 19 75 14q192 -28 395 -28q178 0 239 26q62 27 82 104q15 63 15 223q0 353 -25 636q-1 18 -3 36
q-6 63 44 105q30 24 67 28zM343 1263q61 21 114 -17q30 -23 42 -57q85 -238 108 -475q12 -133 12 -306q0 -63 -52 -99q-33 -23 -71 -23q-63 0 -100 52q-22 32 -22 70q0 321 -51 525q-20 79 -54 174q-21 61 17 114q23 30 57 42zM485 1741q-25 -19 -52 0q-7 5 -11 10
q-37 48 -88 48q-57 0 -98 -50q-34 -42 -34 -95q0 -73 65 -89q25 -6 60 -6q80 0 183 36q31 10 51 -16q6 -8 8 -16q8 -28 -17 -47q-6 -5 -12 -7l-405 -141q-28 -10 -49 13q-6 7 -9 15q-10 28 13 49q7 6 15 9l113 39q-93 36 -106 133q-2 14 -2 28q0 105 77 177q66 60 147 60
q92 0 155 -80q3 -3 5 -6q19 -25 2 -52q-5 -7 -11 -12z" />
    <glyph glyph-name="uniFEF8" unicode="&#xfee0;&#xfe84;" horiz-adv-x="1282" arabic-form="final" 
d="M485 1741q-25 -19 -52 0q-7 5 -11 10q-37 48 -88 48q-57 0 -98 -50q-34 -42 -34 -95q0 -73 65 -89q25 -6 60 -6q80 0 183 36q31 10 51 -16q6 -8 8 -16q8 -28 -17 -47q-6 -5 -12 -7l-405 -141q-28 -10 -49 13q-6 7 -9 15q-10 28 13 49q7 6 15 9l113 39q-93 36 -106 133
q-2 14 -2 28q0 105 77 177q66 60 147 60q92 0 155 -80q3 -3 5 -6q19 -25 2 -52q-5 -7 -11 -12zM910 1287q63 8 106 -40q25 -29 30 -66q42 -353 45 -609v-58q-2 -590 -645 -591q-108 0 -278 16q-60 5 -93 59q-20 36 -17 75q5 61 60 93q35 20 74 17q164 -16 254 -16
q191 0 267 34q91 40 117 154q15 64 15 159q0 284 -35 584q-3 26 -6 53q-8 63 40 106q29 25 66 30zM388 324q-58 12 -86 66q-20 38 -12 78q15 79 15 159q0 227 -99 447q-26 60 8 116q20 31 52 46q58 26 115 -8q33 -21 48 -54q122 -268 122 -547q0 -111 -19 -206
q-12 -58 -66 -86q-38 -19 -78 -11zM968 637q63 0 100 -52q23 -33 23 -71q0 -234 57 -301q45 -45 133 -46h1q63 0 100 -52q23 -32 23 -70q0 -63 -52 -99q-33 -23 -71 -23h-1q-297 1 -394 290q-42 127 -42 301q0 63 52 100q33 23 71 23z" />
    <glyph glyph-name="uniFEF9" unicode="&#xfedf;&#xfe88;" horiz-adv-x="1231" arabic-form="isolated" 
d="M1012 1325q62 6 104 -43q25 -30 29 -68q27 -305 28 -667v-27q0 -341 -166 -481q-140 -116 -414 -116q-229 0 -431 30q-59 8 -89 62q-20 37 -14 77q9 60 64 89q36 19 75 14q192 -28 395 -28q178 0 239 26q62 27 82 104q15 63 15 223q0 353 -25 636q-1 18 -3 36
q-6 63 44 105q30 24 67 28zM343 1263q61 21 114 -17q30 -23 42 -57q85 -238 108 -475q12 -133 12 -306q0 -63 -52 -99q-33 -23 -71 -23q-63 0 -100 52q-22 32 -22 70q0 321 -51 525q-20 79 -54 174q-21 61 17 114q23 30 57 42zM485 -383q-25 -19 -52 0q-7 5 -11 10
q-37 48 -88 48q-57 0 -98 -50q-34 -42 -34 -95q0 -73 65 -89q25 -6 60 -6q80 0 183 36q31 10 51 -16q6 -8 8 -16q8 -28 -17 -47q-6 -5 -12 -7l-405 -141q-28 -10 -49 13q-6 7 -9 15q-10 28 13 49q7 6 15 9l113 39q-93 36 -106 133q-2 14 -2 28q0 105 77 177q66 60 147 60
q92 0 155 -80q3 -3 5 -6q19 -25 2 -52q-5 -7 -11 -12z" />
    <glyph glyph-name="uniFEFA" unicode="&#xfee0;&#xfe88;" horiz-adv-x="1282" arabic-form="final" 
d="M485 -383q-25 -19 -52 0q-7 5 -11 10q-37 48 -88 48q-57 0 -98 -50q-34 -42 -34 -95q0 -73 65 -89q25 -6 60 -6q80 0 183 36q31 10 51 -16q6 -8 8 -16q8 -28 -17 -47q-6 -5 -12 -7l-405 -141q-28 -10 -49 13q-6 7 -9 15q-10 28 13 49q7 6 15 9l113 39q-93 36 -106 133
q-2 14 -2 28q0 105 77 177q66 60 147 60q92 0 155 -80q3 -3 5 -6q19 -25 2 -52q-5 -7 -11 -12zM910 1287q63 8 106 -40q25 -29 30 -66q42 -353 45 -609v-58q-2 -590 -645 -591q-108 0 -278 16q-60 5 -93 59q-20 36 -17 75q5 61 60 93q35 20 74 17q164 -16 254 -16
q191 0 267 34q91 40 117 154q15 64 15 159q0 284 -35 584q-3 26 -6 53q-8 63 40 106q29 25 66 30zM388 324q-58 12 -86 66q-20 38 -12 78q15 79 15 159q0 227 -99 447q-26 60 8 116q20 31 52 46q58 26 115 -8q33 -21 48 -54q122 -268 122 -547q0 -111 -19 -206
q-12 -58 -66 -86q-38 -19 -78 -11zM968 637q63 0 100 -52q23 -33 23 -71q0 -234 57 -301q45 -45 133 -46h1q63 0 100 -52q23 -32 23 -70q0 -63 -52 -99q-33 -23 -71 -23h-1q-297 1 -394 290q-42 127 -42 301q0 63 52 100q33 23 71 23z" />
    <glyph glyph-name="uniFEFB" unicode="&#xfedf;&#xfe8e;" horiz-adv-x="1231" arabic-form="isolated" 
d="M1012 1325q62 6 104 -43q25 -30 29 -68q27 -305 28 -667v-27q0 -341 -166 -481q-140 -116 -414 -116q-229 0 -431 30q-59 8 -89 62q-20 37 -14 77q9 60 64 89q36 19 75 14q192 -28 395 -28q178 0 239 26q62 27 82 104q15 63 15 223q0 353 -25 636q-1 18 -3 36
q-6 63 44 105q30 24 67 28zM343 1263q61 21 114 -17q30 -23 42 -57q85 -238 108 -475q12 -133 12 -306q0 -63 -52 -99q-33 -23 -71 -23q-63 0 -100 52q-22 32 -22 70q0 321 -51 525q-20 79 -54 174q-21 61 17 114q23 30 57 42z" />
    <glyph glyph-name="uniFEFC" unicode="&#xfee0;&#xfe8e;" horiz-adv-x="1282" arabic-form="final" 
d="M910 1287q63 8 106 -40q25 -29 30 -66q42 -353 45 -609v-58q-2 -590 -645 -591q-108 0 -278 16q-60 5 -93 59q-20 36 -17 75q5 61 60 93q35 20 74 17q164 -16 254 -16q191 0 267 34q91 40 117 154q15 64 15 159q0 284 -35 584q-3 26 -6 53q-8 63 40 106q29 25 66 30z
M388 324q-58 12 -86 66q-20 38 -12 78q15 79 15 159q0 227 -99 447q-26 60 8 116q20 31 52 46q58 26 115 -8q33 -21 48 -54q122 -268 122 -547q0 -111 -19 -206q-12 -58 -66 -86q-38 -19 -78 -11zM968 637q63 0 100 -52q23 -33 23 -71q0 -234 57 -301q45 -45 133 -46h1
q63 0 100 -52q23 -32 23 -70q0 -63 -52 -99q-33 -23 -71 -23h-1q-297 1 -394 290q-42 127 -42 301q0 63 52 100q33 23 71 23z" />
    <glyph glyph-name="uniFB57" unicode="&#x67e;" horiz-adv-x="1959" arabic-form="final" 
d="M876 -267q113 0 184 -60q60 -52 61 -131q0 -126 -118 -238q-85 -80 -181 -109q-53 -15 -94 22q-19 19 -27 44q-21 71 58 117q5 3 9 5q47 20 101 68q41 37 42 58q-2 31 -52 32q-66 0 -207 -53q-27 -10 -36 -15q-83 -38 -130 14q-4 4 -6 7q-33 45 -11 96q11 25 32 41
q84 61 238 89q72 13 137 13zM2081 45q0 -63 -52 -100q-32 -22 -70 -22h-1q-346 1 -453 261q-245 -291 -794 -291q-309 0 -492 139q-181 141 -182 382q0 113 42 246q18 57 74 78q39 14 79 2q56 -18 78 -74q15 -40 3 -80q-30 -97 -30 -172q0 -219 263 -265q73 -12 165 -12
q492 0 658 249q54 83 77 194q11 57 65 85q26 12 53 13q63 1 101 -51q26 -37 23 -79q-3 -45 -3 -83q0 -172 49 -233q44 -55 162 -63q28 -2 62 -2h1q63 0 100 -52q22 -32 22 -70z" />
    <glyph glyph-name="uniFB58" unicode="&#x67e;" horiz-adv-x="532" arabic-form="initial" 
d="M177 -258q113 0 184 -60q60 -52 61 -131q0 -126 -118 -238q-85 -80 -181 -109q-53 -15 -94 22q-19 19 -27 44q-21 71 58 117q5 3 9 5q47 20 101 68q41 37 42 58q-2 31 -52 32q-66 0 -207 -53q-27 -10 -36 -15q-83 -38 -130 14q-4 4 -6 7q-33 45 -11 96q11 25 32 41
q84 61 238 89q72 13 137 13zM256 783q62 19 113 -22q29 -24 40 -59q66 -212 66 -353q-1 -194 -104 -303q-120 -123 -371 -123q-63 0 -100 52q-22 32 -22 70q0 63 52 100q32 22 70 22q148 0 195 49q34 35 34 133q0 111 -54 281q-19 62 22 113q24 29 59 40z" />
    <glyph glyph-name="uniFB59" unicode="&#x67e;" horiz-adv-x="811" arabic-form="medial" 
d="M177 -258q113 0 184 -60q60 -52 61 -131q0 -126 -118 -238q-85 -80 -181 -109q-53 -15 -94 22q-19 19 -27 44q-21 71 58 117q5 3 9 5q47 20 101 68q41 37 42 58q-2 31 -52 32q-66 0 -207 -53q-27 -10 -36 -15q-83 -38 -130 14q-4 4 -6 7q-33 45 -11 96q11 25 32 41
q84 61 238 89q72 13 137 13zM-123 45q0 63 52 99q33 23 71 23q34 0 79 4q115 10 154 44q47 40 48 158q0 57 -8 148q-5 63 44 104q34 28 77 29q63 1 100 -51q20 -27 23 -59q21 -204 29 -243q17 -81 63 -107t182 -27h19h1q63 0 100 -52q23 -32 23 -70q0 -63 -52 -99
q-33 -23 -71 -23h-1q-213 0 -323 79q-43 31 -77 76q-96 -129 -304 -150q-48 -5 -106 -5q-63 0 -100 52q-23 32 -23 70z" />
    <glyph glyph-name="uniFB7B" unicode="&#x686;" horiz-adv-x="1332" arabic-form="final" 
d="M720.381 30.373q79.0938 0 128.791 -41.998q41.9961 -36.3965 42.6963 -91.6934q0 -88.1934 -82.5938 -166.588q-59.4961 -55.9961 -126.691 -76.2949q-37.0977 -10.499 -65.7959 15.3984q-13.2988 13.2998 -18.8984 30.7988q-14.6992 49.6963 40.5977 81.8936
q3.5 2.10059 6.29883 3.5q32.8984 13.999 70.6953 47.5967q28.6982 25.8984 29.3984 40.5977q-1.40039 21.6982 -36.3975 22.3984q-46.1973 0 -144.89 -37.0977q-18.8994 -7 -25.1992 -10.5q-58.0957 -26.5977 -90.9932 9.7998q-2.7998 2.7998 -4.2002 4.89941
q-23.0977 31.498 -7.69922 67.1953q7.69922 17.499 22.3984 28.6982q58.7959 42.6973 166.589 62.2959q50.3965 9.09961 95.8936 9.09961zM693 -715q-219 0 -391 91q-220 116 -258 335q-7 43 -7 88q0 359 419 601q125 72 284 131q-228 112 -308 112q-71 0 -110 -77
q-10 -19 -18 -41q-21 -56 -78 -75q-40 -13 -78 0q-55 19 -76 76q-13 41 0 80q100 280 361 281q183 0 608 -221q38 -20 75 -40q68 -39 87 -72q12 -22 12 -46q0 -63 -56 -101q-25 -17 -53 -23q-147 -29 -330 -104q-361 -149 -459 -344q-34 -67 -34 -137q0 -129 125 -204
q112 -66 285 -66q183 0 337 83q57 30 116 0q33 -18 50 -50q30 -57 0 -116q-18 -33 -50 -50q-213 -111 -453 -111zM1455 45q0 -63 -52 -99q-33 -23 -71 -23h-1q-224 0 -377 123q-168 136 -183 370q-1 21 -1 42q0 63 52 100q32 22 70 22q63 0 100 -52q23 -32 23 -70
q2 -290 316 -291h1q63 0 100 -52q23 -32 23 -70z" />
    <glyph glyph-name="uniFB7C" unicode="&#x686;" horiz-adv-x="1332" arabic-form="initial" 
d="M526 -228q113 0 184 -60q60 -52 61 -131q0 -126 -118 -238q-85 -80 -181 -109q-53 -15 -94 22q-19 19 -27 44q-21 71 58 117q5 3 9 5q47 20 101 68q41 37 42 58q-2 31 -52 32q-66 0 -207 -53q-27 -10 -36 -15q-83 -38 -130 14q-4 4 -6 7q-33 45 -11 96q11 25 32 41
q84 61 238 89q72 13 137 13zM119 414q-57 15 -81 71q-16 39 -6 78q45 173 178 263q95 63 205 63q130 0 316 -99q19 -10 145 -82q214 -121 304 -150q56 -18 76 -75q17 -46 -1 -89q-19 -47 -68 -67q-12 -5 -23 -7q-101 -19 -284 -120q-20 -12 -45 -26q-251 -142 -451 -198
q-190 -53 -384 -53q-63 0 -100 52q-22 32 -22 70q0 63 52 100q32 22 70 22q280 0 563 140q66 33 150 81q78 44 125 63q-40 18 -84 43q-266 150 -339 151q-62 0 -107 -58q-27 -35 -40 -86q-15 -57 -71 -81q-39 -16 -78 -6z" />
    <glyph glyph-name="uniFB7D" unicode="&#x686;" horiz-adv-x="1351" arabic-form="medial" 
d="M588 -228q113 0 184 -60q60 -52 61 -131q0 -126 -118 -238q-85 -80 -181 -109q-53 -15 -94 22q-19 19 -27 44q-21 71 58 117q5 3 9 5q47 20 101 68q41 37 42 58q-2 31 -52 32q-66 0 -207 -53q-27 -10 -36 -15q-83 -38 -130 14q-4 4 -6 7q-33 45 -11 96q11 25 32 41
q84 61 238 89q72 13 137 13zM953 499q63 0 100 -52q22 -32 22 -70q0 -133 122 -184q64 -26 153 -26h1q63 0 100 -52q23 -32 23 -70q0 -63 -52 -99q-33 -23 -71 -23h-1q-205 0 -349 107q-157 118 -169 317q-1 15 -1 30q0 63 52 100q32 22 70 22zM119 414q-57 15 -81 71
q-16 39 -6 78q45 173 178 263q95 63 205 63q130 0 316 -99q19 -10 145 -82q214 -121 304 -150q56 -18 76 -75q17 -46 -1 -89q-19 -47 -68 -67q-12 -5 -23 -7q-101 -19 -284 -120q-20 -12 -45 -26q-251 -142 -451 -198q-190 -53 -384 -53q-63 0 -100 52q-22 32 -22 70
q0 63 52 100q32 22 70 22q280 0 563 140q66 33 150 81q78 44 125 63q-40 18 -84 43q-266 150 -339 151q-62 0 -107 -58q-27 -35 -40 -86q-15 -57 -71 -81q-39 -16 -78 -6z" />
    <glyph glyph-name="uniFB8B" unicode="&#x698;" horiz-adv-x="917" arabic-form="final" 
d="M547 874q-45 30 -44 84q1 29 16 52q12 21 12 50q0 62 -65 75q-15 3 -32 3q-49 0 -76 -40q-12 -18 -12 -34q0 -44 32 -80q14 -15 47 -46q40 -37 30 -91q-5 -27 -23 -47q-36 -39 -91 -30q-28 5 -48 24q-83 74 -115 141q-28 61 -28 129q0 119 93 199q84 71 191 71
q122 0 208 -78q85 -78 85 -196q-1 -94 -44 -158q-30 -45 -84 -44q-29 0 -52 16zM1039 45q0 -63 -52 -100q-32 -22 -70 -22h-1q-229 1 -352 126q-87 91 -135 261q-10 37 -36 146q-15 61 29 109q26 29 62 38q62 15 111 -30q27 -26 36 -61q57 -236 107 -291l2 -2
q44 -46 141 -51q17 -1 35 -1h1q63 0 100 -52q22 -32 22 -70zM481 602q62 16 111 -27q28 -25 38 -60q69 -258 69 -444q0 -295 -229 -488q-111 -94 -266 -154q-60 -23 -114 14q-31 23 -44 56q-23 60 14 114q23 31 56 44q268 103 323 294q16 56 16 120q0 151 -61 382
q-16 62 27 111q25 28 60 38z" />
    <glyph glyph-name="uniFB8F" unicode="&#x6a9;" horiz-adv-x="1921" arabic-form="final" 
d="M1820 1365q29 -58 -4 -115q-20 -32 -52 -49l-734 -360q-58 -29 -115 4q-32 20 -49 52q-29 58 4 115q20 32 52 49l734 360q58 29 115 -4q32 -20 49 -52zM768 -107q-404 0 -577 125q-153 111 -154 322q0 105 35 221q17 56 73 78q40 16 80 4q57 -17 79 -73q15 -40 4 -79
q-25 -86 -25 -151q0 -100 79 -145q105 -58 406 -58q418 0 483 108q14 25 14 58q0 98 -83 221q-18 26 -43 60q-80 109 -251 282q-44 45 -31 109q9 43 41 70q49 41 112 23q31 -10 53 -31q116 -118 188 -203q171 -204 243 -390q58 -153 95 -199q42 -55 122 -69q55 -9 209 -9h1
q63 0 100 -52q23 -32 23 -70q0 -63 -52 -99q-33 -23 -71 -23h-1q-193 0 -284 24q-129 35 -217 140q-99 -136 -341 -174q-123 -20 -310 -20z" />
    <glyph glyph-name="uniFB90" unicode="&#x6a9;" horiz-adv-x="1054" arabic-form="initial" 
d="M-123 45q0 63 52 99q33 23 71 23q391 0 440 101q9 19 9 44q-1 170 -377 554q-44 45 -31 109q9 43 41 70l24 16l734 360q58 29 115 -4q32 -20 49 -52q29 -58 -4 -115q-20 -32 -52 -49l-584 -287q165 -180 235 -297q96 -161 96 -305q0 -279 -341 -357q-143 -32 -354 -32
q-63 0 -100 52q-23 32 -23 70z" />
    <glyph glyph-name="uniFB91" unicode="&#x6a9;" horiz-adv-x="1113" arabic-form="medial" 
d="M50 897q-29 58 4 115q20 32 52 49l734 360q58 29 115 -4q32 -20 49 -52q29 -58 -4 -115q-20 -32 -52 -49l-734 -360q-58 -29 -115 4q-32 20 -49 52zM-123 45q0 63 52 99q33 23 71 23q322 0 404 54q45 30 45 91q0 139 -256 426q-57 64 -121 128q-44 45 -31 109q9 43 41 70
q49 41 112 22q31 -10 53 -31q186 -190 268 -296q107 -141 154 -271q59 -164 98 -216q45 -59 129 -75q60 -11 216 -11h1q63 0 100 -52q23 -32 23 -70q0 -63 -52 -99q-33 -23 -71 -23h-1q-195 0 -286 23q-137 36 -229 148q-98 -124 -333 -156q-108 -15 -264 -15q-63 0 -100 52
q-23 32 -23 70z" />
    <glyph glyph-name="uniFB93" unicode="&#x6af;" horiz-adv-x="1921" arabic-form="final" 
d="M834 1296q-26 48 3 96q14 23 37 36l594 317q48 26 96 -3q23 -14 36 -37q26 -48 -3 -96q-14 -23 -37 -36l-594 -317q-48 -26 -96 3q-23 14 -36 37zM1820 1365q29 -58 -4 -115q-20 -32 -52 -49l-734 -360q-58 -29 -115 4q-32 20 -49 52q-29 58 4 115q20 32 52 49l734 360
q58 29 115 -4q32 -20 49 -52zM768 -107q-404 0 -577 125q-153 111 -154 322q0 105 35 221q17 56 73 78q40 16 80 4q57 -17 79 -73q15 -40 4 -79q-25 -86 -25 -151q0 -100 79 -145q105 -58 406 -58q418 0 483 108q14 25 14 58q0 98 -83 221q-18 26 -43 60q-80 109 -251 282
q-44 45 -31 109q9 43 41 70q49 41 112 23q31 -10 53 -31q116 -118 188 -203q171 -204 243 -390q58 -153 95 -199q42 -55 122 -69q55 -9 209 -9h1q63 0 100 -52q23 -32 23 -70q0 -63 -52 -99q-33 -23 -71 -23h-1q-193 0 -284 24q-129 35 -217 140q-99 -136 -341 -174
q-123 -20 -310 -20z" />
    <glyph glyph-name="uniFB94" unicode="&#x6af;" horiz-adv-x="1054" arabic-form="initial" 
d="M24 1296q-26 48 3 96q14 23 37 36l594 317q48 26 96 -3q23 -14 36 -37q26 -48 -3 -96q-14 -23 -37 -36l-594 -317q-48 -26 -96 3q-23 14 -36 37zM-123 45q0 63 52 99q33 23 71 23q391 0 440 101q9 19 9 44q-1 170 -377 554q-44 45 -31 109q9 43 41 70l24 16l734 360
q58 29 115 -4q32 -20 49 -52q29 -58 -4 -115q-20 -32 -52 -49l-584 -287q165 -180 235 -297q96 -161 96 -305q0 -279 -341 -357q-143 -32 -354 -32q-63 0 -100 52q-23 32 -23 70z" />
    <glyph glyph-name="uniFB95" unicode="&#x6af;" horiz-adv-x="1113" arabic-form="medial" 
d="M24 1296q-26 48 3 96q14 23 37 36l594 317q48 26 96 -3q23 -14 36 -37q26 -48 -3 -96q-14 -23 -37 -36l-594 -317q-48 -26 -96 3q-23 14 -36 37zM50 897q-29 58 4 115q20 32 52 49l734 360q58 29 115 -4q32 -20 49 -52q29 -58 -4 -115q-20 -32 -52 -49l-734 -360
q-58 -29 -115 4q-32 20 -49 52zM-123 45q0 63 52 99q33 23 71 23q322 0 404 54q45 30 45 91q0 139 -256 426q-57 64 -121 128q-44 45 -31 109q9 43 41 70q49 41 112 22q31 -10 53 -31q186 -190 268 -296q107 -141 154 -271q59 -164 98 -216q45 -59 129 -75q60 -11 216 -11h1
q63 0 100 -52q23 -32 23 -70q0 -63 -52 -99q-33 -23 -71 -23h-1q-195 0 -286 23q-137 36 -229 148q-98 -124 -333 -156q-108 -15 -264 -15q-63 0 -100 52q-23 32 -23 70z" />
    <glyph glyph-name="uniFBE8" unicode="&#x649;" horiz-adv-x="532" arabic-form="initial" 
d="M256 783q62 19 113 -22q29 -24 40 -59q66 -212 66 -353q-1 -194 -104 -303q-120 -123 -371 -123q-63 0 -100 52q-22 32 -22 70q0 63 52 100q32 22 70 22q148 0 195 49q34 35 34 133q0 111 -54 281q-19 62 22 113q24 29 59 40z" />
    <glyph glyph-name="uniFBE9" unicode="&#x649;" horiz-adv-x="811" arabic-form="medial" 
d="M-123 45q0 63 52 99q33 23 71 23q34 0 79 4q115 10 154 44q47 40 48 158q0 57 -8 148q-5 63 44 104q34 28 77 29q63 1 100 -51q20 -27 23 -59q21 -204 29 -243q17 -81 63 -107t182 -27h19h1q63 0 100 -52q23 -32 23 -70q0 -63 -52 -99q-33 -23 -71 -23h-1q-213 0 -323 79
q-43 31 -77 76q-96 -129 -304 -150q-48 -5 -106 -5q-63 0 -100 52q-23 32 -23 70z" />
    <glyph glyph-name="uniFBFD" unicode="&#x6cc;" horiz-adv-x="1382" arabic-form="final" 
d="M1505 45q0 -63 -52 -99q-33 -23 -71 -23h-142q82 -64 83 -157q0 -181 -175 -291q-179 -106 -445 -108q-352 0 -521 199q-125 148 -125 372q0 220 111 523q19 55 77 74q41 12 80 -1q55 -19 74 -77q12 -41 -1 -80q-95 -261 -95 -439q0 -161 70 -233q91 -92 330 -92
q246 0 342 94q33 33 34 59q0 39 -54 77q-84 59 -265 81q-61 7 -91 62q-14 24 -16 50q-5 63 45 104q34 27 77 27h607q63 0 100 -52q23 -32 23 -70z" />
    <glyph glyph-name="uniFBFE" unicode="&#x6cc;" horiz-adv-x="532" arabic-form="initial" 
d="M-219 -506q-33 45 -11 97q12 25 32 40q140 103 320 103q125 0 198 -57q62 -50 60 -130q0 -63 -50 -93q-24 -15 -51 -15q-59 0 -84 45q-5 11 -8 23q-2 31 -65 31q-115 -1 -204 -65q-48 -34 -101 -9q-22 12 -36 30zM256 783q62 19 113 -22q29 -24 40 -59q66 -212 66 -353
q-1 -194 -104 -303q-120 -123 -371 -123q-63 0 -100 52q-22 32 -22 70q0 63 52 100q32 22 70 22q148 0 195 49q34 35 34 133q0 111 -54 281q-19 62 22 113q24 29 59 40z" />
    <glyph glyph-name="uniFBFF" unicode="&#x6cc;" horiz-adv-x="811" arabic-form="medial" 
d="M-219 -506q-33 45 -11 97q12 25 32 40q140 103 320 103q125 0 198 -57q62 -50 60 -130q0 -63 -50 -93q-24 -15 -51 -15q-59 0 -84 45q-5 11 -8 23q-2 31 -65 31q-115 -1 -204 -65q-48 -34 -101 -9q-22 12 -36 30zM-123 45q0 63 52 99q33 23 71 23q34 0 79 4
q115 10 154 44q47 40 48 158q0 57 -8 148q-5 63 44 104q34 28 77 29q63 1 100 -51q20 -27 23 -59q21 -204 29 -243q17 -81 63 -107t182 -27h19h1q63 0 100 -52q23 -32 23 -70q0 -63 -52 -99q-33 -23 -71 -23h-1q-213 0 -323 79q-43 31 -77 76q-96 -129 -304 -150
q-48 -5 -106 -5q-63 0 -100 52q-23 32 -23 70z" />
    <glyph glyph-name="uniFC68" unicode="&#xfc68;" horiz-adv-x="1712" arabic-form="final" 
d="M1305 1220q-25 -19 -52 0q-7 5 -11 10q-37 48 -88 48q-57 0 -98 -50q-34 -42 -34 -95q0 -73 65 -89q25 -6 60 -6q80 0 183 36q31 10 51 -16q6 -8 8 -16q8 -28 -17 -47q-6 -5 -12 -7l-405 -141q-28 -10 -49 13q-6 7 -9 15q-10 28 13 49q7 6 15 9l113 39q-93 36 -106 133
q-2 14 -2 28q0 105 77 177q66 60 147 60q92 0 155 -80q3 -3 5 -6q19 -25 2 -52q-5 -7 -11 -12zM690 -714q237 0 398 79q206 102 207 310q0 180 -143 257q-75 39 -210 64q-164 30 -175 87q-1 5 -1 9q0 91 117 172q93 64 237 102q99 -285 303 -384q123 -59 288 -59h1
q63 0 100 52q22 32 22 70q0 63 -52 100q-32 22 -70 22h-1q-171 0 -252 74q-69 64 -117 227q-10 33 -20 73q-14 55 -68 79q-34 15 -70 10q-299 -50 -477 -188q-185 -145 -186 -357q0 -203 224 -290q69 -27 151 -39q117 -19 142 -51q11 -14 11 -30q0 -44 -72 -84
q-108 -60 -287 -60q-221 0 -305 72q-81 73 -82 246q0 156 61 370q17 61 -25 112q-25 29 -60 39q-61 17 -112 -25q-29 -25 -39 -60q-71 -259 -71 -436q0 -320 231 -464q159 -99 402 -99z" />
    <glyph glyph-name="uniFC69" unicode="&#xfc69;" horiz-adv-x="1712" arabic-form="final" 
d="M1305 1220q-25 -19 -52 0q-7 5 -11 10q-37 48 -88 48q-57 0 -98 -50q-34 -42 -34 -95q0 -73 65 -89q25 -6 60 -6q80 0 183 36q31 10 51 -16q6 -8 8 -16q8 -28 -17 -47q-6 -5 -12 -7l-405 -141q-28 -10 -49 13q-6 7 -9 15q-10 28 13 49q7 6 15 9l113 39q-93 36 -106 133
q-2 14 -2 28q0 105 77 177q66 60 147 60q92 0 155 -80q3 -3 5 -6q19 -25 2 -52q-5 -7 -11 -12zM380 -1029q-33 45 -11 97q12 25 32 40q140 103 320 103q125 0 198 -57q62 -50 60 -130q0 -63 -50 -93q-24 -15 -51 -15q-59 0 -84 45q-5 11 -8 23q-2 31 -65 31
q-115 -1 -204 -65q-48 -34 -101 -9q-22 12 -36 30zM690 -714q237 0 398 79q206 102 207 310q0 180 -143 257q-75 39 -210 64q-164 30 -175 87q-1 5 -1 9q0 91 117 172q93 64 237 102q99 -285 303 -384q123 -59 288 -59h1q63 0 100 52q22 32 22 70q0 63 -52 100
q-32 22 -70 22h-1q-171 0 -252 74q-69 64 -117 227q-10 33 -20 73q-14 55 -68 79q-34 15 -70 10q-299 -50 -477 -188q-185 -145 -186 -357q0 -203 224 -290q69 -27 151 -39q117 -19 142 -51q11 -14 11 -30q0 -44 -72 -84q-108 -60 -287 -60q-221 0 -305 72q-81 73 -82 246
q0 156 61 370q17 61 -25 112q-25 29 -60 39q-61 17 -112 -25q-29 -25 -39 -60q-71 -259 -71 -436q0 -320 231 -464q159 -99 402 -99z" />
    <glyph glyph-name="uniFC6E" unicode="&#xfc6e;" horiz-adv-x="1712" arabic-form="final" 
d="M1408 -490q0 59 51 98q36 27 80 27q69 0 108 -70q18 -31 18 -55q0 -46 -30 -88q-37 -49 -99 -50q-86 0 -117 85q-11 29 -11 53zM690 -714q237 0 398 79q206 102 207 310q0 180 -143 257q-75 39 -210 64q-164 30 -175 87q-1 5 -1 9q0 91 117 172q93 64 237 102
q99 -285 303 -384q123 -59 288 -59h1q63 0 100 52q22 32 22 70q0 63 -52 100q-32 22 -70 22h-1q-171 0 -252 74q-69 64 -117 227q-10 33 -20 73q-14 55 -68 79q-34 15 -70 10q-299 -50 -477 -188q-185 -145 -186 -357q0 -203 224 -290q69 -27 151 -39q117 -19 142 -51
q11 -14 11 -30q0 -44 -72 -84q-108 -60 -287 -60q-221 0 -305 72q-81 73 -82 246q0 156 61 370q17 61 -25 112q-25 29 -60 39q-61 17 -112 -25q-29 -25 -39 -60q-71 -259 -71 -436q0 -320 231 -464q159 -99 402 -99z" />
    <glyph glyph-name="uniFC6F" unicode="&#xfc6f;" horiz-adv-x="1712" arabic-form="final" 
d="M1408 -490q0 59 51 98q36 27 80 27q69 0 108 -70q18 -31 18 -55q0 -46 -30 -88q-37 -49 -99 -50q-86 0 -117 85q-11 29 -11 53zM380 -1029q-33 45 -11 97q12 25 32 40q140 103 320 103q125 0 198 -57q62 -50 60 -130q0 -63 -50 -93q-24 -15 -51 -15q-59 0 -84 45
q-5 11 -8 23q-2 31 -65 31q-115 -1 -204 -65q-48 -34 -101 -9q-22 12 -36 30zM690 -714q237 0 398 79q206 102 207 310q0 180 -143 257q-75 39 -210 64q-164 30 -175 87q-1 5 -1 9q0 91 117 172q93 64 237 102q99 -285 303 -384q123 -59 288 -59h1q63 0 100 52q22 32 22 70
q0 63 -52 100q-32 22 -70 22h-1q-171 0 -252 74q-69 64 -117 227q-10 33 -20 73q-14 55 -68 79q-34 15 -70 10q-299 -50 -477 -188q-185 -145 -186 -357q0 -203 224 -290q69 -27 151 -39q117 -19 142 -51q11 -14 11 -30q0 -44 -72 -84q-108 -60 -287 -60q-221 0 -305 72
q-81 73 -82 246q0 156 61 370q17 61 -25 112q-25 29 -60 39q-61 17 -112 -25q-29 -25 -39 -60q-71 -259 -71 -436q0 -320 231 -464q159 -99 402 -99z" />
    <glyph glyph-name="uniFC74" unicode="&#xfc74;" horiz-adv-x="1712" arabic-form="final" 
d="M822 933q-33 45 -11 97q12 25 32 40q140 103 320 103q125 0 198 -57q62 -50 60 -130q0 -63 -50 -93q-24 -15 -51 -15q-59 0 -84 45q-5 11 -8 23q-2 31 -65 31q-115 -1 -204 -65q-48 -34 -101 -9q-22 12 -36 30zM690 -714q237 0 398 79q206 102 207 310q0 180 -143 257
q-75 39 -210 64q-164 30 -175 87q-1 5 -1 9q0 91 117 172q93 64 237 102q99 -285 303 -384q123 -59 288 -59h1q63 0 100 52q22 32 22 70q0 63 -52 100q-32 22 -70 22h-1q-171 0 -252 74q-69 64 -117 227q-10 33 -20 73q-14 55 -68 79q-34 15 -70 10q-299 -50 -477 -188
q-185 -145 -186 -357q0 -203 224 -290q69 -27 151 -39q117 -19 142 -51q11 -14 11 -30q0 -44 -72 -84q-108 -60 -287 -60q-221 0 -305 72q-81 73 -82 246q0 156 61 370q17 61 -25 112q-25 29 -60 39q-61 17 -112 -25q-29 -25 -39 -60q-71 -259 -71 -436q0 -320 231 -464
q159 -99 402 -99z" />
    <glyph glyph-name="uniFC75" unicode="&#xfc75;" horiz-adv-x="1712" arabic-form="final" 
d="M822 933q-33 45 -11 97q12 25 32 40q140 103 320 103q125 0 198 -57q62 -50 60 -130q0 -63 -50 -93q-24 -15 -51 -15q-59 0 -84 45q-5 11 -8 23q-2 31 -65 31q-115 -1 -204 -65q-48 -34 -101 -9q-22 12 -36 30zM380 -1029q-33 45 -11 97q12 25 32 40q140 103 320 103
q125 0 198 -57q62 -50 60 -130q0 -63 -50 -93q-24 -15 -51 -15q-59 0 -84 45q-5 11 -8 23q-2 31 -65 31q-115 -1 -204 -65q-48 -34 -101 -9q-22 12 -36 30zM690 -714q237 0 398 79q206 102 207 310q0 180 -143 257q-75 39 -210 64q-164 30 -175 87q-1 5 -1 9q0 91 117 172
q93 64 237 102q99 -285 303 -384q123 -59 288 -59h1q63 0 100 52q22 32 22 70q0 63 -52 100q-32 22 -70 22h-1q-171 0 -252 74q-69 64 -117 227q-10 33 -20 73q-14 55 -68 79q-34 15 -70 10q-299 -50 -477 -188q-185 -145 -186 -357q0 -203 224 -290q69 -27 151 -39
q117 -19 142 -51q11 -14 11 -30q0 -44 -72 -84q-108 -60 -287 -60q-221 0 -305 72q-81 73 -82 246q0 156 61 370q17 61 -25 112q-25 29 -60 39q-61 17 -112 -25q-29 -25 -39 -60q-71 -259 -71 -436q0 -320 231 -464q159 -99 402 -99z" />
    <glyph glyph-name="uniFC7A" unicode="&#xfc7a;" horiz-adv-x="1712" arabic-form="final" 
d="M1302 966q-45 30 -44 84q1 29 16 52q12 21 12 50q0 62 -65 75q-15 3 -32 3q-49 0 -76 -40q-12 -18 -12 -34q0 -44 32 -80q14 -15 47 -46q40 -37 30 -91q-5 -27 -23 -47q-36 -39 -91 -30q-28 5 -48 24q-83 74 -115 141q-28 61 -28 129q0 119 93 199q84 71 191 71
q122 0 208 -78q85 -78 85 -196q-1 -94 -44 -158q-30 -45 -84 -44q-29 0 -52 16zM690 -714q237 0 398 79q206 102 207 310q0 180 -143 257q-75 39 -210 64q-164 30 -175 87q-1 5 -1 9q0 91 117 172q93 64 237 102q99 -285 303 -384q123 -59 288 -59h1q63 0 100 52
q22 32 22 70q0 63 -52 100q-32 22 -70 22h-1q-171 0 -252 74q-69 64 -117 227q-10 33 -20 73q-14 55 -68 79q-34 15 -70 10q-299 -50 -477 -188q-185 -145 -186 -357q0 -203 224 -290q69 -27 151 -39q117 -19 142 -51q11 -14 11 -30q0 -44 -72 -84q-108 -60 -287 -60
q-221 0 -305 72q-81 73 -82 246q0 156 61 370q17 61 -25 112q-25 29 -60 39q-61 17 -112 -25q-29 -25 -39 -60q-71 -259 -71 -436q0 -320 231 -464q159 -99 402 -99z" />
    <glyph glyph-name="uniFC7B" unicode="&#xfc7b;" horiz-adv-x="1712" arabic-form="final" 
d="M1302 966q-45 30 -44 84q1 29 16 52q12 21 12 50q0 62 -65 75q-15 3 -32 3q-49 0 -76 -40q-12 -18 -12 -34q0 -44 32 -80q14 -15 47 -46q40 -37 30 -91q-5 -27 -23 -47q-36 -39 -91 -30q-28 5 -48 24q-83 74 -115 141q-28 61 -28 129q0 119 93 199q84 71 191 71
q122 0 208 -78q85 -78 85 -196q-1 -94 -44 -158q-30 -45 -84 -44q-29 0 -52 16zM380 -1029q-33 45 -11 97q12 25 32 40q140 103 320 103q125 0 198 -57q62 -50 60 -130q0 -63 -50 -93q-24 -15 -51 -15q-59 0 -84 45q-5 11 -8 23q-2 31 -65 31q-115 -1 -204 -65
q-48 -34 -101 -9q-22 12 -36 30zM690 -714q237 0 398 79q206 102 207 310q0 180 -143 257q-75 39 -210 64q-164 30 -175 87q-1 5 -1 9q0 91 117 172q93 64 237 102q99 -285 303 -384q123 -59 288 -59h1q63 0 100 52q22 32 22 70q0 63 -52 100q-32 22 -70 22h-1
q-171 0 -252 74q-69 64 -117 227q-10 33 -20 73q-14 55 -68 79q-34 15 -70 10q-299 -50 -477 -188q-185 -145 -186 -357q0 -203 224 -290q69 -27 151 -39q117 -19 142 -51q11 -14 11 -30q0 -44 -72 -84q-108 -60 -287 -60q-221 0 -305 72q-81 73 -82 246q0 156 61 370
q17 61 -25 112q-25 29 -60 39q-61 17 -112 -25q-29 -25 -39 -60q-71 -259 -71 -436q0 -320 231 -464q159 -99 402 -99z" />
    <glyph glyph-name="uniFC8E" unicode="&#xfc8e;" horiz-adv-x="1712" arabic-form="final" 
d="M994 1031q0 59 51 98q36 27 80 27q69 0 108 -70q18 -31 18 -55q0 -46 -30 -88q-37 -49 -99 -50q-86 0 -117 85q-11 29 -11 53zM690 -714q237 0 398 79q206 102 207 310q0 180 -143 257q-75 39 -210 64q-164 30 -175 87q-1 5 -1 9q0 91 117 172q93 64 237 102
q99 -285 303 -384q123 -59 288 -59h1q63 0 100 52q22 32 22 70q0 63 -52 100q-32 22 -70 22h-1q-171 0 -252 74q-69 64 -117 227q-10 33 -20 73q-14 55 -68 79q-34 15 -70 10q-299 -50 -477 -188q-185 -145 -186 -357q0 -203 224 -290q69 -27 151 -39q117 -19 142 -51
q11 -14 11 -30q0 -44 -72 -84q-108 -60 -287 -60q-221 0 -305 72q-81 73 -82 246q0 156 61 370q17 61 -25 112q-25 29 -60 39q-61 17 -112 -25q-29 -25 -39 -60q-71 -259 -71 -436q0 -320 231 -464q159 -99 402 -99z" />
    <glyph glyph-name="uniFC8F" unicode="&#xfc8f;" horiz-adv-x="1712" arabic-form="final" 
d="M994 1031q0 59 51 98q36 27 80 27q69 0 108 -70q18 -31 18 -55q0 -46 -30 -88q-37 -49 -99 -50q-86 0 -117 85q-11 29 -11 53zM380 -1029q-33 45 -11 97q12 25 32 40q140 103 320 103q125 0 198 -57q62 -50 60 -130q0 -63 -50 -93q-24 -15 -51 -15q-59 0 -84 45
q-5 11 -8 23q-2 31 -65 31q-115 -1 -204 -65q-48 -34 -101 -9q-22 12 -36 30zM690 -714q237 0 398 79q206 102 207 310q0 180 -143 257q-75 39 -210 64q-164 30 -175 87q-1 5 -1 9q0 91 117 172q93 64 237 102q99 -285 303 -384q123 -59 288 -59h1q63 0 100 52q22 32 22 70
q0 63 -52 100q-32 22 -70 22h-1q-171 0 -252 74q-69 64 -117 227q-10 33 -20 73q-14 55 -68 79q-34 15 -70 10q-299 -50 -477 -188q-185 -145 -186 -357q0 -203 224 -290q69 -27 151 -39q117 -19 142 -51q11 -14 11 -30q0 -44 -72 -84q-108 -60 -287 -60q-221 0 -305 72
q-81 73 -82 246q0 156 61 370q17 61 -25 112q-25 29 -60 39q-61 17 -112 -25q-29 -25 -39 -60q-71 -259 -71 -436q0 -320 231 -464q159 -99 402 -99z" />
    <glyph glyph-name="uniFC95" unicode="&#xfc95;" horiz-adv-x="2243" arabic-form="final" 
d="M690 -714q237 0 398 79q206 102 207 310q0 180 -143 257q-75 39 -210 64q-164 30 -175 87q-1 5 -1 9q0 91 117 172q93 64 237 102q100 -289 310 -387q121 -56 282 -56h531q63 0 100 52q22 32 22 70q0 63 -52 100q-32 22 -70 22h-531q-170 0 -250 73q-69 61 -118 221
q-10 35 -22 80q-14 55 -68 79q-34 15 -70 10q-299 -50 -477 -188q-185 -145 -186 -357q0 -203 224 -290q69 -27 151 -39q117 -19 142 -51q11 -14 11 -30q0 -44 -72 -84q-108 -60 -287 -60q-221 0 -305 72q-81 73 -82 246q0 156 61 370q17 61 -25 112q-25 29 -60 39
q-61 17 -112 -25q-29 -25 -39 -60q-71 -259 -71 -436q0 -320 231 -464q159 -99 402 -99zM1320 -552q-33 45 -11 97q12 25 32 40q140 103 320 103q125 0 198 -57q62 -50 60 -130q0 -63 -50 -93q-24 -15 -51 -15q-59 0 -84 45q-5 11 -8 23q-2 31 -65 31q-115 -1 -204 -65
q-48 -34 -101 -9q-22 12 -36 30z" />
    <glyph glyph-name="uniFC96" unicode="&#xfc96;" horiz-adv-x="2243" arabic-form="final" 
d="M690 -714q237 0 398 79q206 102 207 310q0 180 -143 257q-75 39 -210 64q-164 30 -175 87q-1 5 -1 9q0 91 117 172q93 64 237 102q100 -289 310 -387q121 -56 282 -56h531q63 0 100 52q22 32 22 70q0 63 -52 100q-32 22 -70 22h-531q-170 0 -250 73q-69 61 -118 221
q-10 35 -22 80q-14 55 -68 79q-34 15 -70 10q-299 -50 -477 -188q-185 -145 -186 -357q0 -203 224 -290q69 -27 151 -39q117 -19 142 -51q11 -14 11 -30q0 -44 -72 -84q-108 -60 -287 -60q-221 0 -305 72q-81 73 -82 246q0 156 61 370q17 61 -25 112q-25 29 -60 39
q-61 17 -112 -25q-29 -25 -39 -60q-71 -259 -71 -436q0 -320 231 -464q159 -99 402 -99zM1380 -552q-33 45 -11 97q12 25 32 40q140 103 320 103q125 0 198 -57q62 -50 60 -130q0 -63 -50 -93q-24 -15 -51 -15q-59 0 -84 45q-5 11 -8 23q-2 31 -65 31q-115 -1 -204 -65
q-48 -34 -101 -9q-22 12 -36 30zM380 -1029q-33 45 -11 97q12 25 32 40q140 103 320 103q125 0 198 -57q62 -50 60 -130q0 -63 -50 -93q-24 -15 -51 -15q-59 0 -84 45q-5 11 -8 23q-2 31 -65 31q-115 -1 -204 -65q-48 -34 -101 -9q-22 12 -36 30z" />
    <glyph glyph-name="uniFCFB" unicode="&#xfcfb;" horiz-adv-x="2443" arabic-form="isolated" 
d="M690 -689q-324 0 -491 170q-142 146 -142 393q0 178 71 436q16 56 71 80q40 16 80 5q56 -16 80 -71q16 -40 5 -80q-61 -215 -61 -370q0 -175 81 -245q85 -73 306 -73q196 0 302 69q56 38 57 75q0 45 -82 66q-27 7 -71 14q-215 32 -311 147q-64 77 -64 183q0 265 282 420
q161 89 381 126q62 10 108 -37q22 -24 30 -53q79 -298 141 -376q36 -43 79 -43q63 0 96 85q26 71 53 273q7 59 62 89q37 20 77 15q62 -9 91 -67q16 -33 13 -71q-61 -567 -392 -568q-215 0 -335 244q-44 89 -89 243q-231 -60 -315 -173q-37 -49 -37 -100q0 -57 139 -88
q18 -3 37 -7q190 -35 269 -106q84 -77 84 -216q0 -236 -262 -333q-150 -56 -343 -56zM1832 609q64 -10 91 -69q14 -33 11 -69q-8 -68 -8 -145q1 -176 118 -177q92 0 111 77q6 25 6 60q0 105 -53 285l-4 14q-18 62 25 112q25 28 59 39q62 18 112 -24q29 -24 40 -59
q57 -196 64 -321q1 -23 1 -46q0 -174 -100 -280q-98 -101 -259 -101q-206 0 -303 186q-62 120 -62 277q0 77 11 140q9 59 64 88q37 19 76 13z" />
    <glyph glyph-name="uniFCFC" unicode="&#xfcfc;" horiz-adv-x="2443" arabic-form="isolated" 
d="M364 -1085q-33 45 -11 97q12 25 32 40q140 103 320 103q125 0 198 -57q62 -50 60 -130q0 -63 -50 -93q-24 -15 -51 -15q-59 0 -84 45q-5 11 -8 23q-2 31 -65 31q-115 -1 -204 -65q-48 -34 -101 -9q-22 12 -36 30zM690 -689q-324 0 -491 170q-142 146 -142 393
q0 178 71 436q16 56 71 80q40 16 80 5q56 -16 80 -71q16 -40 5 -80q-61 -215 -61 -370q0 -175 81 -245q85 -73 306 -73q196 0 302 69q56 38 57 75q0 45 -82 66q-27 7 -71 14q-215 32 -311 147q-64 77 -64 183q0 265 282 420q161 89 381 126q62 10 108 -37q22 -24 30 -53
q79 -298 141 -376q36 -43 79 -43q63 0 96 85q26 71 53 273q7 59 62 89q37 20 77 15q62 -9 91 -67q16 -33 13 -71q-61 -567 -392 -568q-215 0 -335 244q-44 89 -89 243q-231 -60 -315 -173q-37 -49 -37 -100q0 -57 139 -88q18 -3 37 -7q190 -35 269 -106q84 -77 84 -216
q0 -236 -262 -333q-150 -56 -343 -56zM1832 609q64 -10 91 -69q14 -33 11 -69q-8 -68 -8 -145q1 -176 118 -177q92 0 111 77q6 25 6 60q0 105 -53 285l-4 14q-18 62 25 112q25 28 59 39q62 18 112 -24q29 -24 40 -59q57 -196 64 -321q1 -23 1 -46q0 -174 -100 -280
q-98 -101 -259 -101q-206 0 -303 186q-62 120 -62 277q0 77 11 140q9 59 64 88q37 19 76 13z" />
    <glyph glyph-name="uniFCFD" unicode="&#xfcfd;" horiz-adv-x="2443" arabic-form="isolated" 
d="M1899 855q-45 30 -44 84q1 29 16 52q12 21 12 50q0 62 -65 75q-15 3 -32 3q-49 0 -76 -40q-12 -18 -12 -34q0 -44 32 -80q14 -15 47 -46q40 -37 30 -91q-5 -27 -23 -47q-36 -39 -91 -30q-28 5 -48 24q-83 74 -115 141q-28 61 -28 129q0 119 93 199q84 71 191 71
q122 0 208 -78q85 -78 85 -196q-1 -94 -44 -158q-30 -45 -84 -44q-29 0 -52 16zM690 -689q-324 0 -491 170q-142 146 -142 393q0 178 71 436q16 56 71 80q40 16 80 5q56 -16 80 -71q16 -40 5 -80q-61 -215 -61 -370q0 -175 81 -245q85 -73 306 -73q196 0 302 69q56 38 57 75
q0 45 -82 66q-27 7 -71 14q-215 32 -311 147q-64 77 -64 183q0 265 282 420q161 89 381 126q62 10 108 -37q22 -24 30 -53q79 -298 141 -376q36 -43 79 -43q63 0 96 85q26 71 53 273q7 59 62 89q37 20 77 15q62 -9 91 -67q16 -33 13 -71q-61 -567 -392 -568q-215 0 -335 244
q-44 89 -89 243q-231 -60 -315 -173q-37 -49 -37 -100q0 -57 139 -88q18 -3 37 -7q190 -35 269 -106q84 -77 84 -216q0 -236 -262 -333q-150 -56 -343 -56zM1832 609q64 -10 91 -69q14 -33 11 -69q-8 -68 -8 -145q1 -176 118 -177q92 0 111 77q6 25 6 60q0 105 -53 285
l-4 14q-18 62 25 112q25 28 59 39q62 18 112 -24q29 -24 40 -59q57 -196 64 -321q1 -23 1 -46q0 -174 -100 -280q-98 -101 -259 -101q-206 0 -303 186q-62 120 -62 277q0 77 11 140q9 59 64 88q37 19 76 13z" />
    <glyph glyph-name="uniFCFE" unicode="&#xfcfe;" horiz-adv-x="2443" arabic-form="isolated" 
d="M1899 855q-45 30 -44 84q1 29 16 52q12 21 12 50q0 62 -65 75q-15 3 -32 3q-49 0 -76 -40q-12 -18 -12 -34q0 -44 32 -80q14 -15 47 -46q40 -37 30 -91q-5 -27 -23 -47q-36 -39 -91 -30q-28 5 -48 24q-83 74 -115 141q-28 61 -28 129q0 119 93 199q84 71 191 71
q122 0 208 -78q85 -78 85 -196q-1 -94 -44 -158q-30 -45 -84 -44q-29 0 -52 16zM690 -689q-324 0 -491 170q-142 146 -142 393q0 178 71 436q16 56 71 80q40 16 80 5q56 -16 80 -71q16 -40 5 -80q-61 -215 -61 -370q0 -175 81 -245q85 -73 306 -73q196 0 302 69q56 38 57 75
q0 45 -82 66q-27 7 -71 14q-215 32 -311 147q-64 77 -64 183q0 265 282 420q161 89 381 126q62 10 108 -37q22 -24 30 -53q79 -298 141 -376q36 -43 79 -43q63 0 96 85q26 71 53 273q7 59 62 89q37 20 77 15q62 -9 91 -67q16 -33 13 -71q-61 -567 -392 -568q-215 0 -335 244
q-44 89 -89 243q-231 -60 -315 -173q-37 -49 -37 -100q0 -57 139 -88q18 -3 37 -7q190 -35 269 -106q84 -77 84 -216q0 -236 -262 -333q-150 -56 -343 -56zM1832 609q64 -10 91 -69q14 -33 11 -69q-8 -68 -8 -145q1 -176 118 -177q92 0 111 77q6 25 6 60q0 105 -53 285
l-4 14q-18 62 25 112q25 28 59 39q62 18 112 -24q29 -24 40 -59q57 -196 64 -321q1 -23 1 -46q0 -174 -100 -280q-98 -101 -259 -101q-206 0 -303 186q-62 120 -62 277q0 77 11 140q9 59 64 88q37 19 76 13zM374 -1085q-33 45 -11 97q12 25 32 40q140 103 320 103
q125 0 198 -57q62 -50 60 -130q0 -63 -50 -93q-24 -15 -51 -15q-59 0 -84 45q-5 11 -8 23q-2 31 -65 31q-115 -1 -204 -65q-48 -34 -101 -9q-22 12 -36 30z" />
    <glyph glyph-name="uniFD05" unicode="&#xfd05;" horiz-adv-x="2538" arabic-form="isolated" 
d="M690 -689q-324 0 -491 170q-142 146 -142 393q0 178 71 436q16 56 71 80q40 16 80 5q56 -16 80 -71q16 -40 5 -80q-61 -215 -61 -370q0 -174 80 -244q88 -73 307 -74q196 0 302 69q56 38 57 75q0 45 -82 66q-27 7 -71 14q-215 32 -311 147q-64 77 -64 183q0 265 282 420
q161 89 381 126q62 10 108 -37q22 -24 30 -53q61 -233 231 -342q121 -77 279 -77q248 0 358 111q65 66 65 156q0 104 -82 139q-34 14 -75 14q-125 0 -286 -189q-136 -160 -223 -360q-14 -31 -24 -59q-20 -54 -77 -73q-41 -13 -81 1q-55 20 -73 78q-13 41 1 80
q94 255 244 452q240 315 519 316q164 0 279 -107t123 -269q1 -12 1 -23q0 -252 -215 -391q-170 -110 -416 -119q-19 -1 -38 -1q-300 0 -510 196q-129 121 -198 293q-226 -59 -316 -169q-42 -53 -42 -106q0 -57 139 -88q18 -3 37 -7q190 -35 269 -106q84 -77 84 -216
q0 -236 -262 -333q-150 -56 -343 -56z" />
    <glyph glyph-name="uniFD06" unicode="&#xfd06;" horiz-adv-x="2538" arabic-form="isolated" 
d="M380 -1085q-33 45 -11 97q12 25 32 40q140 103 320 103q125 0 198 -57q62 -50 60 -130q0 -63 -50 -93q-24 -15 -51 -15q-59 0 -84 45q-5 11 -8 23q-2 31 -65 31q-115 -1 -204 -65q-48 -34 -101 -9q-22 12 -36 30zM690 -689q-324 0 -491 170q-142 146 -142 393
q0 178 71 436q16 56 71 80q40 16 80 5q56 -16 80 -71q16 -40 5 -80q-61 -215 -61 -370q0 -174 80 -244q88 -73 307 -74q196 0 302 69q56 38 57 75q0 45 -82 66q-27 7 -71 14q-215 32 -311 147q-64 77 -64 183q0 265 282 420q161 89 381 126q62 10 108 -37q22 -24 30 -53
q61 -233 231 -342q121 -77 279 -77q248 0 358 111q65 66 65 156q0 104 -82 139q-34 14 -75 14q-125 0 -286 -189q-136 -160 -223 -360q-14 -31 -24 -59q-20 -54 -77 -73q-41 -13 -81 1q-55 20 -73 78q-13 41 1 80q94 255 244 452q240 315 519 316q164 0 279 -107t123 -269
q1 -12 1 -23q0 -252 -215 -391q-170 -110 -416 -119q-19 -1 -38 -1q-300 0 -510 196q-129 121 -198 293q-226 -59 -316 -169q-42 -53 -42 -106q0 -57 139 -88q18 -3 37 -7q190 -35 269 -106q84 -77 84 -216q0 -236 -262 -333q-150 -56 -343 -56z" />
    <glyph glyph-name="uniFD07" unicode="&#xfd07;" horiz-adv-x="2538" arabic-form="isolated" 
d="M1962 1139q0 59 51 98q36 27 80 27q69 0 108 -70q18 -31 18 -55q0 -46 -30 -88q-37 -49 -99 -50q-86 0 -117 85q-11 29 -11 53zM690 -689q-324 0 -491 170q-142 146 -142 393q0 178 71 436q16 56 71 80q40 16 80 5q56 -16 80 -71q16 -40 5 -80q-61 -215 -61 -370
q0 -174 80 -244q88 -73 307 -74q196 0 302 69q56 38 57 75q0 45 -82 66q-27 7 -71 14q-215 32 -311 147q-64 77 -64 183q0 265 282 420q161 89 381 126q62 10 108 -37q22 -24 30 -53q61 -233 231 -342q121 -77 279 -77q248 0 358 111q65 66 65 156q0 104 -82 139
q-34 14 -75 14q-125 0 -286 -189q-136 -160 -223 -360q-14 -31 -24 -59q-20 -54 -77 -73q-41 -13 -81 1q-55 20 -73 78q-13 41 1 80q94 255 244 452q240 315 519 316q164 0 279 -107t123 -269q1 -12 1 -23q0 -252 -215 -391q-170 -110 -416 -119q-19 -1 -38 -1
q-300 0 -510 196q-129 121 -198 293q-226 -59 -316 -169q-42 -53 -42 -106q0 -57 139 -88q18 -3 37 -7q190 -35 269 -106q84 -77 84 -216q0 -236 -262 -333q-150 -56 -343 -56z" />
    <glyph glyph-name="uniFD08" unicode="&#xfd08;" horiz-adv-x="2538" arabic-form="isolated" 
d="M1962 1139q0 59 51 98q36 27 80 27q69 0 108 -70q18 -31 18 -55q0 -46 -30 -88q-37 -49 -99 -50q-86 0 -117 85q-11 29 -11 53zM380 -1085q-33 45 -11 97q12 25 32 40q140 103 320 103q125 0 198 -57q62 -50 60 -130q0 -63 -50 -93q-24 -15 -51 -15q-59 0 -84 45
q-5 11 -8 23q-2 31 -65 31q-115 -1 -204 -65q-48 -34 -101 -9q-22 12 -36 30zM690 -689q-324 0 -491 170q-142 146 -142 393q0 178 71 436q16 56 71 80q40 16 80 5q56 -16 80 -71q16 -40 5 -80q-61 -215 -61 -370q0 -174 80 -244q88 -73 307 -74q196 0 302 69q56 38 57 75
q0 45 -82 66q-27 7 -71 14q-215 32 -311 147q-64 77 -64 183q0 265 282 420q161 89 381 126q62 10 108 -37q22 -24 30 -53q61 -233 231 -342q121 -77 279 -77q248 0 358 111q65 66 65 156q0 104 -82 139q-34 14 -75 14q-125 0 -286 -189q-136 -160 -223 -360
q-14 -31 -24 -59q-20 -54 -77 -73q-41 -13 -81 1q-55 20 -73 78q-13 41 1 80q94 255 244 452q240 315 519 316q164 0 279 -107t123 -269q1 -12 1 -23q0 -252 -215 -391q-170 -110 -416 -119q-19 -1 -38 -1q-300 0 -510 196q-129 121 -198 293q-226 -59 -316 -169
q-42 -53 -42 -106q0 -57 139 -88q18 -3 37 -7q190 -35 269 -106q84 -77 84 -216q0 -236 -262 -333q-150 -56 -343 -56z" />
    <glyph glyph-name="uniFD17" unicode="&#xfd17;" horiz-adv-x="2681" arabic-form="final" 
d="M690 -689q-324 0 -491 170q-142 146 -142 393q0 178 71 436q16 56 71 80q40 16 80 5q56 -16 80 -71q16 -40 5 -80q-61 -215 -61 -370q0 -175 81 -245q85 -73 306 -73q196 0 302 69q56 38 57 75q0 45 -82 66q-27 7 -71 14q-215 32 -311 147q-64 77 -64 183q0 265 282 420
q161 89 381 126q62 10 108 -37q22 -24 30 -53q79 -299 145 -376q37 -43 82 -43q137 2 187 359q8 60 63 90q35 19 75 14q60 -8 90 -63q19 -36 14 -75q-36 -251 -113 -380q-113 -188 -323 -189q-215 0 -335 244q-44 89 -89 243q-231 -60 -315 -173q-37 -49 -37 -100
q0 -57 139 -88q18 -3 37 -7q190 -35 269 -106q84 -77 84 -216q0 -236 -262 -333q-150 -56 -343 -56zM1865 611q63 -5 96 -58q21 -34 18 -72q-2 -29 -2 -83q0 -199 78 -236q22 -11 52 -11q83 0 110 95q18 61 18 165q0 59 -9 145q-6 62 43 105q30 25 67 29q62 6 105 -43
q25 -30 29 -67q9 -94 9 -169q0 -253 -106 -387q-93 -116 -258 -117q-237 0 -332 219q-52 119 -52 272q0 36 4 99q5 63 58 96q34 21 72 18zM2334 689q62 8 105 -41q25 -29 30 -66q33 -282 64 -352q22 -51 67 -60q18 -3 80 -3h1q63 0 100 -52q23 -33 23 -71q0 -63 -52 -100
q-33 -23 -71 -23h-1q-209 0 -310 135q-90 121 -131 406q-6 43 -12 92q-8 62 41 105q29 25 66 30z" />
    <glyph glyph-name="uniFD18" unicode="&#xfd18;" horiz-adv-x="2681" arabic-form="final" 
d="M380 -1085q-33 45 -11 97q12 25 32 40q140 103 320 103q125 0 198 -57q62 -50 60 -130q0 -63 -50 -93q-24 -15 -51 -15q-59 0 -84 45q-5 11 -8 23q-2 31 -65 31q-115 -1 -204 -65q-48 -34 -101 -9q-22 12 -36 30zM690 -689q-324 0 -491 170q-142 146 -142 393
q0 178 71 436q16 56 71 80q40 16 80 5q56 -16 80 -71q16 -40 5 -80q-61 -215 -61 -370q0 -175 81 -245q85 -73 306 -73q196 0 302 69q56 38 57 75q0 45 -82 66q-27 7 -71 14q-215 32 -311 147q-64 77 -64 183q0 265 282 420q161 89 381 126q62 10 108 -37q22 -24 30 -53
q79 -299 145 -376q37 -43 82 -43q137 2 187 359q8 60 63 90q35 19 75 14q60 -8 90 -63q19 -36 14 -75q-36 -251 -113 -380q-113 -188 -323 -189q-215 0 -335 244q-44 89 -89 243q-231 -60 -315 -173q-37 -49 -37 -100q0 -57 139 -88q18 -3 37 -7q190 -35 269 -106
q84 -77 84 -216q0 -236 -262 -333q-150 -56 -343 -56zM1865 611q63 -5 96 -58q21 -34 18 -72q-2 -29 -2 -83q0 -199 78 -236q22 -11 52 -11q83 0 110 95q18 61 18 165q0 59 -9 145q-6 62 43 105q30 25 67 29q62 6 105 -43q25 -30 29 -67q9 -94 9 -169q0 -253 -106 -387
q-93 -116 -258 -117q-237 0 -332 219q-52 119 -52 272q0 36 4 99q5 63 58 96q34 21 72 18zM2334 689q62 8 105 -41q25 -29 30 -66q33 -282 64 -352q22 -51 67 -60q18 -3 80 -3h1q63 0 100 -52q23 -33 23 -71q0 -63 -52 -100q-33 -23 -71 -23h-1q-209 0 -310 135
q-90 121 -131 406q-6 43 -12 92q-8 62 41 105q29 25 66 30z" />
    <glyph glyph-name="uniFD19" unicode="&#xfd19;" horiz-adv-x="2681" arabic-form="final" 
d="M1905 855q-45 30 -44 84q1 29 16 52q12 21 12 50q0 62 -65 75q-15 3 -32 3q-49 0 -76 -40q-12 -18 -12 -34q0 -44 32 -80q14 -15 47 -46q40 -37 30 -91q-5 -27 -23 -47q-36 -39 -91 -30q-28 5 -48 24q-83 74 -115 141q-28 61 -28 129q0 119 93 199q84 71 191 71
q122 0 208 -78q85 -78 85 -196q-1 -94 -44 -158q-30 -45 -84 -44q-29 0 -52 16zM690 -689q-324 0 -491 170q-142 146 -142 393q0 178 71 436q16 56 71 80q40 16 80 5q56 -16 80 -71q16 -40 5 -80q-61 -215 -61 -370q0 -175 81 -245q85 -73 306 -73q196 0 302 69q56 38 57 75
q0 45 -82 66q-27 7 -71 14q-215 32 -311 147q-64 77 -64 183q0 265 282 420q161 89 381 126q62 10 108 -37q22 -24 30 -53q79 -299 145 -376q37 -43 82 -43q137 2 187 359q8 60 63 90q35 19 75 14q60 -8 90 -63q19 -36 14 -75q-36 -251 -113 -380q-113 -188 -323 -189
q-215 0 -335 244q-44 89 -89 243q-231 -60 -315 -173q-37 -49 -37 -100q0 -57 139 -88q18 -3 37 -7q190 -35 269 -106q84 -77 84 -216q0 -236 -262 -333q-150 -56 -343 -56zM1865 611q63 -5 96 -58q21 -34 18 -72q-2 -29 -2 -83q0 -199 78 -236q22 -11 52 -11q83 0 110 95
q18 61 18 165q0 59 -9 145q-6 62 43 105q30 25 67 29q62 6 105 -43q25 -30 29 -67q9 -94 9 -169q0 -253 -106 -387q-93 -116 -258 -117q-237 0 -332 219q-52 119 -52 272q0 36 4 99q5 63 58 96q34 21 72 18zM2334 689q62 8 105 -41q25 -29 30 -66q33 -282 64 -352
q22 -51 67 -60q18 -3 80 -3h1q63 0 100 -52q23 -33 23 -71q0 -63 -52 -100q-33 -23 -71 -23h-1q-209 0 -310 135q-90 121 -131 406q-6 43 -12 92q-8 62 41 105q29 25 66 30z" />
    <glyph glyph-name="uniFD1A" unicode="&#xfd1a;" horiz-adv-x="2681" arabic-form="final" 
d="M1905 855q-45 30 -44 84q1 29 16 52q12 21 12 50q0 62 -65 75q-15 3 -32 3q-49 0 -76 -40q-12 -18 -12 -34q0 -44 32 -80q14 -15 47 -46q40 -37 30 -91q-5 -27 -23 -47q-36 -39 -91 -30q-28 5 -48 24q-83 74 -115 141q-28 61 -28 129q0 119 93 199q84 71 191 71
q122 0 208 -78q85 -78 85 -196q-1 -94 -44 -158q-30 -45 -84 -44q-29 0 -52 16zM380 -1085q-33 45 -11 97q12 25 32 40q140 103 320 103q125 0 198 -57q62 -50 60 -130q0 -63 -50 -93q-24 -15 -51 -15q-59 0 -84 45q-5 11 -8 23q-2 31 -65 31q-115 -1 -204 -65
q-48 -34 -101 -9q-22 12 -36 30zM690 -689q-324 0 -491 170q-142 146 -142 393q0 178 71 436q16 56 71 80q40 16 80 5q56 -16 80 -71q16 -40 5 -80q-61 -215 -61 -370q0 -175 81 -245q85 -73 306 -73q196 0 302 69q56 38 57 75q0 45 -82 66q-27 7 -71 14q-215 32 -311 147
q-64 77 -64 183q0 265 282 420q161 89 381 126q62 10 108 -37q22 -24 30 -53q79 -299 145 -376q37 -43 82 -43q137 2 187 359q8 60 63 90q35 19 75 14q60 -8 90 -63q19 -36 14 -75q-36 -251 -113 -380q-113 -188 -323 -189q-215 0 -335 244q-44 89 -89 243
q-231 -60 -315 -173q-37 -49 -37 -100q0 -57 139 -88q18 -3 37 -7q190 -35 269 -106q84 -77 84 -216q0 -236 -262 -333q-150 -56 -343 -56zM1865 611q63 -5 96 -58q21 -34 18 -72q-2 -29 -2 -83q0 -199 78 -236q22 -11 52 -11q83 0 110 95q18 61 18 165q0 59 -9 145
q-6 62 43 105q30 25 67 29q62 6 105 -43q25 -30 29 -67q9 -94 9 -169q0 -253 -106 -387q-93 -116 -258 -117q-237 0 -332 219q-52 119 -52 272q0 36 4 99q5 63 58 96q34 21 72 18zM2334 689q62 8 105 -41q25 -29 30 -66q33 -282 64 -352q22 -51 67 -60q18 -3 80 -3h1
q63 0 100 -52q23 -33 23 -71q0 -63 -52 -100q-33 -23 -71 -23h-1q-209 0 -310 135q-90 121 -131 406q-6 43 -12 92q-8 62 41 105q29 25 66 30z" />
    <glyph glyph-name="uniFD21" unicode="&#xfd21;" horiz-adv-x="2690" arabic-form="final" 
d="M2255 414q0 104 -82 139q-34 14 -75 14q-128 0 -296 -195q-112 -129 -174 -257q-11 -22 -17 -38q-20 -54 -77 -73q-41 -13 -81 1q-56 20 -74 78q-13 41 1 79q49 131 150 278q197 285 431 353q68 20 137 20q164 0 279 -107t123 -269q1 -12 1 -23q0 -252 -215 -391
q-170 -110 -416 -119q-19 -1 -38 -1q-300 0 -510 196q-129 121 -198 293q-238 -61 -323 -176q-35 -49 -35 -99q0 -57 139 -88q18 -3 37 -7q190 -35 269 -106q84 -77 84 -216q0 -236 -262 -333q-150 -56 -343 -56q-324 0 -491 170q-142 146 -142 393q0 178 71 436
q16 56 71 80q40 16 80 5q56 -16 80 -71q16 -40 5 -80q-61 -215 -61 -370q0 -174 80 -244q88 -73 307 -74q196 0 302 69q56 38 57 75q0 45 -82 66q-27 7 -71 14q-215 32 -311 147q-64 77 -64 183q0 265 282 420q161 89 381 126q62 10 108 -37q22 -24 30 -53q61 -233 231 -342
q121 -77 279 -77q248 0 358 111q65 66 65 156zM2298 372q60 22 113 -15q31 -23 44 -57q27 -73 59 -98q47 -35 175 -35h1q63 0 100 -52q23 -32 23 -70q0 -63 -52 -99q-33 -23 -71 -23h-1q-335 0 -451 259q-7 16 -13 32q-22 61 17 115q23 30 56 43z" />
    <glyph glyph-name="uniFD22" unicode="&#xfd22;" horiz-adv-x="2690" arabic-form="final" 
d="M380 -1085q-33 45 -11 97q12 25 32 40q140 103 320 103q125 0 198 -57q62 -50 60 -130q0 -63 -50 -93q-24 -15 -51 -15q-59 0 -84 45q-5 11 -8 23q-2 31 -65 31q-115 -1 -204 -65q-48 -34 -101 -9q-22 12 -36 30zM2255 414q0 104 -82 139q-34 14 -75 14q-128 0 -296 -195
q-112 -129 -174 -257q-11 -22 -17 -38q-20 -54 -77 -73q-41 -13 -81 1q-56 20 -74 78q-13 41 1 79q49 131 150 278q197 285 431 353q68 20 137 20q164 0 279 -107t123 -269q1 -12 1 -23q0 -252 -215 -391q-170 -110 -416 -119q-19 -1 -38 -1q-300 0 -510 196
q-129 121 -198 293q-238 -61 -323 -176q-35 -49 -35 -99q0 -57 139 -88q18 -3 37 -7q190 -35 269 -106q84 -77 84 -216q0 -236 -262 -333q-150 -56 -343 -56q-324 0 -491 170q-142 146 -142 393q0 178 71 436q16 56 71 80q40 16 80 5q56 -16 80 -71q16 -40 5 -80
q-61 -215 -61 -370q0 -174 80 -244q88 -73 307 -74q196 0 302 69q56 38 57 75q0 45 -82 66q-27 7 -71 14q-215 32 -311 147q-64 77 -64 183q0 265 282 420q161 89 381 126q62 10 108 -37q22 -24 30 -53q61 -233 231 -342q121 -77 279 -77q248 0 358 111q65 66 65 156z
M2298 372q60 22 113 -15q31 -23 44 -57q27 -73 59 -98q47 -35 175 -35h1q63 0 100 -52q23 -32 23 -70q0 -63 -52 -99q-33 -23 -71 -23h-1q-335 0 -451 259q-7 16 -13 32q-22 61 17 115q23 30 56 43z" />
    <glyph glyph-name="uniFD23" unicode="&#xfd23;" horiz-adv-x="2690" arabic-form="final" 
d="M1962 1139q0 59 51 98q36 27 80 27q69 0 108 -70q18 -31 18 -55q0 -46 -30 -88q-37 -49 -99 -50q-86 0 -117 85q-11 29 -11 53zM2255 414q0 104 -82 139q-34 14 -75 14q-128 0 -296 -195q-112 -129 -174 -257q-11 -22 -17 -38q-20 -54 -77 -73q-41 -13 -81 1
q-56 20 -74 78q-13 41 1 79q49 131 150 278q197 285 431 353q68 20 137 20q164 0 279 -107t123 -269q1 -12 1 -23q0 -252 -215 -391q-170 -110 -416 -119q-19 -1 -38 -1q-300 0 -510 196q-129 121 -198 293q-238 -61 -323 -176q-35 -49 -35 -99q0 -57 139 -88q18 -3 37 -7
q190 -35 269 -106q84 -77 84 -216q0 -236 -262 -333q-150 -56 -343 -56q-324 0 -491 170q-142 146 -142 393q0 178 71 436q16 56 71 80q40 16 80 5q56 -16 80 -71q16 -40 5 -80q-61 -215 -61 -370q0 -174 80 -244q88 -73 307 -74q196 0 302 69q56 38 57 75q0 45 -82 66
q-27 7 -71 14q-215 32 -311 147q-64 77 -64 183q0 265 282 420q161 89 381 126q62 10 108 -37q22 -24 30 -53q61 -233 231 -342q121 -77 279 -77q248 0 358 111q65 66 65 156zM2298 372q60 22 113 -15q31 -23 44 -57q27 -73 59 -98q47 -35 175 -35h1q63 0 100 -52
q23 -32 23 -70q0 -63 -52 -99q-33 -23 -71 -23h-1q-335 0 -451 259q-7 16 -13 32q-22 61 17 115q23 30 56 43z" />
    <glyph glyph-name="uniFD24" unicode="&#xfd24;" horiz-adv-x="2690" arabic-form="final" 
d="M380 -1085q-33 45 -11 97q12 25 32 40q140 103 320 103q125 0 198 -57q62 -50 60 -130q0 -63 -50 -93q-24 -15 -51 -15q-59 0 -84 45q-5 11 -8 23q-2 31 -65 31q-115 -1 -204 -65q-48 -34 -101 -9q-22 12 -36 30zM1962 1139q0 59 51 98q36 27 80 27q69 0 108 -70
q18 -31 18 -55q0 -46 -30 -88q-37 -49 -99 -50q-86 0 -117 85q-11 29 -11 53zM2255 414q0 104 -82 139q-34 14 -75 14q-128 0 -296 -195q-112 -129 -174 -257q-11 -22 -17 -38q-20 -54 -77 -73q-41 -13 -81 1q-56 20 -74 78q-13 41 1 79q49 131 150 278q197 285 431 353
q68 20 137 20q164 0 279 -107t123 -269q1 -12 1 -23q0 -252 -215 -391q-170 -110 -416 -119q-19 -1 -38 -1q-300 0 -510 196q-129 121 -198 293q-238 -61 -323 -176q-35 -49 -35 -99q0 -57 139 -88q18 -3 37 -7q190 -35 269 -106q84 -77 84 -216q0 -236 -262 -333
q-150 -56 -343 -56q-324 0 -491 170q-142 146 -142 393q0 178 71 436q16 56 71 80q40 16 80 5q56 -16 80 -71q16 -40 5 -80q-61 -215 -61 -370q0 -174 80 -244q88 -73 307 -74q196 0 302 69q56 38 57 75q0 45 -82 66q-27 7 -71 14q-215 32 -311 147q-64 77 -64 183
q0 265 282 420q161 89 381 126q62 10 108 -37q22 -24 30 -53q61 -233 231 -342q121 -77 279 -77q248 0 358 111q65 66 65 156zM2298 372q60 22 113 -15q31 -23 44 -57q27 -73 59 -98q47 -35 175 -35h1q63 0 100 -52q23 -32 23 -70q0 -63 -52 -99q-33 -23 -71 -23h-1
q-335 0 -451 259q-7 16 -13 32q-22 61 17 115q23 30 56 43z" />
    <glyph glyph-name="uniFE82" unicode="&#x622;" horiz-adv-x="531" arabic-form="final" 
d="M532 1830q26 -13 25 -44q0 -10 -4 -18q-76 -153 -193 -154q-65 1 -139 50q-46 32 -86 32q-69 0 -119 -79q-4 -5 -6 -9q-14 -26 -45 -23q-10 1 -18 5q-27 15 -22 46q1 9 5 16q59 103 154 128q26 6 51 6q68 -1 138 -48q48 -32 87 -32q63 2 111 102q13 27 43 26q10 0 18 -4z
M218 1333q62 -2 97 -55q21 -33 20 -72q-12 -315 -12 -619q0 -249 21 -322q19 -67 73 -86q37 -12 113 -12h1q63 0 100 -52q22 -32 22 -70q0 -63 -52 -100q-32 -22 -70 -22h-1q-242 0 -344 133q-92 119 -106 395q-3 62 -3 136q0 259 14 629q2 62 55 97q33 21 72 20z" />
    <glyph glyph-name="uniFE84" unicode="&#x623;" horiz-adv-x="531" arabic-form="final" 
d="M452 1851q-25 -19 -52 0q-7 5 -11 10q-37 48 -88 48q-57 0 -98 -50q-34 -42 -34 -95q0 -73 65 -89q25 -6 60 -6q80 0 183 36q31 10 51 -16q6 -8 8 -16q8 -28 -17 -47q-6 -5 -12 -7l-405 -141q-28 -10 -49 13q-6 7 -9 15q-10 28 13 49q7 6 15 9l113 39q-93 36 -106 133
q-2 14 -2 28q0 105 77 177q66 60 147 60q92 0 155 -80q3 -3 5 -6q19 -25 2 -52q-5 -7 -11 -12zM218 1333q62 -2 97 -55q21 -33 20 -72q-12 -315 -12 -619q0 -249 21 -322q19 -67 73 -86q37 -12 113 -12h1q63 0 100 -52q22 -32 22 -70q0 -63 -52 -100q-32 -22 -70 -22h-1
q-242 0 -344 133q-92 119 -106 395q-3 62 -3 136q0 259 14 629q2 62 55 97q33 21 72 20z" />
    <glyph glyph-name="uniFE86" unicode="&#x624;" horiz-adv-x="931" arabic-form="final" 
d="M570 1299q-25 -19 -52 0q-7 5 -11 10q-37 48 -88 48q-57 0 -98 -50q-34 -42 -34 -95q0 -73 65 -89q25 -6 60 -6q80 0 183 36q31 10 51 -16q6 -8 8 -16q8 -28 -17 -47q-6 -5 -12 -7l-405 -141q-28 -10 -49 13q-6 7 -9 15q-10 28 13 49q7 6 15 9l113 39q-93 36 -106 133
q-2 14 -2 28q0 105 77 177q66 60 147 60q92 0 155 -80q3 -3 5 -6q19 -25 2 -52q-5 -7 -11 -12zM460 779q218 0 320 -236q73 -168 73 -409q0 -365 -279 -562q-143 -101 -348 -149q-63 -16 -112 28q-28 25 -37 59q-16 60 23 110q27 31 64 40q328 69 413 284q32 82 32 190
q0 332 -106 389q-20 10 -40 10q-91 0 -119 -118q-11 -48 -11 -111q1 -73 29 -105q32 -32 108 -32h461q63 0 100 -52q22 -32 22 -70q0 -63 -52 -100q-32 -22 -70 -22h-461q-191 1 -288 95q-95 96 -95 269q0 191 85 328q103 163 288 164z" />
    <glyph glyph-name="uniFE88" unicode="&#x625;" horiz-adv-x="531" arabic-form="final" 
d="M440 -429q-25 -19 -52 0q-7 5 -11 10q-37 48 -88 48q-57 0 -98 -50q-34 -42 -34 -95q0 -73 65 -89q25 -6 60 -6q80 0 183 36q31 10 51 -16q6 -8 8 -16q8 -28 -17 -47q-6 -5 -12 -7l-405 -141q-28 -10 -49 13q-6 7 -9 15q-10 28 13 49q7 6 15 9l113 39q-93 36 -106 133
q-2 14 -2 28q0 105 77 177q66 60 147 60q92 0 155 -80q3 -3 5 -6q19 -25 2 -52q-5 -7 -11 -12zM218 1333q62 -2 97 -55q21 -33 20 -72q-12 -315 -12 -619q0 -249 21 -322q19 -67 73 -86q37 -12 113 -12h1q63 0 100 -52q22 -32 22 -70q0 -63 -52 -100q-32 -22 -70 -22h-1
q-242 0 -344 133q-92 119 -106 395q-3 62 -3 136q0 259 14 629q2 62 55 97q33 21 72 20z" />
    <glyph glyph-name="uniFE8A" unicode="&#x626;" horiz-adv-x="1382" arabic-form="final" 
d="M1048 720q-25 -19 -52 0q-7 5 -11 10q-37 48 -88 48q-57 0 -98 -50q-34 -42 -34 -95q0 -73 65 -89q25 -6 60 -6q80 0 183 36q31 10 51 -16q6 -8 8 -16q8 -28 -17 -47q-6 -5 -12 -7l-405 -141q-28 -10 -49 13q-6 7 -9 15q-10 28 13 49q7 6 15 9l113 39q-93 36 -106 133
q-2 14 -2 28q0 105 77 177q66 60 147 60q92 0 155 -80q3 -3 5 -6q19 -25 2 -52q-5 -7 -11 -12zM1505 45q0 -63 -52 -99q-33 -23 -71 -23h-142q82 -64 83 -157q0 -181 -175 -291q-179 -106 -445 -108q-352 0 -521 199q-125 148 -125 372q0 220 111 523q19 55 77 74
q41 12 80 -1q55 -19 74 -77q12 -41 -1 -80q-95 -261 -95 -439q0 -161 70 -233q91 -92 330 -92q246 0 342 94q33 33 34 59q0 39 -54 77q-84 59 -265 81q-61 7 -91 62q-14 24 -16 50q-5 63 45 104q34 27 77 27h607q63 0 100 -52q23 -32 23 -70z" />
    <glyph glyph-name="uniFE8B" unicode="&#x626;" horiz-adv-x="525" arabic-form="initial" 
d="M365 1329q-25 -19 -52 0q-7 5 -11 10q-37 48 -88 48q-57 0 -98 -50q-34 -42 -34 -95q0 -73 65 -89q25 -6 60 -6q80 0 183 36q31 10 51 -16q6 -8 8 -16q8 -28 -17 -47q-6 -5 -12 -7l-405 -141q-28 -10 -49 13q-6 7 -9 15q-10 28 13 49q7 6 15 9l113 39q-93 36 -106 133
q-2 14 -2 28q0 105 77 177q66 60 147 60q92 0 155 -80q3 -3 5 -6q19 -25 2 -52q-5 -7 -11 -12zM256 783q62 19 113 -22q29 -24 40 -59q66 -212 66 -353q-1 -194 -104 -303q-120 -123 -371 -123q-63 0 -100 52q-22 32 -22 70q0 63 52 100q32 22 70 22q148 0 195 49
q34 35 34 133q0 111 -54 281q-19 62 22 113q24 29 59 40z" />
    <glyph glyph-name="uniFE8C" unicode="&#x626;" horiz-adv-x="811" arabic-form="medial" 
d="M415 1096q-25 -19 -52 0q-7 5 -11 10q-37 48 -88 48q-57 0 -98 -50q-34 -42 -34 -95q0 -73 65 -89q25 -6 60 -6q80 0 183 36q31 10 51 -16q6 -8 8 -16q8 -28 -17 -47q-6 -5 -12 -7l-405 -141q-28 -10 -49 13q-6 7 -9 15q-10 28 13 49q7 6 15 9l113 39q-93 36 -106 133
q-2 14 -2 28q0 105 77 177q66 60 147 60q92 0 155 -80q3 -3 5 -6q19 -25 2 -52q-5 -7 -11 -12zM-123 45q0 63 52 99q33 23 71 23q34 0 79 4q115 10 154 44q47 40 48 158q0 57 -8 148q-5 63 44 104q34 28 77 29q63 1 100 -51q20 -27 23 -59q21 -204 29 -243q17 -81 63 -107
t182 -27h19h1q63 0 100 -52q23 -32 23 -70q0 -63 -52 -99q-33 -23 -71 -23h-1q-213 0 -323 79q-43 31 -77 76q-96 -129 -304 -150q-48 -5 -106 -5q-63 0 -100 52q-23 32 -23 70z" />
    <glyph glyph-name="uniFE8E" unicode="&#x627;" horiz-adv-x="531" arabic-form="final" 
d="M218 1333q62 -2 97 -55q21 -33 20 -72q-12 -315 -12 -619q0 -249 21 -322q19 -67 73 -86q37 -12 113 -12h1q63 0 100 -52q22 -32 22 -70q0 -63 -52 -100q-32 -22 -70 -22h-1q-242 0 -344 133q-92 119 -106 395q-3 62 -3 136q0 259 14 629q2 62 55 97q33 21 72 20z" />
    <glyph glyph-name="uniFE90" unicode="&#x628;" horiz-adv-x="1959" arabic-form="final" 
d="M635 -422q0 59 51 98q36 27 80 27q69 0 108 -70q18 -31 18 -55q0 -46 -30 -88q-37 -49 -99 -50q-86 0 -117 85q-11 29 -11 53zM2081 45q0 -63 -52 -100q-32 -22 -70 -22h-1q-346 1 -453 261q-245 -291 -794 -291q-309 0 -492 139q-181 141 -182 382q0 113 42 246
q18 57 74 78q39 14 79 2q56 -18 78 -74q15 -40 3 -80q-30 -97 -30 -172q0 -219 263 -265q73 -12 165 -12q492 0 658 249q54 83 77 194q11 57 65 85q26 12 53 13q63 1 101 -51q26 -37 23 -79q-3 -45 -3 -83q0 -172 49 -233q44 -55 162 -63q28 -2 62 -2h1q63 0 100 -52
q22 -32 22 -70z" />
    <glyph glyph-name="uniFE91" unicode="&#x628;" horiz-adv-x="532" arabic-form="initial" 
d="M256 783q62 19 113 -22q29 -24 40 -59q66 -212 66 -353q-1 -194 -104 -303q-120 -123 -371 -123q-63 0 -100 52q-22 32 -22 70q0 63 52 100q32 22 70 22q148 0 195 49q34 35 34 133q0 111 -54 281q-19 62 22 113q24 29 59 40zM-54 -392q0 59 51 98q36 27 80 27
q69 0 108 -70q18 -31 18 -55q0 -46 -30 -88q-37 -49 -99 -50q-86 0 -117 85q-11 29 -11 53z" />
    <glyph glyph-name="uniFE92" unicode="&#x628;" horiz-adv-x="811" arabic-form="medial" 
d="M-54 -392q0 59 51 98q36 27 80 27q69 0 108 -70q18 -31 18 -55q0 -46 -30 -88q-37 -49 -99 -50q-86 0 -117 85q-11 29 -11 53zM-123 45q0 63 52 99q33 23 71 23q34 0 79 4q115 10 154 44q47 40 48 158q0 57 -8 148q-5 63 44 104q34 28 77 29q63 1 100 -51q20 -27 23 -59
q21 -204 29 -243q17 -81 63 -107t182 -27h19h1q63 0 100 -52q23 -32 23 -70q0 -63 -52 -99q-33 -23 -71 -23h-1q-213 0 -323 79q-43 31 -77 76q-96 -129 -304 -150q-48 -5 -106 -5q-63 0 -100 52q-23 32 -23 70z" />
    <glyph glyph-name="uniFE94" unicode="&#x629;" horiz-adv-x="1081" arabic-form="final" 
d="M216 1334q-33 45 -11 97q12 25 32 40q140 103 320 103q125 0 198 -57q62 -50 60 -130q0 -63 -50 -93q-24 -15 -51 -15q-59 0 -84 45q-5 11 -8 23q-2 31 -65 31q-115 -1 -204 -65q-48 -34 -101 -9q-22 12 -36 30zM724 221q9 -63 -38 -107q-29 -26 -66 -31q-60 -8 -102 -8
q-177 0 -306 77q-154 93 -155 262q1 248 323 401q134 62 171 131q5 9 7 16q17 57 73 80q40 15 79 4q57 -17 80 -73q15 -40 4 -79q-47 -163 -256 -274q-26 -14 -54 -27q-180 -85 -181 -179q0 -33 45 -60q59 -35 170 -35q27 0 68 6q63 9 107 -38q26 -29 31 -66zM663 1075
q62 6 104 -43q25 -30 29 -68l50 -547q14 -159 50 -205q29 -38 104 -43q26 -2 80 -2h1q63 0 100 -52q23 -32 23 -70q0 -63 -52 -99q-33 -23 -71 -23h-1q-433 0 -478 470v2l-50 547q-6 63 44 105q30 24 67 28z" />
    <glyph glyph-name="uniFE96" unicode="&#x62a;" horiz-adv-x="1959" arabic-form="final" 
d="M505 703q-33 45 -11 97q12 25 32 40q140 103 320 103q125 0 198 -57q62 -50 60 -130q0 -63 -50 -93q-24 -15 -51 -15q-59 0 -84 45q-5 11 -8 23q-2 31 -65 31q-115 -1 -204 -65q-48 -34 -101 -9q-22 12 -36 30zM2081 45q0 -63 -52 -100q-32 -22 -70 -22h-1
q-346 1 -453 261q-245 -291 -794 -291q-309 0 -492 139q-181 141 -182 382q0 113 42 246q18 57 74 78q39 14 79 2q56 -18 78 -74q15 -40 3 -80q-30 -97 -30 -172q0 -219 263 -265q73 -12 165 -12q492 0 658 249q54 83 77 194q11 57 65 85q26 12 53 13q63 1 101 -51
q26 -37 23 -79q-3 -45 -3 -83q0 -172 49 -233q44 -55 162 -63q28 -2 62 -2h1q63 0 100 -52q22 -32 22 -70z" />
    <glyph glyph-name="uniFE97" unicode="&#x62a;" horiz-adv-x="532" arabic-form="initial" 
d="M-79 1013q-33 45 -11 97q12 25 32 40q140 103 320 103q125 0 198 -57q62 -50 60 -130q0 -63 -50 -93q-24 -15 -51 -15q-59 0 -84 45q-5 11 -8 23q-2 31 -65 31q-115 -1 -204 -65q-48 -34 -101 -9q-22 12 -36 30zM256 783q62 19 113 -22q29 -24 40 -59q66 -212 66 -353
q-1 -194 -104 -303q-120 -123 -371 -123q-63 0 -100 52q-22 32 -22 70q0 63 52 100q32 22 70 22q148 0 195 49q34 35 34 133q0 111 -54 281q-19 62 22 113q24 29 59 40z" />
    <glyph glyph-name="uniFE98" unicode="&#x62a;" horiz-adv-x="811" arabic-form="medial" 
d="M-54 869q-33 45 -11 97q12 25 32 40q140 103 320 103q125 0 198 -57q62 -50 60 -130q0 -63 -50 -93q-24 -15 -51 -15q-59 0 -84 45q-5 11 -8 23q-2 31 -65 31q-115 -1 -204 -65q-48 -34 -101 -9q-22 12 -36 30zM-123 45q0 63 52 99q33 23 71 23q34 0 79 4q115 10 154 44
q47 40 48 158q0 57 -8 148q-5 63 44 104q34 28 77 29q63 1 100 -51q20 -27 23 -59q21 -204 29 -243q17 -81 63 -107t182 -27h19h1q63 0 100 -52q23 -32 23 -70q0 -63 -52 -99q-33 -23 -71 -23h-1q-213 0 -323 79q-43 31 -77 76q-96 -129 -304 -150q-48 -5 -106 -5
q-63 0 -100 52q-23 32 -23 70z" />
    <glyph glyph-name="uniFE9A" unicode="&#x62b;" horiz-adv-x="1959" arabic-form="final" 
d="M924 648q-45 30 -44 84q1 29 16 52q12 21 12 50q0 62 -65 75q-15 3 -32 3q-49 0 -76 -40q-12 -18 -12 -34q0 -44 32 -80q14 -15 47 -46q40 -37 30 -91q-5 -27 -23 -47q-36 -39 -91 -30q-28 5 -48 24q-83 74 -115 141q-28 61 -28 129q0 119 93 199q84 71 191 71
q122 0 208 -78q85 -78 85 -196q-1 -94 -44 -158q-30 -45 -84 -44q-29 0 -52 16zM2081 45q0 -63 -52 -100q-32 -22 -70 -22h-1q-346 1 -453 261q-245 -291 -794 -291q-309 0 -492 139q-181 141 -182 382q0 113 42 246q18 57 74 78q39 14 79 2q56 -18 78 -74q15 -40 3 -80
q-30 -97 -30 -172q0 -219 263 -265q73 -12 165 -12q492 0 658 249q54 83 77 194q11 57 65 85q26 12 53 13q63 1 101 -51q26 -37 23 -79q-3 -45 -3 -83q0 -172 49 -233q44 -55 162 -63q28 -2 62 -2h1q63 0 100 -52q22 -32 22 -70z" />
    <glyph glyph-name="uniFE9B" unicode="&#x62b;" horiz-adv-x="532" arabic-form="initial" 
d="M320 1041q-45 30 -44 84q1 29 16 52q12 21 12 50q0 62 -65 75q-15 3 -32 3q-49 0 -76 -40q-12 -18 -12 -34q0 -44 32 -80q14 -15 47 -46q40 -37 30 -91q-5 -27 -23 -47q-36 -39 -91 -30q-28 5 -48 24q-83 74 -115 141q-28 61 -28 129q0 119 93 199q84 71 191 71
q122 0 208 -78q85 -78 85 -196q-1 -94 -44 -158q-30 -45 -84 -44q-29 0 -52 16zM256 783q62 19 113 -22q29 -24 40 -59q66 -212 66 -353q-1 -194 -104 -303q-120 -123 -371 -123q-63 0 -100 52q-22 32 -22 70q0 63 52 100q32 22 70 22q148 0 195 49q34 35 34 133
q0 111 -54 281q-19 62 22 113q24 29 59 40z" />
    <glyph glyph-name="uniFE9C" unicode="&#x62b;" horiz-adv-x="811" arabic-form="medial" 
d="M328 875q-45 30 -44 84q1 29 16 52q12 21 12 50q0 62 -65 75q-15 3 -32 3q-49 0 -76 -40q-12 -18 -12 -34q0 -44 32 -80q14 -15 47 -46q40 -37 30 -91q-5 -27 -23 -47q-36 -39 -91 -30q-28 5 -48 24q-83 74 -115 141q-28 61 -28 129q0 119 93 199q84 71 191 71
q122 0 208 -78q85 -78 85 -196q-1 -94 -44 -158q-30 -45 -84 -44q-29 0 -52 16zM-123 45q0 63 52 99q33 23 71 23q34 0 79 4q115 10 154 44q47 40 48 158q0 57 -8 148q-5 63 44 104q34 28 77 29q63 1 100 -51q20 -27 23 -59q21 -204 29 -243q17 -81 63 -107t182 -27h19h1
q63 0 100 -52q23 -32 23 -70q0 -63 -52 -99q-33 -23 -71 -23h-1q-213 0 -323 79q-43 31 -77 76q-96 -129 -304 -150q-48 -5 -106 -5q-63 0 -100 52q-23 32 -23 70z" />
    <glyph glyph-name="uniFE9E" unicode="&#x62c;" horiz-adv-x="1332" arabic-form="final" 
d="M539 -102q0 59 51 98q36 27 80 27q69 0 108 -70q18 -31 18 -55q0 -46 -30 -88q-37 -49 -99 -50q-86 0 -117 85q-11 29 -11 53zM693 -715q-219 0 -391 91q-220 116 -258 335q-7 43 -7 88q0 359 419 601q125 72 284 131q-228 112 -308 112q-71 0 -110 -77q-10 -19 -18 -41
q-21 -56 -78 -75q-40 -13 -78 0q-55 19 -76 76q-13 41 0 80q100 280 361 281q183 0 608 -221q38 -20 75 -40q68 -39 87 -72q12 -22 12 -46q0 -63 -56 -101q-25 -17 -53 -23q-147 -29 -330 -104q-361 -149 -459 -344q-34 -67 -34 -137q0 -129 125 -204q112 -66 285 -66
q183 0 337 83q57 30 116 0q33 -18 50 -50q30 -57 0 -116q-18 -33 -50 -50q-213 -111 -453 -111zM1455 45q0 -63 -52 -99q-33 -23 -71 -23h-1q-224 0 -377 123q-168 136 -183 370q-1 21 -1 42q0 63 52 100q32 22 70 22q63 0 100 -52q23 -32 23 -70q2 -290 316 -291h1
q63 0 100 -52q23 -32 23 -70z" />
    <glyph glyph-name="uniFE9F" unicode="&#x62c;" horiz-adv-x="1332" arabic-form="initial" 
d="M337 -317q0 59 51 98q36 27 80 27q69 0 108 -70q18 -31 18 -55q0 -46 -30 -88q-37 -49 -99 -50q-86 0 -117 85q-11 29 -11 53zM119 414q-57 15 -81 71q-16 39 -6 78q45 173 178 263q95 63 205 63q130 0 316 -99q19 -10 145 -82q214 -121 304 -150q56 -18 76 -75
q17 -46 -1 -89q-19 -47 -68 -67q-12 -5 -23 -7q-101 -19 -284 -120q-20 -12 -45 -26q-251 -142 -451 -198q-190 -53 -384 -53q-63 0 -100 52q-22 32 -22 70q0 63 52 100q32 22 70 22q280 0 563 140q66 33 150 81q78 44 125 63q-40 18 -84 43q-266 150 -339 151
q-62 0 -107 -58q-27 -35 -40 -86q-15 -57 -71 -81q-39 -16 -78 -6z" />
    <glyph glyph-name="uniFEA0" unicode="&#x62c;" horiz-adv-x="1351" arabic-form="medial" 
d="M461 -317q0 59 51 98q36 27 80 27q69 0 108 -70q18 -31 18 -55q0 -46 -30 -88q-37 -49 -99 -50q-86 0 -117 85q-11 29 -11 53zM953 499q63 0 100 -52q22 -32 22 -70q0 -133 122 -184q64 -26 153 -26h1q63 0 100 -52q23 -32 23 -70q0 -63 -52 -99q-33 -23 -71 -23h-1
q-205 0 -349 107q-157 118 -169 317q-1 15 -1 30q0 63 52 100q32 22 70 22zM119 414q-57 15 -81 71q-16 39 -6 78q45 173 178 263q95 63 205 63q130 0 316 -99q19 -10 145 -82q214 -121 304 -150q56 -18 76 -75q17 -46 -1 -89q-19 -47 -68 -67q-12 -5 -23 -7
q-101 -19 -284 -120q-20 -12 -45 -26q-251 -142 -451 -198q-190 -53 -384 -53q-63 0 -100 52q-22 32 -22 70q0 63 52 100q32 22 70 22q280 0 563 140q66 33 150 81q78 44 125 63q-40 18 -84 43q-266 150 -339 151q-62 0 -107 -58q-27 -35 -40 -86q-15 -57 -71 -81
q-39 -16 -78 -6z" />
    <glyph glyph-name="uniFEA2" unicode="&#x62d;" horiz-adv-x="1332" arabic-form="final" 
d="M693 -715q-219 0 -391 91q-220 116 -258 335q-7 43 -7 88q0 359 419 601q125 72 284 131q-228 112 -308 112q-71 0 -110 -77q-10 -19 -18 -41q-21 -56 -78 -75q-40 -13 -78 0q-55 19 -76 76q-13 41 0 80q100 280 361 281q183 0 608 -221q38 -20 75 -40q68 -39 87 -72
q12 -22 12 -46q0 -63 -56 -101q-25 -17 -53 -23q-147 -29 -330 -104q-361 -149 -459 -344q-34 -67 -34 -137q0 -129 125 -204q112 -66 285 -66q183 0 337 83q57 30 116 0q33 -18 50 -50q30 -57 0 -116q-18 -33 -50 -50q-213 -111 -453 -111zM1455 45q0 -63 -52 -99
q-33 -23 -71 -23h-1q-224 0 -377 123q-168 136 -183 370q-1 21 -1 42q0 63 52 100q32 22 70 22q63 0 100 -52q23 -32 23 -70q2 -290 316 -291h1q63 0 100 -52q23 -32 23 -70z" />
    <glyph glyph-name="uniFEA3" unicode="&#x62d;" horiz-adv-x="1332" arabic-form="initial" 
d="M119 414q-57 15 -81 71q-16 39 -6 78q45 173 178 263q95 63 205 63q130 0 316 -99q19 -10 145 -82q214 -121 304 -150q56 -18 76 -75q17 -46 -1 -89q-19 -47 -68 -67q-12 -5 -23 -7q-101 -19 -284 -120q-20 -12 -45 -26q-251 -142 -451 -198q-190 -53 -384 -53
q-63 0 -100 52q-22 32 -22 70q0 63 52 100q32 22 70 22q280 0 563 140q66 33 150 81q78 44 125 63q-40 18 -84 43q-266 150 -339 151q-62 0 -107 -58q-27 -35 -40 -86q-15 -57 -71 -81q-39 -16 -78 -6z" />
    <glyph glyph-name="uniFEA4" unicode="&#x62d;" horiz-adv-x="1351" arabic-form="medial" 
d="M953 499q63 0 100 -52q22 -32 22 -70q0 -133 122 -184q64 -26 153 -26h1q63 0 100 -52q23 -32 23 -70q0 -63 -52 -99q-33 -23 -71 -23h-1q-205 0 -349 107q-157 118 -169 317q-1 15 -1 30q0 63 52 100q32 22 70 22zM119 414q-57 15 -81 71q-16 39 -6 78q45 173 178 263
q95 63 205 63q130 0 316 -99q19 -10 145 -82q214 -121 304 -150q56 -18 76 -75q17 -46 -1 -89q-19 -47 -68 -67q-12 -5 -23 -7q-101 -19 -284 -120q-20 -12 -45 -26q-251 -142 -451 -198q-190 -53 -384 -53q-63 0 -100 52q-22 32 -22 70q0 63 52 100q32 22 70 22
q280 0 563 140q66 33 150 81q78 44 125 63q-40 18 -84 43q-266 150 -339 151q-62 0 -107 -58q-27 -35 -40 -86q-15 -57 -71 -81q-39 -16 -78 -6z" />
    <glyph glyph-name="uniFEA6" unicode="&#x62e;" horiz-adv-x="1332" arabic-form="final" 
d="M296 1183q0 59 51 98q36 27 80 27q69 0 108 -70q18 -31 18 -55q0 -46 -30 -88q-37 -49 -99 -50q-86 0 -117 85q-11 29 -11 53zM693 -715q-219 0 -391 91q-220 116 -258 335q-7 43 -7 88q0 359 419 601q125 72 284 131q-228 112 -308 112q-71 0 -110 -77q-10 -19 -18 -41
q-21 -56 -78 -75q-40 -13 -78 0q-55 19 -76 76q-13 41 0 80q100 280 361 281q183 0 608 -221q38 -20 75 -40q68 -39 87 -72q12 -22 12 -46q0 -63 -56 -101q-25 -17 -53 -23q-147 -29 -330 -104q-361 -149 -459 -344q-34 -67 -34 -137q0 -129 125 -204q112 -66 285 -66
q183 0 337 83q57 30 116 0q33 -18 50 -50q30 -57 0 -116q-18 -33 -50 -50q-213 -111 -453 -111zM1455 45q0 -63 -52 -99q-33 -23 -71 -23h-1q-224 0 -377 123q-168 136 -183 370q-1 21 -1 42q0 63 52 100q32 22 70 22q63 0 100 -52q23 -32 23 -70q2 -290 316 -291h1
q63 0 100 -52q23 -32 23 -70z" />
    <glyph glyph-name="uniFEA7" unicode="&#x62e;" horiz-adv-x="1332" arabic-form="initial" 
d="M272 1215q0 59 51 98q36 27 80 27q69 0 108 -70q18 -31 18 -55q0 -46 -30 -88q-37 -49 -99 -50q-86 0 -117 85q-11 29 -11 53zM119 414q-57 15 -81 71q-16 39 -6 78q45 173 178 263q95 63 205 63q130 0 316 -99q19 -10 145 -82q214 -121 304 -150q56 -18 76 -75
q17 -46 -1 -89q-19 -47 -68 -67q-12 -5 -23 -7q-101 -19 -284 -120q-20 -12 -45 -26q-251 -142 -451 -198q-190 -53 -384 -53q-63 0 -100 52q-22 32 -22 70q0 63 52 100q32 22 70 22q280 0 563 140q66 33 150 81q78 44 125 63q-40 18 -84 43q-266 150 -339 151
q-62 0 -107 -58q-27 -35 -40 -86q-15 -57 -71 -81q-39 -16 -78 -6z" />
    <glyph glyph-name="uniFEA8" unicode="&#x62e;" horiz-adv-x="1351" arabic-form="medial" 
d="M236 1215q0 59 51 98q36 27 80 27q69 0 108 -70q18 -31 18 -55q0 -46 -30 -88q-37 -49 -99 -50q-86 0 -117 85q-11 29 -11 53zM953 499q63 0 100 -52q22 -32 22 -70q0 -133 122 -184q64 -26 153 -26h1q63 0 100 -52q23 -32 23 -70q0 -63 -52 -99q-33 -23 -71 -23h-1
q-205 0 -349 107q-157 118 -169 317q-1 15 -1 30q0 63 52 100q32 22 70 22zM119 414q-57 15 -81 71q-16 39 -6 78q45 173 178 263q95 63 205 63q130 0 316 -99q19 -10 145 -82q214 -121 304 -150q56 -18 76 -75q17 -46 -1 -89q-19 -47 -68 -67q-12 -5 -23 -7
q-101 -19 -284 -120q-20 -12 -45 -26q-251 -142 -451 -198q-190 -53 -384 -53q-63 0 -100 52q-22 32 -22 70q0 63 52 100q32 22 70 22q280 0 563 140q66 33 150 81q78 44 125 63q-40 18 -84 43q-266 150 -339 151q-62 0 -107 -58q-27 -35 -40 -86q-15 -57 -71 -81
q-39 -16 -78 -6z" />
    <glyph glyph-name="uniFEAA" unicode="&#x62f;" horiz-adv-x="1120" arabic-form="final" 
d="M1243 45q0 -63 -52 -99q-33 -23 -71 -23h-1q-275 1 -416 269q-36 68 -78 188q-48 140 -129 304q-9 17 -21 42q-29 58 3 115q20 33 52 50q58 29 115 -3q33 -20 50 -52q99 -198 149 -338q6 -19 13 -38q56 -159 97 -214q61 -78 165 -79h1q63 0 100 -52q23 -32 23 -70z
M706 515q62 22 114 -18q28 -22 40 -55q31 -84 31 -145q0 -229 -198 -335q-130 -69 -304 -69q-137 0 -252 41q-55 19 -73 78q-12 41 2 80q22 59 85 73q36 8 73 -3q78 -25 165 -25q217 0 250 111q6 23 6 49q0 27 -12 61q-21 61 16 114q23 31 57 43z" />
    <glyph glyph-name="uniFEAC" unicode="&#x630;" horiz-adv-x="1120" arabic-form="final" 
d="M414 1275q0 59 51 98q36 27 80 27q69 0 108 -70q18 -31 18 -55q0 -46 -30 -88q-37 -49 -99 -50q-86 0 -117 85q-11 29 -11 53zM1243 45q0 -63 -52 -99q-33 -23 -71 -23h-1q-275 1 -416 269q-36 68 -78 188q-48 140 -129 304q-9 17 -21 42q-29 58 3 115q20 33 52 50
q58 29 115 -3q33 -20 50 -52q99 -198 149 -338q6 -19 13 -38q56 -159 97 -214q61 -78 165 -79h1q63 0 100 -52q23 -32 23 -70zM706 515q62 22 114 -18q28 -22 40 -55q31 -84 31 -145q0 -229 -198 -335q-130 -69 -304 -69q-137 0 -252 41q-55 19 -73 78q-12 41 2 80
q22 59 85 73q36 8 73 -3q78 -25 165 -25q217 0 250 111q6 23 6 49q0 27 -12 61q-21 61 16 114q23 31 57 43z" />
    <glyph glyph-name="uniFEAE" unicode="&#x631;" horiz-adv-x="917" arabic-form="final" 
d="M1039 45q0 -63 -52 -100q-32 -22 -70 -22h-1q-229 1 -352 126q-87 91 -135 261q-10 37 -36 146q-15 61 29 109q26 29 62 38q62 15 111 -30q27 -26 36 -61q57 -236 107 -291l2 -2q44 -46 141 -51q17 -1 35 -1h1q63 0 100 -52q22 -32 22 -70zM481 602q62 16 111 -27
q28 -25 38 -60q69 -258 69 -444q0 -295 -229 -488q-111 -94 -266 -154q-60 -23 -114 14q-31 23 -44 56q-23 60 14 114q23 31 56 44q268 103 323 294q16 56 16 120q0 151 -61 382q-16 62 27 111q25 28 60 38z" />
    <glyph glyph-name="uniFEB0" unicode="&#x632;" horiz-adv-x="917" arabic-form="final" 
d="M310 1009q0 59 51 98q36 27 80 27q69 0 108 -70q18 -31 18 -55q0 -46 -30 -88q-37 -49 -99 -50q-86 0 -117 85q-11 29 -11 53zM1039 45q0 -63 -52 -100q-32 -22 -70 -22h-1q-229 1 -352 126q-87 91 -135 261q-10 37 -36 146q-15 61 29 109q26 29 62 38q62 15 111 -30
q27 -26 36 -61q57 -236 107 -291l2 -2q44 -46 141 -51q17 -1 35 -1h1q63 0 100 -52q22 -32 22 -70zM481 602q62 16 111 -27q28 -25 38 -60q69 -258 69 -444q0 -295 -229 -488q-111 -94 -266 -154q-60 -23 -114 14q-31 23 -44 56q-23 60 14 114q23 31 56 44q268 103 323 294
q16 56 16 120q0 151 -61 382q-16 62 27 111q25 28 60 38z" />
    <glyph glyph-name="uniFEB2" unicode="&#x633;" horiz-adv-x="2402" arabic-form="final" 
d="M303 472q56 -23 72 -82q10 -41 -5 -78q-87 -210 -87 -370q0 -246 252 -285q50 -8 109 -8q352 2 353 328q0 168 -73 362q-22 60 15 114q22 31 56 44q59 22 114 -15q31 -23 44 -57q90 -241 90 -448q0 -227 -134 -382q-150 -172 -413 -188q-26 -2 -52 -2q-287 0 -453 160
q-145 138 -154 352v25q0 210 105 464q23 55 82 71q41 10 79 -5zM995 496q60 22 113 -15q31 -22 44 -56q77 -204 141 -255q34 -27 80 -27q70 0 103 45q44 61 65 246q7 61 61 92q36 19 74 15q61 -7 92 -61q20 -36 16 -74q-47 -412 -286 -491q-54 -18 -116 -18q-254 0 -409 326
q-26 54 -49 116q-22 60 15 113q22 31 56 44zM1679 541q60 -8 90 -63q19 -36 14 -75q-10 -71 -10 -138q1 -125 90 -126q70 0 84 103q4 30 4 67q0 83 -19 181q-11 61 33 108q28 29 65 36q61 11 108 -33q29 -28 36 -65q23 -122 23 -227q0 -161 -74 -276q-91 -139 -257 -140
q-154 0 -250 113q-89 106 -89 259q0 68 14 172q8 60 63 90q35 19 75 14zM2033 634q63 10 108 -36q27 -28 33 -65q37 -218 63 -279q28 -62 81 -78q31 -9 83 -9h1q63 0 100 -52q23 -32 23 -70q0 -63 -52 -99q-33 -23 -71 -23h-1q-246 1 -358 194q-64 113 -106 349q-3 13 -5 27
q-10 63 36 108q28 27 65 33z" />
    <glyph glyph-name="uniFEB3" unicode="&#x633;" horiz-adv-x="1545" arabic-form="initial" 
d="M1278 733q60 23 114 -16q30 -22 43 -55q72 -188 72 -367q0 -140 -69 -247q-92 -142 -267 -143q-197 0 -303 171q-83 133 -83 311q0 61 9 119q9 60 64 90q36 19 75 13q60 -9 90 -64q19 -36 13 -75q-7 -51 -7 -83q1 -237 129 -238q104 2 105 146q0 117 -48 258q-4 12 -8 23
q-23 60 16 114q22 30 55 43zM927 610q60 -5 93 -59q20 -36 17 -75q-28 -298 -164 -449q-114 -124 -290 -124q-165 0 -259 132q-73 104 -73 240q0 97 19 225q9 60 64 90q36 19 75 13q60 -9 90 -64q19 -36 13 -75q-16 -109 -16 -189q0 -100 73 -123q17 -5 37 -5q94 0 139 110
q33 83 48 243q5 61 60 93q34 21 74 17zM402 604q61 -6 93 -59q20 -35 17 -74q-25 -291 -184 -434q-128 -114 -328 -114q-63 0 -100 52q-22 32 -22 70q0 63 52 100q32 22 70 22q145 0 205 88q50 73 64 238q6 61 60 94q35 20 73 17z" />
    <glyph glyph-name="uniFEB4" unicode="&#x633;" horiz-adv-x="1767" arabic-form="medial" 
d="M1889 45q0 -63 -52 -100q-32 -22 -70 -22h-1q-215 0 -319 145q-92 130 -129 434l-6 54q-7 62 41 104q30 27 68 31q62 7 104 -41q27 -30 31 -68q27 -258 54 -329q23 -62 72 -77q29 -9 84 -9h1q63 0 100 -52q22 -32 22 -70zM1427 691q63 4 103 -46q23 -31 26 -69
q5 -84 5 -157q0 -216 -85 -354q-98 -157 -287 -158q-231 0 -323 221q-49 119 -49 271q0 34 4 99q5 62 58 96q34 21 73 18q63 -5 95 -58q21 -34 18 -72q-2 -28 -2 -83q0 -194 71 -233q23 -13 55 -13q81 0 109 89q19 62 19 177q0 64 -5 143q-4 63 46 103q31 23 69 26zM960 611
q60 -8 90 -63q19 -36 14 -75q-37 -262 -125 -395q-116 -174 -327 -175q-215 0 -295 204q-40 102 -40 237q0 90 6 158q6 62 58 95q34 21 73 18q62 -6 95 -58q21 -34 18 -73q-6 -70 -6 -140q0 -139 40 -175q24 -20 66 -20q96 0 146 135q29 81 49 223q8 60 63 90q35 19 75 14z
M416 615q61 -6 94 -59q20 -35 17 -74q-40 -457 -363 -540q-74 -19 -164 -19q-63 0 -100 52q-22 32 -22 70q0 63 52 100q32 22 70 22q136 0 190 42q57 44 78 174q9 49 15 121q6 61 60 94q35 20 73 17z" />
    <glyph glyph-name="uniFEB6" unicode="&#x634;" horiz-adv-x="2402" arabic-form="final" 
d="M1564 788q-45 30 -44 84q1 29 16 52q12 21 12 50q0 62 -65 75q-15 3 -32 3q-49 0 -76 -40q-12 -18 -12 -34q0 -44 32 -80q14 -15 47 -46q40 -37 30 -91q-5 -27 -23 -47q-36 -39 -91 -30q-28 5 -48 24q-83 74 -115 141q-28 61 -28 129q0 119 93 199q84 71 191 71
q122 0 208 -78q85 -78 85 -196q-1 -94 -44 -158q-30 -45 -84 -44q-29 0 -52 16zM303 472q56 -23 72 -82q10 -41 -5 -78q-87 -210 -87 -370q0 -246 252 -285q50 -8 109 -8q352 2 353 328q0 168 -73 362q-22 60 15 114q22 31 56 44q59 22 114 -15q31 -23 44 -57
q90 -241 90 -448q0 -227 -134 -382q-150 -172 -413 -188q-26 -2 -52 -2q-287 0 -453 160q-145 138 -154 352v25q0 210 105 464q23 55 82 71q41 10 79 -5zM995 496q60 22 113 -15q31 -22 44 -56q77 -204 141 -255q34 -27 80 -27q70 0 103 45q44 61 65 246q7 61 61 92
q36 19 74 15q61 -7 92 -61q20 -36 16 -74q-47 -412 -286 -491q-54 -18 -116 -18q-254 0 -409 326q-26 54 -49 116q-22 60 15 113q22 31 56 44zM1679 541q60 -8 90 -63q19 -36 14 -75q-10 -71 -10 -138q1 -125 90 -126q70 0 84 103q4 30 4 67q0 83 -19 181q-11 61 33 108
q28 29 65 36q61 11 108 -33q29 -28 36 -65q23 -122 23 -227q0 -161 -74 -276q-91 -139 -257 -140q-154 0 -250 113q-89 106 -89 259q0 68 14 172q8 60 63 90q35 19 75 14zM2033 634q63 10 108 -36q27 -28 33 -65q37 -218 63 -279q28 -62 81 -78q31 -9 83 -9h1q63 0 100 -52
q23 -32 23 -70q0 -63 -52 -99q-33 -23 -71 -23h-1q-246 1 -358 194q-64 113 -106 349q-3 13 -5 27q-10 63 36 108q28 27 65 33z" />
    <glyph glyph-name="uniFEB7" unicode="&#x634;" horiz-adv-x="1545" arabic-form="initial" 
d="M921 855q-45 30 -44 84q1 29 16 52q12 21 12 50q0 62 -65 75q-15 3 -32 3q-49 0 -76 -40q-12 -18 -12 -34q0 -44 32 -80q14 -15 47 -46q40 -37 30 -91q-5 -27 -23 -47q-36 -39 -91 -30q-28 5 -48 24q-83 74 -115 141q-28 61 -28 129q0 119 93 199q84 71 191 71
q122 0 208 -78q85 -78 85 -196q-1 -94 -44 -158q-30 -45 -84 -44q-29 0 -52 16zM1278 733q60 23 114 -16q30 -22 43 -55q72 -188 72 -367q0 -140 -69 -247q-92 -142 -267 -143q-197 0 -303 171q-83 133 -83 311q0 61 9 119q9 60 64 90q36 19 75 13q60 -9 90 -64
q19 -36 13 -75q-7 -51 -7 -83q1 -237 129 -238q104 2 105 146q0 117 -48 258q-4 12 -8 23q-23 60 16 114q22 30 55 43zM927 610q60 -5 93 -59q20 -36 17 -75q-28 -298 -164 -449q-114 -124 -290 -124q-165 0 -259 132q-73 104 -73 240q0 97 19 225q9 60 64 90q36 19 75 13
q60 -9 90 -64q19 -36 13 -75q-16 -109 -16 -189q0 -100 73 -123q17 -5 37 -5q94 0 139 110q33 83 48 243q5 61 60 93q34 21 74 17zM402 604q61 -6 93 -59q20 -35 17 -74q-25 -291 -184 -434q-128 -114 -328 -114q-63 0 -100 52q-22 32 -22 70q0 63 52 100q32 22 70 22
q145 0 205 88q50 73 64 238q6 61 60 94q35 20 73 17z" />
    <glyph glyph-name="uniFEB8" unicode="&#x634;" horiz-adv-x="1767" arabic-form="medial" 
d="M921 855q-45 30 -44 84q1 29 16 52q12 21 12 50q0 62 -65 75q-15 3 -32 3q-49 0 -76 -40q-12 -18 -12 -34q0 -44 32 -80q14 -15 47 -46q40 -37 30 -91q-5 -27 -23 -47q-36 -39 -91 -30q-28 5 -48 24q-83 74 -115 141q-28 61 -28 129q0 119 93 199q84 71 191 71
q122 0 208 -78q85 -78 85 -196q-1 -94 -44 -158q-30 -45 -84 -44q-29 0 -52 16zM1889 45q0 -63 -52 -100q-32 -22 -70 -22h-1q-215 0 -319 145q-92 130 -129 434l-6 54q-7 62 41 104q30 27 68 31q62 7 104 -41q27 -30 31 -68q27 -258 54 -329q23 -62 72 -77q29 -9 84 -9h1
q63 0 100 -52q22 -32 22 -70zM1427 691q63 4 103 -46q23 -31 26 -69q5 -84 5 -157q0 -216 -85 -354q-98 -157 -287 -158q-231 0 -323 221q-49 119 -49 271q0 34 4 99q5 62 58 96q34 21 73 18q63 -5 95 -58q21 -34 18 -72q-2 -28 -2 -83q0 -194 71 -233q23 -13 55 -13
q81 0 109 89q19 62 19 177q0 64 -5 143q-4 63 46 103q31 23 69 26zM960 611q60 -8 90 -63q19 -36 14 -75q-37 -262 -125 -395q-116 -174 -327 -175q-215 0 -295 204q-40 102 -40 237q0 90 6 158q6 62 58 95q34 21 73 18q62 -6 95 -58q21 -34 18 -73q-6 -70 -6 -140
q0 -139 40 -175q24 -20 66 -20q96 0 146 135q29 81 49 223q8 60 63 90q35 19 75 14zM416 615q61 -6 94 -59q20 -35 17 -74q-40 -457 -363 -540q-74 -19 -164 -19q-63 0 -100 52q-22 32 -22 70q0 63 52 100q32 22 70 22q136 0 190 42q57 44 78 174q9 49 15 121q6 61 60 94
q35 20 73 17z" />
    <glyph glyph-name="uniFEBA" unicode="&#x635;" horiz-adv-x="2424" arabic-form="final" 
d="M2267 408q0 -233 -205 -368q-150 -98 -352 -115q-31 -2 -60 -2q-419 0 -608 222q-62 74 -104 174q-25 60 12 115q21 31 54 45q60 25 115 -12q31 -21 45 -54q60 -147 203 -203q110 -43 283 -43q156 0 272 80q92 63 100 138q1 6 1 12q0 76 -73 106q-35 14 -82 14
q-186 0 -341 -230q-47 -70 -89 -158q-27 -56 -87 -68q-39 -8 -75 9q-56 27 -68 88q-7 39 10 75q252 529 655 530q148 0 260 -84q131 -106 134 -271zM1013 483q62 20 114 -20q29 -24 41 -59q73 -224 73 -411q0 -276 -177 -433q-174 -155 -475 -155q-196 0 -345 94
q-189 120 -206 343q-1 21 -1 41q0 260 190 559q2 3 3 5q33 52 96 56q41 2 74 -19q52 -33 56 -96q2 -41 -18 -73q-115 -182 -147 -349q-8 -45 -8 -83q0 -154 145 -209q68 -25 161 -25q263 0 351 121q57 78 57 223q0 142 -63 335q-20 62 20 114q24 29 59 41zM2026 333
q58 31 116 0q32 -18 49 -49q36 -66 81 -90q53 -27 151 -27h1q63 0 100 -52q23 -32 23 -70q0 -63 -52 -99q-33 -23 -71 -23h-1q-272 0 -410 187q-21 28 -37 58q-31 58 1 116q18 32 49 49z" />
    <glyph glyph-name="uniFEBB" unicode="&#x635;" horiz-adv-x="1546" arabic-form="initial" 
d="M1264 434q0 103 -82 139q-34 14 -76 14q-138 0 -301 -194q-161 -192 -279 -485q-19 -48 -69 -61q-29 -7 -57 3q-48 18 -61 68q-7 30 3 59q160 437 375 662q185 194 389 194q164 0 279 -107t123 -269q1 -12 1 -23q0 -248 -231 -389q-168 -102 -399 -119q-36 -3 -70 -3
q-329 0 -463 154q-115 133 -115 408q0 63 52 100q32 22 70 22q63 0 100 -52q23 -32 23 -70q0 -166 27 -224q29 -62 114 -81q62 -13 192 -13q194 0 330 84q115 72 124 168q1 8 1 15zM353 607q63 0 100 -52q22 -32 22 -70q0 -397 -227 -512q-101 -50 -248 -50q-63 0 -100 52
q-22 32 -22 70q0 63 52 100q32 22 70 22q120 0 161 24q49 28 62 123q8 59 8 171q0 63 52 100q32 22 70 22z" />
    <glyph glyph-name="uniFEBC" unicode="&#x635;" horiz-adv-x="1671" arabic-form="medial" 
d="M1501 434q0 -249 -241 -389q-171 -101 -405 -119q-39 -3 -75 -3q-410 0 -513 303q-37 109 -37 259q0 63 52 100q32 22 70 22q63 0 100 -52q23 -32 23 -70q0 -166 23 -222q26 -62 103 -82q59 -14 179 -14q192 0 336 82q119 68 138 157q3 15 3 28q0 91 -68 131
q-38 22 -86 22q-116 0 -261 -163q-123 -139 -231 -358q-27 -54 -89 -66q-40 -6 -76 11q-54 27 -66 89q-6 40 11 76q241 487 511 612q98 45 201 45q146 0 259 -97q120 -102 137 -258q2 -22 2 -44zM361 607q62 -6 95 -58q21 -34 18 -73q-26 -333 -179 -461q-111 -92 -295 -92
q-63 0 -100 52q-22 32 -22 70q0 63 52 100q32 22 70 22q107 0 147 27q47 32 65 140q10 57 18 160q6 62 58 95q34 21 73 18zM1278 372q60 22 114 -15q31 -23 44 -57q27 -73 59 -98q47 -35 175 -35h1q63 0 100 -52q23 -32 23 -70q0 -63 -52 -99q-33 -23 -71 -23h-1
q-335 0 -451 259q-7 16 -13 32q-22 61 16 115q23 30 56 43z" />
    <glyph glyph-name="uniFEBE" unicode="&#x636;" horiz-adv-x="2424" arabic-form="final" 
d="M1688 1085q0 59 51 98q36 27 80 27q69 0 108 -70q18 -31 18 -55q0 -46 -30 -88q-37 -49 -99 -50q-86 0 -117 85q-11 29 -11 53zM2267 408q0 -233 -205 -368q-150 -98 -352 -115q-31 -2 -60 -2q-419 0 -608 222q-62 74 -104 174q-25 60 12 115q21 31 54 45q60 25 115 -12
q31 -21 45 -54q60 -147 203 -203q110 -43 283 -43q156 0 272 80q92 63 100 138q1 6 1 12q0 76 -73 106q-35 14 -82 14q-186 0 -341 -230q-47 -70 -89 -158q-27 -56 -87 -68q-39 -8 -75 9q-56 27 -68 88q-7 39 10 75q252 529 655 530q148 0 260 -84q131 -106 134 -271z
M1013 483q62 20 114 -20q29 -24 41 -59q73 -224 73 -411q0 -276 -177 -433q-174 -155 -475 -155q-196 0 -345 94q-189 120 -206 343q-1 21 -1 41q0 260 190 559q2 3 3 5q33 52 96 56q41 2 74 -19q52 -33 56 -96q2 -41 -18 -73q-115 -182 -147 -349q-8 -45 -8 -83
q0 -154 145 -209q68 -25 161 -25q263 0 351 121q57 78 57 223q0 142 -63 335q-20 62 20 114q24 29 59 41zM2026 333q58 31 116 0q32 -18 49 -49q36 -66 81 -90q53 -27 151 -27h1q63 0 100 -52q23 -32 23 -70q0 -63 -52 -99q-33 -23 -71 -23h-1q-272 0 -410 187
q-21 28 -37 58q-31 58 1 116q18 32 49 49z" />
    <glyph glyph-name="uniFEBF" unicode="&#x636;" horiz-adv-x="1546" arabic-form="initial" 
d="M980 1169q0 59 51 98q36 27 80 27q69 0 108 -70q18 -31 18 -55q0 -46 -30 -88q-37 -49 -99 -50q-86 0 -117 85q-11 29 -11 53zM1264 434q0 103 -82 139q-34 14 -76 14q-138 0 -301 -194q-161 -192 -279 -485q-19 -48 -69 -61q-29 -7 -57 3q-48 18 -61 68q-7 30 3 59
q160 437 375 662q185 194 389 194q164 0 279 -107t123 -269q1 -12 1 -23q0 -248 -231 -389q-168 -102 -399 -119q-36 -3 -70 -3q-329 0 -463 154q-115 133 -115 408q0 63 52 100q32 22 70 22q63 0 100 -52q23 -32 23 -70q0 -166 27 -224q29 -62 114 -81q62 -13 192 -13
q194 0 330 84q115 72 124 168q1 8 1 15zM353 607q63 0 100 -52q22 -32 22 -70q0 -397 -227 -512q-101 -50 -248 -50q-63 0 -100 52q-22 32 -22 70q0 63 52 100q32 22 70 22q120 0 161 24q49 28 62 123q8 59 8 171q0 63 52 100q32 22 70 22z" />
    <glyph glyph-name="uniFEC0" unicode="&#x636;" horiz-adv-x="1671" arabic-form="medial" 
d="M910 1169q0 59 51 98q36 27 80 27q69 0 108 -70q18 -31 18 -55q0 -46 -30 -88q-37 -49 -99 -50q-86 0 -117 85q-11 29 -11 53zM1501 434q0 -249 -241 -389q-171 -101 -405 -119q-39 -3 -75 -3q-410 0 -513 303q-37 109 -37 259q0 63 52 100q32 22 70 22q63 0 100 -52
q23 -32 23 -70q0 -166 23 -222q26 -62 103 -82q59 -14 179 -14q192 0 336 82q119 68 138 157q3 15 3 28q0 91 -68 131q-38 22 -86 22q-116 0 -261 -163q-123 -139 -231 -358q-27 -54 -89 -66q-40 -6 -76 11q-54 27 -66 89q-6 40 11 76q241 487 511 612q98 45 201 45
q146 0 259 -97q120 -102 137 -258q2 -22 2 -44zM361 607q62 -6 95 -58q21 -34 18 -73q-26 -333 -179 -461q-111 -92 -295 -92q-63 0 -100 52q-22 32 -22 70q0 63 52 100q32 22 70 22q107 0 147 27q47 32 65 140q10 57 18 160q6 62 58 95q34 21 73 18zM1278 372
q60 22 114 -15q31 -23 44 -57q27 -73 59 -98q47 -35 175 -35h1q63 0 100 -52q23 -32 23 -70q0 -63 -52 -99q-33 -23 -71 -23h-1q-335 0 -451 259q-7 16 -13 32q-22 61 16 115q23 30 56 43z" />
    <glyph glyph-name="uniFEC2" unicode="&#x637;" horiz-adv-x="1656" arabic-form="final" 
d="M1232 449q0 82 -63 121q-34 21 -79 21q-139 0 -294 -178q-143 -163 -230 -388q-2 -6 -4 -11q-20 -54 -78 -72q-40 -12 -79 2q-54 20 -72 78q-14 41 1 80q116 308 294 502q212 230 462 231q158 0 269 -107q109 -104 117 -257q1 -11 1 -22q0 -407 -611 -498
q-212 -31 -596 -29q-85 1 -110 1q-63 0 -100 52q-23 32 -23 70q0 63 52 99q33 23 71 23q736 0 961 126q110 63 111 156zM403 -56q-54 21 -72 78q-12 42 3 81q85 215 85 613q0 226 -25 483q-6 63 42 105q30 25 68 29q63 6 105 -43q25 -30 29 -67q27 -289 27 -507
q0 -440 -103 -703q-23 -56 -82 -72q-40 -11 -77 3zM1242 379q60 25 115 -11q32 -21 46 -54q69 -144 252 -147h1q63 0 100 -52q23 -32 23 -70q0 -63 -52 -99q-33 -23 -71 -23h-1q-213 0 -354 122q-81 71 -124 173q-25 60 11 115q21 32 54 46z" />
    <glyph glyph-name="uniFEC3" unicode="&#x637;" horiz-adv-x="1250" arabic-form="initial" 
d="M234 1332q62 8 105 -41q25 -29 30 -66q24 -205 24 -478q0 -275 -89 -574q-51 -173 -117 -290q-27 -46 -81 -50q-29 -1 -54 13q-47 27 -50 81q-1 29 13 53q91 162 123 516q11 128 11 251q0 252 -22 450q-8 62 41 105q29 25 66 30zM968 466q0 72 -62 109q-38 22 -90 22
q-177 0 -376 -263q-142 -188 -249 -442q-20 -48 -72 -57q-30 -5 -57 6q-49 21 -57 76q-3 28 6 54q144 366 304 573q232 296 501 297q152 0 265 -94q122 -100 131 -257q1 -13 1 -24q0 -524 -1070 -539q-47 -1 -128 -1q-50 0 -96 41q-40 36 -41 78q0 63 52 100q32 22 70 22
q510 0 769 99q198 77 199 200z" />
    <glyph glyph-name="uniFEC4" unicode="&#x637;" horiz-adv-x="1338" arabic-form="medial" 
d="M314 1333q63 6 105 -42q25 -30 29 -68q27 -289 27 -507q0 -440 -103 -703q-21 -54 -79 -72q-42 -11 -80 3q-54 21 -72 79q-12 41 3 80q85 215 85 613q0 226 -25 483q-6 63 43 105q30 25 67 29zM1279 444q0 -360 -521 -468q-247 -52 -702 -53h-56q-63 0 -100 52
q-22 32 -22 70q0 63 52 100q32 22 70 22q686 0 909 114q125 65 126 170q0 80 -62 117q-36 21 -86 21q-142 0 -304 -204q-130 -164 -211 -372q-21 -54 -79 -72q-42 -11 -80 3q-54 21 -72 79q-12 41 3 80q168 428 403 610q154 120 325 120q199 0 314 -136q89 -105 93 -243v-10
zM987 316q59 28 116 -6q31 -20 47 -52q26 -55 57 -72q37 -19 130 -19h1q63 0 100 -52q23 -32 23 -70q0 -63 -52 -99q-33 -23 -71 -23h-1q-300 1 -409 231q-28 60 7 116q20 30 52 46z" />
    <glyph glyph-name="uniFEC6" unicode="&#x638;" horiz-adv-x="1656" arabic-form="final" 
d="M962 1167q0 59 51 98q36 27 80 27q69 0 108 -70q18 -31 18 -55q0 -46 -30 -88q-37 -49 -99 -50q-86 0 -117 85q-11 29 -11 53zM1232 449q0 82 -63 121q-34 21 -79 21q-139 0 -294 -178q-143 -163 -230 -388q-2 -6 -4 -11q-20 -54 -78 -72q-40 -12 -79 2q-54 20 -72 78
q-14 41 1 80q116 308 294 502q212 230 462 231q158 0 269 -107q109 -104 117 -257q1 -11 1 -22q0 -407 -611 -498q-212 -31 -596 -29q-85 1 -110 1q-63 0 -100 52q-23 32 -23 70q0 63 52 99q33 23 71 23q736 0 961 126q110 63 111 156zM403 -56q-54 21 -72 78q-12 42 3 81
q85 215 85 613q0 226 -25 483q-6 63 42 105q30 25 68 29q63 6 105 -43q25 -30 29 -67q27 -289 27 -507q0 -440 -103 -703q-23 -56 -82 -72q-40 -11 -77 3zM1242 379q60 25 115 -11q32 -21 46 -54q69 -144 252 -147h1q63 0 100 -52q23 -32 23 -70q0 -63 -52 -99
q-33 -23 -71 -23h-1q-213 0 -354 122q-81 71 -124 173q-25 60 11 115q21 32 54 46z" />
    <glyph glyph-name="uniFEC7" unicode="&#x638;" horiz-adv-x="1250" arabic-form="initial" 
d="M683 1243q0 59 51 98q36 27 80 27q69 0 108 -70q18 -31 18 -55q0 -46 -30 -88q-37 -49 -99 -50q-86 0 -117 85q-11 29 -11 53zM234 1332q62 8 105 -41q25 -29 30 -66q24 -205 24 -478q0 -275 -89 -574q-51 -173 -117 -290q-27 -46 -81 -50q-29 -1 -54 13q-47 27 -50 81
q-1 29 13 53q91 162 123 516q11 128 11 251q0 252 -22 450q-8 62 41 105q29 25 66 30zM968 466q0 72 -62 109q-38 22 -90 22q-177 0 -376 -263q-142 -188 -249 -442q-20 -48 -72 -57q-30 -5 -57 6q-49 21 -57 76q-3 28 6 54q144 366 304 573q232 296 501 297q152 0 265 -94
q122 -100 131 -257q1 -13 1 -24q0 -524 -1070 -539q-47 -1 -128 -1q-50 0 -96 41q-40 36 -41 78q0 63 52 100q32 22 70 22q510 0 769 99q198 77 199 200z" />
    <glyph glyph-name="uniFEC8" unicode="&#x638;" horiz-adv-x="1338" arabic-form="medial" 
d="M733 1243q0 59 51 98q36 27 80 27q69 0 108 -70q18 -31 18 -55q0 -46 -30 -88q-37 -49 -99 -50q-86 0 -117 85q-11 29 -11 53zM314 1333q63 6 105 -42q25 -30 29 -68q27 -289 27 -507q0 -440 -103 -703q-21 -54 -79 -72q-42 -11 -80 3q-54 21 -72 79q-12 41 3 80
q85 215 85 613q0 226 -25 483q-6 63 43 105q30 25 67 29zM1279 444q0 -360 -521 -468q-247 -52 -702 -53h-56q-63 0 -100 52q-22 32 -22 70q0 63 52 100q32 22 70 22q686 0 909 114q125 65 126 170q0 80 -62 117q-36 21 -86 21q-142 0 -304 -204q-130 -164 -211 -372
q-21 -54 -79 -72q-42 -11 -80 3q-54 21 -72 79q-12 41 3 80q168 428 403 610q154 120 325 120q199 0 314 -136q89 -105 93 -243v-10zM987 316q59 28 116 -6q31 -20 47 -52q26 -55 57 -72q37 -19 130 -19h1q63 0 100 -52q23 -32 23 -70q0 -63 -52 -99q-33 -23 -71 -23h-1
q-300 1 -409 231q-28 60 7 116q20 30 52 46z" />
    <glyph glyph-name="uniFECA" unicode="&#x639;" horiz-adv-x="1092" arabic-form="final" 
d="M1215 45q0 -63 -52 -99q-33 -23 -71 -23h-1q-313 1 -636 253q-215 169 -366 389q-36 53 -12 114q14 36 44 56q53 36 114 12q36 -14 56 -44q120 -176 310 -324q238 -186 441 -209q25 -3 49 -3h1q63 0 100 -52q23 -32 23 -70zM104 548q-47 47 -33 111q8 35 33 61
q102 102 275 151q100 28 196 28q143 0 254 -66q143 -87 144 -247q0 -163 -150 -283q-60 -48 -172 -111q-279 -155 -347 -355q-21 -60 -21 -122q0 -173 215 -221q76 -17 176 -17q95 0 209 21q62 11 108 -34q28 -28 35 -65q11 -62 -35 -109q-28 -27 -64 -34q-128 -23 -253 -23
q-251 0 -421 101q-215 128 -216 381q0 369 394 630q48 32 100 61q161 89 188 137q9 17 9 37q0 45 -74 64q-36 9 -79 9q-123 0 -245 -69q-31 -18 -54 -36q-66 -49 -129 -27q-25 9 -43 27z" />
    <glyph glyph-name="uniFECB" unicode="&#x639;" horiz-adv-x="1020" arabic-form="initial" 
d="M823 632q-43 -47 -108 -38q-38 6 -65 30q-51 45 -125 45q-87 0 -156 -70q-69 -71 -70 -162q0 -107 99 -147q47 -19 112 -19q68 0 170 16q97 15 175 18q64 2 102 -48q24 -32 25 -69q2 -64 -48 -102q-32 -24 -69 -25q-60 -3 -147 -16q-105 -18 -208 -18q-173 0 -300 95
q-146 109 -155 294v21q0 176 117 311q109 128 268 159q43 8 85 8q158 0 277 -98q7 -7 14 -13q48 -43 38 -107q-6 -38 -31 -65zM983 183q0 -63 -52 -99q-33 -23 -71 -23q-99 0 -227 -37q-14 -4 -47 -14q-212 -64 -403 -80q-88 -7 -183 -7q-63 0 -100 52q-22 32 -22 70
q0 63 52 100q32 22 70 22q241 0 437 54q26 7 79 23q165 50 274 58q35 3 70 3q63 0 100 -52q23 -32 23 -70z" />
    <glyph glyph-name="uniFECC" unicode="&#x639;" horiz-adv-x="1040" arabic-form="medial" 
d="M521 838q144 0 266 -67q168 -94 177 -268q1 -10 1 -20q0 -243 -292 -398q-213 -113 -507 -150q-91 -12 -166 -12q-63 0 -100 52q-22 32 -22 70q0 63 52 100q32 22 70 22q203 0 430 93q185 76 257 162q32 38 32 69q0 57 -75 85q-45 16 -103 16q-106 0 -215 -55
q-6 -2 -11 -5q183 -203 408 -298q159 -67 316 -67h1q63 0 100 -52q23 -32 23 -70q0 -63 -52 -99q-33 -23 -71 -23h-1q-382 0 -721 268q-167 133 -284 297q-37 52 -15 113q10 28 30 47q115 109 287 161q97 29 185 29z" />
    <glyph glyph-name="uniFECE" unicode="&#x63a;" horiz-adv-x="1092" arabic-form="final" 
d="M384 1266q0 59 51 98q36 27 80 27q69 0 108 -70q18 -31 18 -55q0 -46 -30 -88q-37 -49 -99 -50q-86 0 -117 85q-11 29 -11 53zM1215 45q0 -63 -52 -99q-33 -23 -71 -23h-1q-313 1 -636 253q-215 169 -366 389q-36 53 -12 114q14 36 44 56q53 36 114 12q36 -14 56 -44
q120 -176 310 -324q238 -186 441 -209q25 -3 49 -3h1q63 0 100 -52q23 -32 23 -70zM104 548q-47 47 -33 111q8 35 33 61q102 102 275 151q100 28 196 28q143 0 254 -66q143 -87 144 -247q0 -163 -150 -283q-60 -48 -172 -111q-279 -155 -347 -355q-21 -60 -21 -122
q0 -173 215 -221q76 -17 176 -17q95 0 209 21q62 11 108 -34q28 -28 35 -65q11 -62 -35 -109q-28 -27 -64 -34q-128 -23 -253 -23q-251 0 -421 101q-215 128 -216 381q0 369 394 630q48 32 100 61q161 89 188 137q9 17 9 37q0 45 -74 64q-36 9 -79 9q-123 0 -245 -69
q-31 -18 -54 -36q-66 -49 -129 -27q-25 9 -43 27z" />
    <glyph glyph-name="uniFECF" unicode="&#x63a;" horiz-adv-x="1020" arabic-form="initial" 
d="M323 1384q0 59 51 98q36 27 80 27q69 0 108 -70q18 -31 18 -55q0 -46 -30 -88q-37 -49 -99 -50q-86 0 -117 85q-11 29 -11 53zM823 632q-43 -47 -108 -38q-38 6 -65 30q-51 45 -125 45q-87 0 -156 -70q-69 -71 -70 -162q0 -107 99 -147q47 -19 112 -19q68 0 170 16
q97 15 175 18q64 2 102 -48q24 -32 25 -69q2 -64 -48 -102q-32 -24 -69 -25q-60 -3 -147 -16q-105 -18 -208 -18q-173 0 -300 95q-146 109 -155 294v21q0 176 117 311q109 128 268 159q43 8 85 8q158 0 277 -98q7 -7 14 -13q48 -43 38 -107q-6 -38 -31 -65zM983 183
q0 -63 -52 -99q-33 -23 -71 -23q-99 0 -227 -37q-14 -4 -47 -14q-212 -64 -403 -80q-88 -7 -183 -7q-63 0 -100 52q-22 32 -22 70q0 63 52 100q32 22 70 22q241 0 437 54q26 7 79 23q165 50 274 58q35 3 70 3q63 0 100 -52q23 -32 23 -70z" />
    <glyph glyph-name="uniFED0" unicode="&#x63a;" horiz-adv-x="1040" arabic-form="medial" 
d="M521 838q144 0 266 -67q168 -94 177 -268q1 -10 1 -20q0 -243 -292 -398q-213 -113 -507 -150q-91 -12 -166 -12q-63 0 -100 52q-22 32 -22 70q0 63 52 100q32 22 70 22q203 0 430 93q185 76 257 162q32 38 32 69q0 57 -75 85q-45 16 -103 16q-106 0 -215 -55
q-6 -2 -11 -5q183 -203 408 -298q159 -67 316 -67h1q63 0 100 -52q23 -32 23 -70q0 -63 -52 -99q-33 -23 -71 -23h-1q-382 0 -721 268q-167 133 -284 297q-37 52 -15 113q10 28 30 47q115 109 287 161q97 29 185 29zM378 1250q0 59 51 98q36 27 80 27q69 0 108 -70
q18 -31 18 -55q0 -46 -30 -88q-37 -49 -99 -50q-86 0 -117 85q-11 29 -11 53z" />
    <glyph glyph-name="uniFED2" unicode="&#x641;" horiz-adv-x="1829" arabic-form="final" 
d="M1399 905q190 0 298 -139q90 -116 90 -282q0 -395 -444 -528q-209 -63 -503 -63q-302 0 -462 42q-340 91 -341 401q0 127 59 284q20 54 77 73q42 13 81 -1q55 -20 73 -78q13 -41 -1 -80q-43 -116 -43 -198q0 -104 113 -150q124 -49 444 -49q591 0 684 249q17 46 17 98
q0 138 -90 168q-22 7 -46 7q-91 0 -128 -82q-20 -44 -20 -105q0 -179 215 -255q140 -50 356 -50h1q63 0 100 -52q22 -32 22 -70q0 -63 -52 -100q-32 -22 -70 -22h-1q-350 0 -566 124q-248 144 -249 425q0 174 101 297q103 126 263 135q11 1 22 1zM1334 1331q0 59 51 98
q36 27 80 27q69 0 108 -70q18 -31 18 -55q0 -46 -30 -88q-37 -49 -99 -50q-86 0 -117 85q-11 29 -11 53z" />
    <glyph glyph-name="uniFED3" unicode="&#x641;" horiz-adv-x="852" arabic-form="initial" 
d="M271 1585q0 59 51 98q36 27 80 27q69 0 108 -70q18 -31 18 -55q0 -46 -30 -88q-37 -49 -99 -50q-86 0 -117 85q-11 29 -11 53zM418 1169q397 -1 397 -770q0 -334 -379 -432q-172 -44 -436 -44q-63 0 -100 52q-22 32 -22 70q0 63 52 100q32 22 70 22q391 0 506 90
q63 51 63 142q0 337 -81 467q-36 56 -80 57q-63 0 -102 -84q-33 -72 -33 -174q0 -98 88 -120q31 -8 74 -8q70 0 145 31q60 25 115 -12q31 -22 45 -55q25 -60 -11 -115q-22 -32 -55 -46q-115 -47 -239 -47q-185 0 -298 102q-110 101 -110 270q0 153 64 286q96 199 291 216
q18 2 36 2z" />
    <glyph glyph-name="uniFED4" unicode="&#x641;" horiz-adv-x="945" arabic-form="medial" 
d="M343 1377q0 59 51 98q36 27 80 27q69 0 108 -70q18 -31 18 -55q0 -46 -30 -88q-37 -49 -99 -50q-86 0 -117 85q-11 29 -11 53zM483 931q180 -1 291 -136q96 -118 101 -282v-14q0 -278 -274 -434q-205 -116 -498 -138q-53 -4 -103 -4q-63 0 -100 52q-22 32 -22 70
q0 63 52 100q32 22 70 22q255 0 439 95q152 78 183 188q7 25 7 49q0 134 -86 173q-28 12 -60 13q-86 0 -135 -69q-33 -48 -33 -112q0 -123 138 -215q161 -107 425 -120q33 -2 66 -2h1q63 0 100 -52q22 -32 22 -70q0 -63 -52 -100q-32 -22 -70 -22h-1q-283 0 -508 95
q-276 117 -344 341q-21 69 -21 145q0 163 103 284q105 124 265 141q22 2 44 2z" />
    <glyph glyph-name="uniFED6" unicode="&#x642;" horiz-adv-x="1461" arabic-form="final" 
d="M970 547q-69 0 -109 -82q-30 -62 -30 -149q0 -102 58 -131q37 -18 114 -18h458q63 0 100 -52q22 -32 22 -70q0 -63 -52 -100q-32 -22 -70 -22l-443 -2q-227 0 -342 128q-91 101 -91 267q0 146 73 276q92 165 252 195q33 6 67 6q288 0 373 -350q33 -137 33 -322
q0 -316 -178 -506q-167 -180 -442 -198q-30 -2 -59 -2q-322 0 -503 168q-164 154 -164 400q0 209 112 461q24 56 85 69q40 9 77 -7q55 -24 69 -85q9 -40 -7 -77q-90 -204 -90 -361q0 -195 140 -269q102 -53 281 -53q415 0 434 417q1 22 1 43q0 276 -84 380q-38 45 -85 46z
M678 1063q-33 45 -11 97q12 25 32 40q140 103 320 103q125 0 198 -57q62 -50 60 -130q0 -63 -50 -93q-24 -15 -51 -15q-59 0 -84 45q-5 11 -8 23q-2 31 -65 31q-115 -1 -204 -65q-48 -34 -101 -9q-22 12 -36 30z" />
    <glyph glyph-name="uniFED7" unicode="&#x642;" horiz-adv-x="852" arabic-form="initial" 
d="M104 1465q-33 45 -11 97q12 25 32 40q140 103 320 103q125 0 198 -57q62 -50 60 -130q0 -63 -50 -93q-24 -15 -51 -15q-59 0 -84 45q-5 11 -8 23q-2 31 -65 31q-115 -1 -204 -65q-48 -34 -101 -9q-22 12 -36 30zM418 1169q397 -1 397 -770q0 -334 -379 -432
q-172 -44 -436 -44q-63 0 -100 52q-22 32 -22 70q0 63 52 100q32 22 70 22q391 0 506 90q63 51 63 142q0 337 -81 467q-36 56 -80 57q-63 0 -102 -84q-33 -72 -33 -174q0 -98 88 -120q31 -8 74 -8q70 0 145 31q60 25 115 -12q31 -22 45 -55q25 -60 -11 -115q-22 -32 -55 -46
q-115 -47 -239 -47q-185 0 -298 102q-110 101 -110 270q0 153 64 286q96 199 291 216q18 2 36 2z" />
    <glyph glyph-name="uniFED8" unicode="&#x642;" horiz-adv-x="945" arabic-form="medial" 
d="M483 931q180 -1 291 -136q96 -118 101 -282v-14q0 -278 -274 -434q-205 -116 -498 -138q-53 -4 -103 -4q-63 0 -100 52q-22 32 -22 70q0 63 52 100q32 22 70 22q255 0 439 95q152 78 183 188q7 25 7 49q0 134 -86 173q-28 12 -60 13q-86 0 -135 -69q-33 -48 -33 -112
q0 -123 138 -215q161 -107 425 -120q33 -2 66 -2h1q63 0 100 -52q22 -32 22 -70q0 -63 -52 -100q-32 -22 -70 -22h-1q-283 0 -508 95q-276 117 -344 341q-21 69 -21 145q0 163 103 284q105 124 265 141q22 2 44 2zM173 1209q-33 45 -11 97q12 25 32 40q140 103 320 103
q125 0 198 -57q62 -50 60 -130q0 -63 -50 -93q-24 -15 -51 -15q-59 0 -84 45q-5 11 -8 23q-2 31 -65 31q-115 -1 -204 -65q-48 -34 -101 -9q-22 12 -36 30z" />
    <glyph glyph-name="uniFEDA" unicode="&#x643;" horiz-adv-x="1772" arabic-form="final" 
d="M1895 45q0 -63 -52 -99q-33 -23 -71 -23h-1q-205 0 -342 119q-161 140 -161 389q0 63 52 100q32 22 70 22q63 0 100 -52q23 -32 23 -70q0 -203 144 -249q48 -15 114 -15h1q63 0 100 -52q23 -32 23 -70zM1330 1332q62 8 106 -40q26 -29 31 -66q42 -313 46 -743v-52
q0 -282 -253 -426q-184 -104 -443 -112h-31q-369 0 -550 106q-198 118 -199 364q0 118 63 261q24 55 84 69q41 9 78 -7q55 -24 68 -85q9 -40 -7 -77q-40 -86 -40 -161q0 -134 148 -184q116 -40 355 -40q258 0 388 105q92 75 93 187q0 371 -34 699q-4 36 -8 66q-8 63 40 106
q28 25 65 30zM985 1086q0 -30 -28 -42q-8 -4 -18 -4q-113 0 -197 -51q-56 -36 -57 -72q0 -46 87 -73q11 -3 21 -6q152 -40 166 -136q2 -11 2 -22q0 -90 -122 -145q-109 -50 -266 -50q-30 0 -42 28q-4 9 -4 18q0 30 28 42q8 4 18 4q187 0 267 61q28 22 29 42q0 36 -63 59
q-17 6 -37 11q-131 34 -164 101q-12 26 -12 56q0 123 143 184q92 40 203 40q30 0 42 -27q4 -9 4 -18z" />
    <glyph glyph-name="uniFEDB" unicode="&#x643;" horiz-adv-x="1054" arabic-form="initial" 
d="M-123 45q0 63 52 99q33 23 71 23q391 0 440 101q9 19 9 44q-1 170 -377 554q-44 45 -31 109q9 43 41 70l24 16l734 360q58 29 115 -4q32 -20 49 -52q29 -58 -4 -115q-20 -32 -52 -49l-584 -287q165 -180 235 -297q96 -161 96 -305q0 -279 -341 -357q-143 -32 -354 -32
q-63 0 -100 52q-23 32 -23 70z" />
    <glyph glyph-name="uniFEDC" unicode="&#x643;" horiz-adv-x="1113" arabic-form="medial" 
d="M50 897q-29 58 4 115q20 32 52 49l734 360q58 29 115 -4q32 -20 49 -52q29 -58 -4 -115q-20 -32 -52 -49l-734 -360q-58 -29 -115 4q-32 20 -49 52zM-123 45q0 63 52 99q33 23 71 23q322 0 404 54q45 30 45 91q0 139 -256 426q-57 64 -121 128q-44 45 -31 109q9 43 41 70
q49 41 112 22q31 -10 53 -31q186 -190 268 -296q107 -141 154 -271q59 -164 98 -216q45 -59 129 -75q60 -11 216 -11h1q63 0 100 -52q23 -32 23 -70q0 -63 -52 -99q-33 -23 -71 -23h-1q-195 0 -286 23q-137 36 -229 148q-98 -124 -333 -156q-108 -15 -264 -15q-63 0 -100 52
q-23 32 -23 70z" />
    <glyph glyph-name="uniFEDE" unicode="&#x644;" horiz-adv-x="1450" arabic-form="final" 
d="M1084 494q64 4 104 -46q23 -31 26 -68q8 -131 34 -169q25 -36 97 -42q30 -2 104 -2h1q63 0 100 -52q23 -32 23 -70q0 -63 -52 -99q-33 -23 -71 -23h-1q-422 0 -474 385q-3 28 -5 56q-4 64 46 104q31 23 68 26zM1038 1333q64 5 104 -45q24 -31 27 -68q47 -655 50 -1006
v-66q0 -366 -186 -546q-156 -149 -424 -149q-252 0 -409 144q-149 136 -162 352q-1 18 -1 36q0 201 98 407q5 11 10 21q27 54 89 66q40 6 76 -11q54 -27 66 -89q6 -40 -11 -76q-62 -125 -78 -259q-4 -32 -4 -59q2 -285 326 -286q206 0 287 103q73 93 77 318v28
q0 386 -48 1054q-5 64 45 104q31 24 68 27z" />
    <glyph glyph-name="uniFEDF" unicode="&#x644;" horiz-adv-x="494" arabic-form="initial" 
d="M229 1332q63 8 106 -39q26 -29 31 -66q44 -335 49 -611q2 -78 2 -172q0 -216 -69 -338q-4 -8 -8 -14q-89 -141 -273 -165q-32 -4 -67 -4q-63 0 -100 52q-22 32 -22 70q0 63 52 100q32 22 70 22q88 0 119 35q7 8 13 18q39 63 39 224q0 339 -26 576q-8 77 -21 175
q-8 63 39 106q29 26 66 31z" />
    <glyph glyph-name="uniFEE0" unicode="&#x644;" horiz-adv-x="674" arabic-form="medial" 
d="M797 45q0 -63 -52 -99q-33 -23 -71 -23h-1q-196 0 -322 112q-136 122 -136 334q0 63 52 100q32 22 70 22q63 0 100 -52q23 -32 23 -70q0 -132 70 -174q48 -28 143 -28h1q63 0 100 -52q23 -32 23 -70zM281 1333q63 6 105 -42q25 -30 29 -68q44 -473 44 -854
q0 -240 -160 -359q-119 -87 -299 -87q-63 0 -100 52q-22 32 -22 70q0 63 52 100q32 22 70 22q128 0 171 41q44 42 44 161q0 365 -44 830q-6 63 43 105q30 25 67 29z" />
    <glyph glyph-name="uniFEE2" unicode="&#x645;" horiz-adv-x="1365" arabic-form="final" 
d="M981 440q62 14 110 -30q27 -26 36 -62q24 -101 64 -137q51 -44 173 -44h1q63 0 100 -52q23 -32 23 -70q0 -63 -52 -99q-33 -23 -71 -23h-1q-269 0 -399 192q-53 78 -76 179q-14 62 30 110q26 27 62 36zM724 695q176 0 292 -125q121 -137 123 -349q0 -166 -121 -258
q-93 -70 -222 -70q-157 0 -288 35q-113 32 -153 32q-51 0 -65 -52q-8 -28 -8 -74q0 -32 1 -47l30 -585q3 -64 -48 -103q-31 -23 -68 -25q-64 -3 -103 48q-23 31 -25 68l-30 585q-1 24 -1 59q0 198 103 297q76 72 191 72q77 0 214 -31q149 -35 250 -35q82 0 96 53q3 14 3 31
q0 160 -91 212q-32 18 -70 18q-82 0 -142 -119q-36 -71 -50 -156q-10 -61 -65 -89q-36 -17 -75 -11q-60 10 -89 64q-19 37 -13 76q49 290 206 408q94 71 218 71z" />
    <glyph glyph-name="uniFEE3" unicode="&#x645;" horiz-adv-x="996" arabic-form="initial" 
d="M564 495q-57 0 -88 -41q-29 -41 -66 -154q-51 -156 -108 -232q-110 -144 -302 -145q-63 0 -100 52q-22 32 -22 70q0 63 52 100q32 22 70 22q72 0 103 33q28 31 63 143q4 13 10 31q80 258 236 333q71 34 161 34q154 0 264 -124q106 -119 120 -293q2 -24 2 -46
q0 -198 -139 -305q-105 -80 -244 -80q-176 0 -315 100q-8 6 -15 11q-49 37 -47 102q3 40 25 70q37 49 102 47q40 -3 70 -25q68 -52 159 -60q11 -1 21 -1q127 0 136 121q1 10 1 20q0 128 -78 189q-37 28 -71 28z" />
    <glyph glyph-name="uniFEE4" unicode="&#x645;" horiz-adv-x="1199" arabic-form="medial" 
d="M1321 45q0 -63 -52 -100q-32 -22 -70 -22h-1q-325 0 -431 296q-4 13 -8 25q-39 120 -137 226q-20 21 -42 42q-45 43 -33 107q8 40 35 67q46 45 110 32q38 -8 64 -34q164 -168 228 -338q4 -10 7 -20q32 -89 54 -114q33 -40 119 -44q16 -1 34 -1h1q63 0 100 -52
q22 -32 22 -70zM569 -107q-174 0 -265 113q-68 85 -68 210q1 241 174 463q36 47 100 43q43 -4 73 -30q47 -42 42 -106q-5 -39 -29 -67q-138 -160 -138 -285q0 -79 90 -94q18 -3 39 -3q138 0 148 91q1 7 1 13q0 124 -149 265l-3 3q-46 44 -36 108q6 38 31 65q44 46 108 36
q38 -6 65 -31q206 -196 227 -415q2 -24 2 -46q0 -161 -130 -253q-113 -80 -282 -80zM582 693q48 -40 43 -104q-3 -40 -28 -69q-79 -93 -119 -178q-82 -174 -159 -263q-138 -155 -319 -156q-63 0 -100 52q-22 32 -22 70q0 63 52 100q32 22 70 22q124 2 267 281
q77 150 142 230q41 48 105 43q39 -3 68 -28z" />
    <glyph glyph-name="uniFEE6" unicode="&#x646;" horiz-adv-x="1504" arabic-form="final" 
d="M1134 466q62 19 113 -23q28 -25 39 -59q45 -148 77 -182q35 -35 140 -35h1q63 0 100 -52q23 -32 23 -70q0 -63 -52 -99q-33 -23 -71 -23h-1q-211 1 -316 109q-69 70 -112 205q-5 15 -23 77q-19 62 23 113q25 28 59 39zM543 366q0 59 51 98q36 27 80 27q69 0 108 -70
q18 -31 18 -55q0 -46 -30 -88q-37 -49 -99 -50q-86 0 -117 85q-11 29 -11 53zM278 518q55 -21 73 -79q11 -41 -3 -79q-56 -144 -64 -308q-1 -19 -1 -36q0 -176 104 -249q99 -70 310 -70q277 0 360 133q44 72 44 193q0 164 -69 347q-9 21 -17 41q-25 60 11 115q21 32 54 46
q60 25 115 -11q32 -21 46 -54q106 -249 106 -484q0 -251 -160 -404q-176 -166 -490 -166q-326 0 -504 169q-156 149 -156 394q0 206 77 417q3 8 6 15q21 55 79 73q41 11 79 -3z" />
    <glyph glyph-name="uniFEE7" unicode="&#x646;" horiz-adv-x="532" arabic-form="initial" 
d="M74 1120q0 59 51 98q36 27 80 27q69 0 108 -70q18 -31 18 -55q0 -46 -30 -88q-37 -49 -99 -50q-86 0 -117 85q-11 29 -11 53zM256 783q62 19 113 -22q29 -24 40 -59q66 -212 66 -353q-1 -194 -104 -303q-120 -123 -371 -123q-63 0 -100 52q-22 32 -22 70q0 63 52 100
q32 22 70 22q148 0 195 49q34 35 34 133q0 111 -54 281q-19 62 22 113q24 29 59 40z" />
    <glyph glyph-name="uniFEE8" unicode="&#x646;" horiz-adv-x="811" arabic-form="medial" 
d="M110 938q0 59 51 98q36 27 80 27q69 0 108 -70q18 -31 18 -55q0 -46 -30 -88q-37 -49 -99 -50q-86 0 -117 85q-11 29 -11 53zM-123 45q0 63 52 99q33 23 71 23q34 0 79 4q115 10 154 44q47 40 48 158q0 57 -8 148q-5 63 44 104q34 28 77 29q63 1 100 -51q20 -27 23 -59
q21 -204 29 -243q17 -81 63 -107t182 -27h19h1q63 0 100 -52q23 -32 23 -70q0 -63 -52 -99q-33 -23 -71 -23h-1q-213 0 -323 79q-43 31 -77 76q-96 -129 -304 -150q-48 -5 -106 -5q-63 0 -100 52q-23 32 -23 70z" />
    <glyph glyph-name="uniFEEA" unicode="&#x647;" horiz-adv-x="1081" arabic-form="final" 
d="M724 221q9 -63 -38 -107q-29 -26 -66 -31q-60 -8 -102 -8q-177 0 -306 77q-154 93 -155 262q1 248 323 401q134 62 171 131q5 9 7 16q17 57 73 80q40 15 79 4q57 -17 80 -73q15 -40 4 -79q-47 -163 -256 -274q-26 -14 -54 -27q-180 -85 -181 -179q0 -33 45 -60
q59 -35 170 -35q27 0 68 6q63 9 107 -38q26 -29 31 -66zM663 1075q62 6 104 -43q25 -30 29 -68l50 -547q14 -159 50 -205q29 -38 104 -43q26 -2 80 -2h1q63 0 100 -52q23 -32 23 -70q0 -63 -52 -99q-33 -23 -71 -23h-1q-433 0 -478 470v2l-50 547q-6 63 44 105q30 24 67 28z
" />
    <glyph glyph-name="uniFEEB" unicode="&#x647;" horiz-adv-x="1283" arabic-form="initial" 
d="M20 430q0 161 100 289q100 129 251 155q33 5 65 5q185 0 277 -174q62 -119 62 -270q0 -279 -275 -413q-204 -99 -500 -99q-63 0 -100 52q-22 32 -22 70q0 63 52 100q32 22 70 22q583 1 584 283q0 95 -70 151q-40 32 -78 32q-64 0 -117 -60q-54 -62 -54 -143
q0 -89 122 -163q141 -85 351 -98q32 -2 62 -2q176 0 201 87q3 13 3 26q-2 180 -385 309q-276 92 -478 201q-55 30 -63 92q-5 40 13 74q30 55 92 63q39 6 74 -13q135 -73 446 -187q308 -112 430 -267q92 -118 92 -266q0 -169 -134 -271q-121 -92 -291 -92q-212 0 -409 73
q-265 99 -342 285q-29 70 -29 149z" />
    <glyph glyph-name="uniFEEC" unicode="&#x647;" horiz-adv-x="930" arabic-form="medial" 
d="M534 859q144 0 228 -112q65 -87 65 -201q0 -188 -137 -346q-153 -178 -415 -244q-131 -33 -275 -33q-63 0 -100 52q-22 32 -22 70q0 63 52 100q32 22 70 22q309 0 475 142q102 87 115 194q1 12 1 23q-5 91 -82 94q-91 0 -148 -129q-58 -134 -58 -355q0 -186 88 -345
q59 -105 119 -133q15 -7 28 -7q55 0 62 85q1 15 1 32q0 105 -49 224q-11 37 -11 53q0 62 51 99q32 23 71 23h267q63 0 100 -52q23 -32 23 -70q0 -63 -52 -99q-33 -23 -71 -23h-104q19 -77 19 -155q0 -143 -69 -245q-80 -117 -222 -118q-203 0 -342 206q-111 165 -144 393
q-10 69 -10 132q0 257 88 448q118 255 353 274q17 1 35 1z" />
    <glyph glyph-name="uniFEEE" unicode="&#x648;" horiz-adv-x="931" arabic-form="final" 
d="M460 779q218 0 320 -236q73 -168 73 -409q0 -365 -279 -562q-143 -101 -348 -149q-63 -16 -112 28q-28 25 -37 59q-16 60 23 110q27 31 64 40q328 69 413 284q32 82 32 190q0 332 -106 389q-20 10 -40 10q-91 0 -119 -118q-11 -48 -11 -111q1 -73 29 -105q32 -32 108 -32
h461q63 0 100 -52q22 -32 22 -70q0 -63 -52 -100q-32 -22 -70 -22h-461q-191 1 -288 95q-95 96 -95 269q0 191 85 328q103 163 288 164z" />
    <glyph glyph-name="uniFEF0" unicode="&#x649;" horiz-adv-x="1382" arabic-form="final" 
d="M1505 45q0 -63 -52 -99q-33 -23 -71 -23h-142q82 -64 83 -157q0 -181 -175 -291q-179 -106 -445 -108q-352 0 -521 199q-125 148 -125 372q0 220 111 523q19 55 77 74q41 12 80 -1q55 -19 74 -77q12 -41 -1 -80q-95 -261 -95 -439q0 -161 70 -233q91 -92 330 -92
q246 0 342 94q33 33 34 59q0 39 -54 77q-84 59 -265 81q-61 7 -91 62q-14 24 -16 50q-5 63 45 104q34 27 77 27h607q63 0 100 -52q23 -32 23 -70z" />
    <glyph glyph-name="uniFEF2" unicode="&#x64a;" horiz-adv-x="1382" arabic-form="final" 
d="M380 -1029q-33 45 -11 97q12 25 32 40q140 103 320 103q125 0 198 -57q62 -50 60 -130q0 -63 -50 -93q-24 -15 -51 -15q-59 0 -84 45q-5 11 -8 23q-2 31 -65 31q-115 -1 -204 -65q-48 -34 -101 -9q-22 12 -36 30zM1505 45q0 -63 -52 -99q-33 -23 -71 -23h-142
q82 -64 83 -157q0 -181 -175 -291q-179 -106 -445 -108q-352 0 -521 199q-125 148 -125 372q0 220 111 523q19 55 77 74q41 12 80 -1q55 -19 74 -77q12 -41 -1 -80q-95 -261 -95 -439q0 -161 70 -233q91 -92 330 -92q246 0 342 94q33 33 34 59q0 39 -54 77q-84 59 -265 81
q-61 7 -91 62q-14 24 -16 50q-5 63 45 104q34 27 77 27h607q63 0 100 -52q23 -32 23 -70z" />
    <glyph glyph-name="uniFEF3" unicode="&#x64a;" horiz-adv-x="532" arabic-form="initial" 
d="M-219 -506q-33 45 -11 97q12 25 32 40q140 103 320 103q125 0 198 -57q62 -50 60 -130q0 -63 -50 -93q-24 -15 -51 -15q-59 0 -84 45q-5 11 -8 23q-2 31 -65 31q-115 -1 -204 -65q-48 -34 -101 -9q-22 12 -36 30zM256 783q62 19 113 -22q29 -24 40 -59q66 -212 66 -353
q-1 -194 -104 -303q-120 -123 -371 -123q-63 0 -100 52q-22 32 -22 70q0 63 52 100q32 22 70 22q148 0 195 49q34 35 34 133q0 111 -54 281q-19 62 22 113q24 29 59 40z" />
    <glyph glyph-name="uniFEF4" unicode="&#x64a;" horiz-adv-x="811" arabic-form="medial" 
d="M-219 -506q-33 45 -11 97q12 25 32 40q140 103 320 103q125 0 198 -57q62 -50 60 -130q0 -63 -50 -93q-24 -15 -51 -15q-59 0 -84 45q-5 11 -8 23q-2 31 -65 31q-115 -1 -204 -65q-48 -34 -101 -9q-22 12 -36 30zM-123 45q0 63 52 99q33 23 71 23q34 0 79 4
q115 10 154 44q47 40 48 158q0 57 -8 148q-5 63 44 104q34 28 77 29q63 1 100 -51q20 -27 23 -59q21 -204 29 -243q17 -81 63 -107t182 -27h19h1q63 0 100 -52q23 -32 23 -70q0 -63 -52 -99q-33 -23 -71 -23h-1q-213 0 -323 79q-43 31 -77 76q-96 -129 -304 -150
q-48 -5 -106 -5q-63 0 -100 52q-23 32 -23 70z" />
    <glyph glyph-name=".notdef" horiz-adv-x="748" 
d="M68 0v1365h544v-1365h-544zM136 68h408v1229h-408v-1229z" />
    <glyph glyph-name="glyph1" 
 />
    <glyph glyph-name="glyph2" horiz-adv-x="682" 
 />
    <glyph glyph-name="space" unicode=" " horiz-adv-x="520" 
 />
    <glyph glyph-name="exclam" unicode="!" horiz-adv-x="583" 
d="M234 1482q63 9 107 -40q25 -29 30 -65q43 -319 47 -658v-97q0 -81 -1 -125q-2 -65 -57 -99q-30 -19 -66 -19q-64 0 -100 51q-23 33 -22 71q1 41 1 121q0 362 -32 629q-5 45 -12 94q-9 63 40 107q29 25 65 30zM455 85q0 -60 -45 -111q-46 -50 -112 -51q-68 0 -119 43
q-51 45 -52 118q0 79 62 130q47 37 105 37q84 0 132 -74q29 -44 29 -92z" />
    <glyph glyph-name="quotedbl" unicode="&#x22;" horiz-adv-x="568" 
d="M392 864q-28 2 -38 31q-4 10 -3 20q12 107 12 211q0 108 -12 231q-2 30 25 44q9 4 17 5q31 2 45 -24q4 -9 5 -17q10 -109 10 -239q0 -127 -10 -221q-2 -28 -31 -38q-10 -4 -20 -3zM155 864q-28 2 -38 31q-4 10 -3 20q12 107 12 211q0 108 -12 231q-2 30 25 44q9 4 17 5
q31 2 45 -24q4 -9 5 -17q10 -109 10 -239q0 -127 -10 -221q-2 -28 -31 -38q-10 -4 -20 -3z" />
    <glyph glyph-name="numbersign" unicode="#" horiz-adv-x="1734" 
d="M38 501q2 62 55 97q33 21 72 20l1350 -51q62 -2 97 -55q21 -33 20 -72q-2 -62 -55 -97q-33 -21 -72 -20l-1350 51q-62 2 -97 55q-21 33 -20 72zM130 918q-2 63 49 101q31 24 69 25l1322 39q63 2 101 -49q24 -31 25 -69q2 -63 -49 -101q-31 -24 -69 -25l-1322 -39
q-63 -2 -101 49q-24 31 -25 69zM1030 -120q-58 11 -86 66q-19 37 -12 77l260 1361q11 58 66 86q38 19 78 12q58 -11 86 -66q19 -38 12 -78l-260 -1361q-11 -58 -66 -85q-38 -19 -78 -12zM353 -118q-57 18 -79 73q-17 40 -4 80l408 1361q18 57 73 79q39 15 79 3
q57 -18 79 -73q15 -40 3 -79l-406 -1361q-18 -57 -73 -79q-40 -17 -80 -4z" />
    <glyph glyph-name="dollar" unicode="$" horiz-adv-x="1182" 
d="M575 1685q40 0 58 -36q8 -15 8 -30v-1859q0 -40 -36 -58q-15 -8 -30 -8q-40 0 -58 36q-8 15 -8 30v1859q0 40 36 58q15 8 30 8zM1068 1200q-30 -53 -92 -61q-41 -5 -75 15q-124 69 -282 69q-168 0 -264 -86q-67 -62 -68 -141q0 -69 86 -119q71 -40 245 -93
q165 -51 210 -68q243 -96 299 -259q18 -53 18 -114q0 -224 -193 -348q-146 -94 -347 -102h-27q-257 0 -445 91q-17 9 -32 17q-54 31 -62 92q-5 40 14 74q30 54 92 62q41 5 75 -14q93 -52 252 -71q55 -7 106 -7q176 0 267 80q53 47 54 105q0 77 -114 137q-81 41 -239 89
q-164 50 -229 79q-245 110 -271 316q-3 26 -3 53q0 214 175 347q142 107 341 123q31 3 60 3q218 -1 402 -103q54 -31 61 -92q5 -40 -14 -74z" />
    <glyph glyph-name="percent" unicode="%" horiz-adv-x="1478" 
d="M1118 1466q53 -32 58 -95q4 -39 -16 -73q-392 -652 -530 -1234q-11 -45 -20 -89q-13 -58 -68 -85q-38 -18 -77 -10q-58 13 -85 68q-18 38 -10 77q134 641 540 1332q20 34 40 67q31 53 94 59q41 3 74 -17zM1097 144q64 0 107 49q26 30 26 60q0 53 -49 83q-32 20 -72 20
q-80 0 -93 -58q-4 -16 -4 -35q0 -72 48 -106q19 -13 37 -13zM1097 -32q-122 0 -199 101q-64 85 -64 194q0 130 94 207q76 62 181 62q121 0 208 -78q88 -81 89 -201q0 -128 -104 -212q-91 -73 -205 -73zM248 1188q0 -63 49 -106q30 -26 60 -26q56 0 85 52q16 30 16 67
q0 80 -56 93q-16 4 -35 4q-73 0 -107 -49q-12 -18 -12 -35zM72 1188q0 123 103 199q84 63 192 63q131 0 208 -95q61 -76 61 -180q0 -121 -79 -207q-80 -88 -200 -88q-129 0 -213 104q-72 90 -72 204z" />
    <glyph glyph-name="ampersand" unicode="&#x26;" horiz-adv-x="1374" 
d="M659 1483q146 0 262 -84q141 -101 153 -273q1 -16 1 -31q0 -50 -10 -95.5t-24.5 -81.5t-40.5 -70t-49 -58.5t-59 -50t-61 -40.5t-65 -34.5t-61 -28t-59 -24.5q-206 -83 -258 -187q-22 -44 -22 -95q0 -170 215 -190q28 -3 58 -3q145 0 269 71q74 43 99 90q28 54 90 63
q40 5 75 -13q54 -28 63 -90q6 -41 -12 -76q-88 -166 -306 -243q-133 -46 -278 -46q-187 0 -329 95q-169 113 -188 314q-2 24 -2 47q0 273 299 429q54 28 131 60q163 67 217 114q64 57 64 143q0 82 -73 121q-43 23 -99 23q-103 0 -156 -68q-34 -45 -34 -108q0 -203 334 -559
q189 -200 412 -378q49 -38 46 -103q-2 -39 -26 -69q-38 -49 -103 -46q-39 3 -69 26q-351 277 -543 501q-294 346 -295 628q0 195 142 314q113 96 266 105q13 1 26 1z" />
    <glyph glyph-name="quotesingle" unicode="'" horiz-adv-x="331" 
d="M155 864q-28 2 -38 31q-4 10 -3 20q12 107 12 211q0 108 -12 231q-2 30 25 44q9 4 17 5q31 2 45 -24q4 -9 5 -17q10 -109 10 -239q0 -127 -10 -221q-2 -28 -31 -38q-10 -4 -20 -3z" />
    <glyph glyph-name="parenleft" unicode="(" horiz-adv-x="606" 
d="M414 1522q55 -28 66 -89q7 -40 -10 -75q-103 -212 -130 -388q-17 -114 -17 -288q0 -207 68 -392q36 -98 125 -282q29 -58 -4 -115q-20 -32 -52 -49q-58 -29 -115 4q-32 20 -49 52q-123 252 -166 403q-53 182 -53 379q0 297 66 516q39 128 107 268q28 55 89 66
q39 8 75 -10z" />
    <glyph glyph-name="parenright" unicode=")" horiz-adv-x="606" 
d="M192 -156q-55 28 -66 89q-8 39 10 75q103 212 130 388q17 114 17 288q0 207 -68 392q-36 98 -125 282q-29 58 4 115q20 32 52 49q58 29 115 -4q32 -20 49 -52q123 -252 166 -403q53 -182 53 -379q0 -297 -66 -516q-39 -128 -107 -268q-28 -55 -89 -66q-39 -8 -75 10z" />
    <glyph glyph-name="asterisk" unicode="*" horiz-adv-x="1108" 
d="M983 604q-38 -44 -94 -36q-29 5 -51 23q-151 126 -340 235q-175 102 -378 179q-48 19 -63 70q-8 33 3 63q18 48 69 63q32 10 63 -2q213 -79 410 -192q201 -116 368 -257q42 -37 36 -93q-4 -31 -23 -53zM123 604q-36 42 -19 98q10 29 32 48q168 141 368 257
q198 114 410 192q52 20 99 -16q23 -19 33 -45q20 -52 -15 -99q-19 -23 -45 -34q-202 -76 -377 -179q-190 -110 -340 -235q-43 -37 -99 -19q-28 10 -47 32zM499 1447q55 10 94 -32q20 -23 26 -52q39 -214 39 -448q0 -220 -39 -450q-10 -54 -59 -77q-29 -13 -60 -8
q-54 10 -77 59q-13 29 -8 60q35 211 35 416q0 207 -35 412q-10 56 33 95q23 20 51 25z" />
    <glyph glyph-name="plus" unicode="+" horiz-adv-x="1033" 
d="M440 1173q62 14 110 -30q28 -27 37 -63q52 -231 52 -514q0 -209 -36 -314q-19 -55 -76 -75q-41 -13 -81 0q-55 19 -75 76q-13 41 0 81q19 55 22 203v29q0 242 -43 445q-1 8 -3 15q-14 62 30 110q27 28 63 37zM39 626q-8 63 40 106q29 25 66 30q219 27 473 27
q129 0 260 -6q62 -3 97 -55q21 -34 20 -72q-3 -62 -55 -97q-34 -21 -72 -20q-126 6 -250 6q-232 0 -443 -25q-63 -8 -106 40q-25 29 -30 66z" />
    <glyph glyph-name="comma" unicode="," horiz-adv-x="478" 
d="M50 -313q-54 32 -60 94q-3 39 16 73l230 396q31 54 94 61q40 3 74 -16q54 -32 60 -94q3 -39 -16 -73l-230 -396q-31 -54 -94 -61q-40 -4 -74 16z" />
    <glyph glyph-name="hyphen" unicode="-" horiz-adv-x="1037" 
d="M76 429q-4 48 35 77q19 14 41 16q267 24 711 24h1h1h1h1h1h9q48 0 73 -42q12 -20 12 -43q0 -48 -41 -73q-21 -12 -44 -12q-425 0 -709 -24q-47 -4 -76 36q-14 19 -16 41z" />
    <glyph glyph-name="period" unicode="." horiz-adv-x="478" 
d="M47 87q0 67 56 116q46 40 103 40q90 0 130 -81q17 -34 17 -68q0 -63 -45 -114q-45 -48 -107 -49q-101 0 -139 88q-15 34 -15 68z" />
    <glyph glyph-name="slash" unicode="/" horiz-adv-x="965" 
d="M137 -105q-53 32 -58 95q-4 39 16 73q392 652 530 1234q11 45 20 89q13 58 68 85q38 18 77 10q58 -13 85 -68q18 -38 10 -77q-134 -641 -540 -1332q-20 -34 -40 -67q-31 -53 -94 -59q-41 -3 -74 17z" />
    <glyph glyph-name="zero" unicode="0" horiz-adv-x="1141" 
d="M283 486q4 -346 227 -349q200 0 289 260q60 177 60 446q0 179 -92 289q-78 90 -187 91q-124 0 -206 -194q-83 -198 -90 -497q-1 -24 -1 -46zM37 486q0 454 133 712q141 270 410 271q232 0 378 -184q118 -148 141 -360q4 -42 4 -82q0 -464 -158 -712q-152 -237 -435 -238
q-262 0 -387 224q-86 155 -86 369z" />
    <glyph glyph-name="one" unicode="1" horiz-adv-x="715" 
d="M505 -122q-63 1 -99 53q-22 32 -22 70l9 1316q1 63 53 99q32 22 70 22q63 -1 99 -53q22 -32 22 -70l-9 -1316q-1 -63 -53 -99q-32 -22 -70 -22zM598 1406q47 -43 38 -107q-6 -39 -31 -66q-176 -189 -391 -295q-58 -29 -115 4q-32 20 -49 52q-29 58 4 115q20 32 52 49
q178 88 319 241q43 47 107 38q38 -6 66 -31z" />
    <glyph glyph-name="two" unicode="2" horiz-adv-x="1171" 
d="M208 781q-63 0 -100 52q-23 33 -23 71q0 193 108 348q115 163 302 205q56 12 114 12q198 0 331 -130q114 -112 132 -269q3 -25 3 -49q0 -230 -211 -477q-86 -101 -244 -245l-125 -114q59 4 131 4q151 0 390 -11q62 -3 97 -55q21 -34 20 -73q-3 -63 -56 -97
q-33 -21 -71 -19q-237 11 -380 11q-234 0 -454 -22q-55 -4 -96 33q-47 44 -36 109q8 42 38 70l376 344q376 345 377 542q0 88 -66 147q-62 55 -156 55q-126 0 -205 -98q-73 -91 -73 -221q0 -63 -52 -100q-33 -23 -71 -23z" />
    <glyph glyph-name="three" unicode="3" horiz-adv-x="1078" 
d="M198 947q-58 13 -84 69q-18 39 -9 78q41 184 190 287q125 88 286 88q159 0 273 -106q135 -125 139 -342v-13q0 -351 -532 -445q-38 -7 -83 -13q-63 -9 -107 38q-26 29 -31 66q-9 63 39 107q29 26 66 31q320 43 384 149q18 31 18 67q0 144 -93 194q-37 21 -84 21
q-136 0 -197 -107q-19 -35 -28 -76q-13 -58 -69 -84q-38 -18 -78 -9zM65 204q41 48 105 44q39 -3 68 -27q94 -77 226 -84h20q147 0 237 85q74 70 74 168q-5 126 -125 161q-56 16 -139 16q-55 0 -149 -17q-62 -11 -108 36q-27 28 -34 64q-11 61 35 107q28 28 65 35
q116 20 192 20q226 0 363 -102q139 -105 146 -296q0 -197 -137 -343q-125 -133 -312 -168q-54 -10 -108 -10q-224 0 -387 126q-8 6 -15 12q-48 41 -44 105q3 39 27 68z" />
    <glyph glyph-name="four" unicode="4" horiz-adv-x="1268" 
d="M768 1430q55 -22 72 -81q11 -41 -4 -79q-109 -272 -373 -700q-43 -69 -83 -131q302 -13 595 39q56 10 104 22q60 15 110 -28q29 -26 38 -62q15 -60 -28 -110q-26 -29 -62 -38q-299 -73 -666 -72q-180 0 -328 21q-24 4 -47 17q-53 33 -58 96q-3 46 23 81q134 180 323 514
q157 276 224 443q22 55 81 72q41 11 79 -4zM833 779q60 -5 93 -60q20 -35 17 -74l-71 -657q-8 -62 -61 -94q-34 -19 -72 -16q-59 5 -93 57q-22 37 -18 77l71 657q5 60 60 93q35 21 74 17z" />
    <glyph glyph-name="five" unicode="5" horiz-adv-x="1113" 
d="M1063 1363q13 -62 -31 -110q-27 -28 -63 -36q-112 -24 -332 -24q-165 0 -272 11l-23 -221q86 36 207 36q176 0 314 -97q186 -131 209 -384q3 -34 3 -68q0 -246 -158 -406q-135 -138 -337 -165q-42 -6 -84 -6q-215 0 -386 123q-14 10 -26 20q-49 38 -46 102q2 40 26 70
q40 49 104 46q38 -3 68 -26q116 -91 260 -91q163 0 256 103q79 89 79 230q0 250 -218 294q-44 9 -95 9q-134 0 -234 -89q-2 -1 -3 -2q-38 -31 -84 -30q-63 2 -99 54q-25 37 -21 80l56 567q5 54 53 88q44 30 93 20q114 -22 358 -22q192 0 280 18q62 13 110 -31q28 -27 36 -63
z" />
    <glyph glyph-name="six" unicode="6" horiz-adv-x="1099" 
d="M548 137q127 0 204 91q66 78 65 187q-4 210 -152 260q-41 14 -89 14q-108 0 -231 -84q-56 -38 -71 -63q-33 -53 -96 -58q-39 -2 -72 18q-53 33 -58 96q-2 39 18 72q62 100 191 175q153 88 319 88q178 0 310 -112q153 -130 173 -355q2 -24 2 -47q4 -193 -115 -339
q-115 -142 -296 -177q-50 -10 -102 -10q-256 0 -395 189q-113 165 -116 393q0 735 343 911q105 53 239 53q124 0 260 -41q57 -18 79 -74q15 -39 4 -78q-17 -56 -73 -79q-40 -15 -80 -3q-106 31 -190 31q-336 -2 -336 -720q0 -326 246 -338h19z" />
    <glyph glyph-name="seven" unicode="7" horiz-adv-x="1080" 
d="M38 1257q-5 63 46 103q30 24 68 27l754 49q63 4 103 -46q27 -35 27 -78q0 -28 -12 -52q-226 -453 -361 -1280q-10 -60 -65 -88q-37 -18 -76 -12q-61 10 -89 65q-18 36 -11 75q115 711 299 1159l-553 -36q-63 -5 -103 46q-24 30 -27 68z" />
    <glyph glyph-name="eight" unicode="8" horiz-adv-x="1079" 
d="M498 768q406 -164 430 -440q1 -17 1 -33q0 -164 -121 -279q-114 -107 -279 -121q-21 -2 -41 -2q-175 0 -300 108q-130 110 -144 284q-2 20 -2 39q0 283 331 559q210 174 479 295q10 4 18 8q61 26 116 -9q32 -21 46 -54q25 -59 -6 -113q-21 -36 -58 -48
q-185 -64 -380 -220q-192 -153 -266 -296q-35 -68 -35 -122q0 -110 85 -159q49 -28 116 -28q111 0 166 73q29 40 29 85q0 68 -100 147q-74 58 -175 98q-138 55 -241 167q-130 144 -130 317q0 176 119 301t303 142q25 2 50 2q310 0 467 -319q18 -37 34 -78q23 -60 -15 -114
q-22 -30 -55 -43q-59 -23 -114 14q-31 23 -44 57q-62 162 -151 210q-52 27 -125 27q-144 0 -199 -99q-24 -44 -24 -100q0 -79 86 -167q61 -62 129 -89z" />
    <glyph glyph-name="nine" unicode="9" horiz-adv-x="1208" 
d="M556 1435q196 -1 336 -133q165 -155 186 -432q3 -37 3 -75q0 -261 -119 -498q-134 -265 -372 -390q-26 -14 -52 -25q-60 -25 -115 11q-32 21 -46 54q-25 60 10 115q21 32 54 46q171 74 282 267q108 188 114 401v19q0 302 -175 375q-49 20 -106 21q-137 0 -214 -106
q-59 -83 -59 -199q0 -270 270 -281h22q174 0 317 89q41 25 71 54q45 44 110 31q38 -8 64 -35q44 -46 31 -110q-9 -38 -35 -64q-147 -142 -369 -190q-93 -21 -189 -21q-193 0 -337 103q-183 132 -200 378q-1 23 -1 46q0 189 106 338q117 165 312 202q49 9 101 9z" />
    <glyph glyph-name="colon" unicode=":" horiz-adv-x="488" 
d="M91 916q0 67 56 116q46 40 103 40q90 0 130 -81q17 -34 17 -68q0 -63 -45 -114q-45 -48 -107 -49q-101 0 -139 88q-15 34 -15 68zM91 393q0 67 56 116q46 40 103 40q90 0 130 -81q17 -34 17 -68q0 -63 -45 -114q-45 -48 -107 -49q-101 0 -139 88q-15 34 -15 68z" />
    <glyph glyph-name="semicolon" unicode=";" horiz-adv-x="600" 
d="M203 916q0 67 56 116q46 40 103 40q90 0 130 -81q17 -34 17 -68q0 -63 -45 -114q-45 -48 -107 -49q-101 0 -139 88q-15 34 -15 68zM50 -290q-54 32 -60 94q-3 39 16 73l230 396q31 54 94 61q40 3 74 -16q54 -32 60 -94q3 -39 -16 -73l-230 -396q-31 -54 -94 -61
q-40 -4 -74 16z" />
    <glyph glyph-name="less" unicode="&#x3c;" horiz-adv-x="645" 
d="M529 340q-41 -25 -86 -1q-20 12 -31 30q-104 171 -248 296q-34 29 -23 82q6 31 25 47q146 122 245 293q24 41 72 43q24 1 44 -11q41 -24 43 -72q0 -24 -11 -44q-77 -134 -214 -275q132 -138 213 -271q25 -41 1 -86q-12 -20 -30 -31z" />
    <glyph glyph-name="equal" unicode="=" horiz-adv-x="1037" 
d="M76 883q4 45 46 67q22 12 46 10q171 -14 389 -14q154 0 313 14q46 4 75 -35q15 -20 17 -43q4 -47 -36 -76q-19 -14 -41 -16q-168 -14 -328 -14q-252 0 -405 14q-45 4 -67 47q-11 22 -9 46zM76 487q10 45 52 63q24 10 48 5q59 -12 309 -13h13q194 0 373 14q47 4 75 -36
q14 -20 16 -43q4 -47 -36 -75q-20 -14 -43 -16q-211 -16 -385 -16q-268 0 -354 17q-44 10 -63 52q-9 25 -5 48z" />
    <glyph glyph-name="greater" unicode="&#x3e;" horiz-adv-x="645" 
d="M116 1119q41 25 86 1q20 -12 31 -30q104 -171 248 -296q34 -29 24 -82q-6 -32 -25 -48q-151 -126 -246 -292q-22 -40 -69 -43q-26 -1 -47 11q-41 24 -43 72q0 24 11 44q77 135 214 276q-134 139 -213 270q-25 41 -1 86q12 20 30 31z" />
    <glyph glyph-name="question" unicode="?" horiz-adv-x="1155" 
d="M353 814q-57 -29 -115 2q-33 19 -50 51q-61 119 -61 230q0 175 136 284q131 101 318 102q186 0 312 -114q124 -113 133 -286q1 -13 1 -25q0 -134 -119 -244q-22 -21 -117 -95q-17 -13 -29 -23q-80 -67 -98 -108q-12 -28 -12 -66q0 -20 6 -36q16 -47 -21 -95
q-26 -34 -63 -46q-62 -19 -113 21q-30 24 -41 59q-12 42 -12 97q0 131 122 254q35 34 95 84q103 85 131 126q27 41 27 93q0 86 -77 130q-53 30 -132 30q-132 0 -181 -75q-20 -31 -20 -67q1 -55 33 -118q29 -57 -2 -115q-19 -33 -51 -50zM697 89q0 -80 -63 -130
q-47 -36 -104 -36q-80 0 -130 61q-37 45 -37 105q0 82 63 132q46 36 104 36q82 0 132 -66q35 -46 35 -102z" />
    <glyph glyph-name="at" unicode="@" horiz-adv-x="2213" 
d="M1724 -260q34 -56 6 -116q-16 -33 -46 -52q-256 -159 -555 -159q-335 0 -603 169q-252 159 -368 422q-81 185 -81 396q0 309 175 587q157 248 404 391q241 139 506 139q302 0 551 -167q230 -154 341 -402q81 -182 81 -384q0 -176 -66 -344q-93 -234 -270 -296
q-59 -21 -125 -21q-171 0 -275 157q-80 120 -89 272q-1 16 -1 30q0 58 7 108q8 61 63 91q35 19 74 14q61 -8 91 -63q19 -35 14 -74q-2 -14 -3 -45q-1 -22 -2 -31q-17 -139 52 -192q27 -21 60 -21q66 0 131 93q79 114 93 271q2 26 2 51q0 247 -154 438q-142 175 -361 240
q-105 31 -214 31q-243 0 -461 -160q-196 -145 -299 -366q-79 -171 -79 -347q0 -276 172 -474q161 -187 422 -246q103 -23 212 -23q229 1 427 123q56 34 116 6q33 -16 52 -46zM1356 748q-99 53 -204 53q-133 0 -233 -96q-124 -118 -128 -320v-13q0 -137 95 -198
q56 -37 135 -37q160 0 242 163q38 75 53 172zM1610 793l-52 -357q-28 -193 -131 -336q-151 -206 -406 -207q-196 0 -330 127q-127 120 -144 303q-2 25 -2 49q0 255 143 441q127 166 321 216q71 18 143 18q219 -1 408 -137q47 -34 51 -94q0 -12 -1 -23z" />
    <glyph glyph-name="A" unicode="A" horiz-adv-x="1416" 
d="M110 -80q-55 24 -69 84q-10 41 7 78l578 1284q25 55 85 69q46 9 86 -12q40 -23 55 -62l518 -1316q23 -60 -13 -114q-22 -32 -56 -45q-60 -23 -114 13q-32 22 -45 56l-412 1046l-458 -1019q-24 -55 -84 -69q-41 -9 -78 7zM1210 328q-6 -61 -59 -93q-35 -20 -74 -17
l-750 68q-62 6 -94 59q-20 35 -17 73q6 62 60 95q35 20 73 17l750 -68q61 -5 94 -60q20 -35 17 -74z" />
    <glyph glyph-name="B" unicode="B" horiz-adv-x="1138" 
d="M120 699q-4 63 46 103q31 23 69 26q22 1 85 6q163 12 216 12q276 0 427 -135q138 -124 138 -335q0 -268 -227 -395q-158 -88 -373 -88q-184 0 -335 49q-56 18 -78 74q-14 40 -2 80q18 56 74 78q40 15 80 2q128 -39 261 -39q344 0 354 227v12q0 133 -81 184
q-74 46 -238 46q-23 0 -246 -19q-26 -2 -41 -3q-63 -4 -103 46q-23 31 -26 69zM194 -63q-62 5 -95 58q-21 34 -18 73q22 285 22 623q0 275 -25 579q-6 64 45 105q30 23 67 27q64 6 105 -45q23 -30 27 -67q25 -309 25 -584q0 -357 -22 -656q-5 -62 -58 -95q-34 -21 -73 -18z
M86 1236q-23 60 14 114q23 31 56 44q194 75 377 75q179 0 313 -96q156 -113 172 -307q1 -19 1 -38q0 -270 -339 -377q-162 -51 -423 -62h-10q-66 -3 -104 47q-21 29 -23 65q-3 64 49 102q30 22 67 25q369 21 480 110q58 48 59 117q0 111 -118 150q-53 18 -124 18
q-143 0 -289 -57q-60 -23 -114 14q-31 23 -44 56z" />
    <glyph glyph-name="C" unicode="C" horiz-adv-x="1271" 
d="M1188 1242q-24 -55 -84 -69q-41 -9 -78 7q-98 43 -212 43q-207 0 -354 -136q-141 -130 -170 -333q-7 -46 -7 -92q0 -219 134 -364q132 -143 345 -159q24 -2 48 -2q132 0 244 60q57 30 116 -1q32 -19 49 -50q30 -57 -1 -116q-19 -32 -50 -49q-169 -88 -358 -88
q-276 0 -483 160q-191 149 -259 385q-31 109 -31 224q0 267 149 480q141 202 368 283q125 44 260 44q168 0 312 -65q55 -24 69 -84q9 -41 -7 -78z" />
    <glyph glyph-name="D" unicode="D" horiz-adv-x="1279" 
d="M350 1219q17 -195 17 -408q0 -343 -33 -658q61 -16 118 -16q211 0 361 134q146 131 177 334q7 48 7 96q0 453 -447 513q-68 9 -144 9q-31 0 -56 -4zM190 1445q107 24 216 24q340 0 561 -167q235 -178 269 -498q5 -50 5 -103q0 -275 -156 -489q-145 -199 -377 -278
q-123 -41 -256 -41q-153 0 -296 55q-54 21 -72 80q-8 26 -5 50q44 345 44 733q0 230 -27 488q0 7 -1 13q-7 61 43 105q25 21 52 28z" />
    <glyph glyph-name="E" unicode="E" horiz-adv-x="1098" 
d="M39 720q-8 63 40 106q29 25 66 30q171 21 355 21q186 0 374 -23q60 -7 91 -61q20 -36 16 -75q-7 -60 -61 -91q-36 -19 -75 -15q-166 19 -345 19q-182 0 -325 -17q-63 -8 -106 40q-25 29 -30 66zM1057 1386q14 -62 -30 -110q-26 -27 -62 -36q-202 -47 -493 -47
q-61 0 -118 3q11 -122 11 -236q0 -332 -43 -630q-3 -22 -3 -35q0 -67 71 -94q88 -34 378 -34q104 0 152 1q62 2 100 -49q24 -33 25 -71q2 -62 -51 -100q-32 -23 -70 -24q-53 -1 -156 -1q-204 0 -284 9q-321 34 -389 234q-20 58 -20 129q0 39 5 71q39 280 39 594
q0 180 -22 350q-5 46 28 91q39 50 100 46q133 -8 247 -8q269 0 439 39q62 14 110 -30q27 -26 36 -62z" />
    <glyph glyph-name="F" unicode="F" horiz-adv-x="1092" 
d="M39 706q-8 63 40 106q29 25 66 30q172 21 344 21q182 0 369 -23q60 -7 91 -61q19 -36 15 -75q-7 -60 -61 -91q-36 -19 -75 -15q-183 21 -339 21q-150 0 -314 -19q-63 -8 -106 40q-25 29 -30 66zM1051 1365q14 -62 -30 -110q-26 -27 -62 -36q-198 -46 -493 -46
q-6 0 -117 3q22 -252 22 -593q0 -316 -32 -596q-7 -60 -60 -92q-36 -21 -75 -17q-61 7 -92 61q-21 35 -16 74q29 263 29 570q0 417 -30 684q-2 12 -3 22q-5 45 28 90q40 50 100 47q114 -7 246 -7q273 0 439 38q62 14 110 -30q27 -26 36 -62z" />
    <glyph glyph-name="G" unicode="G" horiz-adv-x="1349" 
d="M525 649q0 63 52 99q33 23 71 23h536q62 0 100 -54q19 -29 22 -59q5 -69 5 -121q0 -320 -167 -489q-153 -155 -428 -155q-259 0 -438 152q-199 169 -234 473q-7 59 -7 121q0 301 137 518q153 243 433 298q75 14 156 14q192 -1 347 -115q51 -38 50 -102q-2 -38 -24 -69
q-38 -51 -103 -49q-39 2 -69 24q-87 65 -201 65q-287 0 -407 -230q-73 -141 -73 -354q0 -371 247 -470q82 -32 186 -32q207 0 284 103q62 83 64 280v7h-416q-63 0 -100 52q-23 32 -23 70z" />
    <glyph glyph-name="H" unicode="H" horiz-adv-x="1319" 
d="M1002 1438q63 3 102 -47q23 -31 25 -69l59 -1338q3 -63 -47 -102q-31 -23 -69 -25q-63 -3 -102 47q-24 32 -26 70l-59 1336q-3 63 47 102q32 24 70 26zM1241 648q-3 -63 -56 -97q-33 -20 -71 -19q-460 21 -914 21q-63 0 -99 52q-23 33 -23 71q0 63 52 100q32 23 70 23
q412 0 924 -23q62 -3 97 -55q21 -34 20 -73zM273 1438q63 -1 99 -53q22 -32 22 -70q-7 -767 -64 -1327q-6 -61 -60 -93q-35 -21 -74 -17q-61 6 -93 60q-21 35 -17 74q57 574 64 1305q1 63 53 99q32 22 70 22z" />
    <glyph glyph-name="I" unicode="I" horiz-adv-x="435" 
d="M197 -122q-63 2 -98 54q-22 33 -21 71l35 1361q2 63 54 98q33 22 71 21q63 -2 98 -54q22 -33 21 -71l-35 -1361q-2 -63 -54 -98q-33 -22 -71 -21z" />
    <glyph glyph-name="J" unicode="J" horiz-adv-x="680" 
d="M51 1317q0 63 52 100q32 22 70 22h377q63 0 100 -52q23 -32 23 -70q0 -63 -52 -99q-33 -23 -71 -23h-377q-63 0 -100 52q-22 32 -22 70zM394 1436q63 8 106 -39q26 -29 31 -66q66 -497 66 -1031q0 -198 -106 -309q-96 -98 -258 -98q-42 0 -83 3q-61 6 -94 58
q-21 35 -18 74q6 61 59 94q34 21 73 18q31 -3 63 -3q72 0 93 20q25 23 27 114v29q0 511 -64 999q-8 63 39 106q29 26 66 31z" />
    <glyph glyph-name="K" unicode="K" horiz-adv-x="1217" 
d="M197 -122q-63 2 -98 54q-22 33 -21 71l35 1360q2 63 54 98q33 22 71 21q63 -2 98 -54q22 -33 21 -71l-35 -1360q-2 -63 -54 -98q-33 -22 -71 -21zM1059 1460q51 -38 50 -102q-2 -39 -24 -70q-236 -317 -692 -597q263 -283 702 -570q15 -9 28 -18q52 -33 56 -96
q1 -40 -19 -73q-33 -52 -96 -56q-40 -1 -73 19q-548 353 -846 701q-20 23 -38 45q-34 43 -23 102q12 55 58 81q508 289 745 608q38 51 102 50q39 -1 70 -24z" />
    <glyph glyph-name="L" unicode="L" horiz-adv-x="1166" 
d="M210 1438q63 5 103 -46q24 -30 27 -68q17 -263 17 -494q0 -298 -25 -666l677 -20q63 -2 98 -54q22 -33 21 -71q-2 -63 -54 -98q-32 -22 -71 -21l-806 23q-58 2 -95 50q-27 37 -24 81q33 433 33 776q0 255 -15 478q-5 63 46 103q30 24 68 27z" />
    <glyph glyph-name="M" unicode="M" horiz-adv-x="1599" 
d="M177 -122q-60 6 -92 60q-21 35 -17 75l137 1300q6 60 60 92q41 23 85 15q53 -10 83 -60q8 -14 12 -27q68 -250 241 -594q27 -52 51 -97q31 -53 50 -54q20 0 45 42q1 1 1 2q107 176 209 470q49 144 68 238q12 59 67 86q43 21 87 8q54 -15 79 -74q8 -21 9 -39
q18 -498 101 -933q30 -154 75 -348q15 -62 -30 -111q-26 -27 -61 -36q-62 -15 -111 30q-27 26 -36 61q-101 433 -136 772q-54 -145 -121 -257q-63 -107 -118 -149q-58 -43 -128 -43q-126 0 -216 140q-16 26 -39 69q-80 145 -136 285l-84 -814q-6 -60 -60 -92
q-36 -21 -75 -17z" />
    <glyph glyph-name="N" unicode="N" horiz-adv-x="1307" 
d="M194 -122q-62 3 -97 56q-20 34 -19 72q38 760 45 1312q1 63 54 99q37 24 79 21q46 -4 80 -40q3 -5 6 -8q322 -424 632 -941l11 913q1 63 53 99q32 22 70 22q63 -1 99 -53q22 -32 22 -70l-15 -1358q-2 -58 -44 -93q-6 -4 -10 -7q-53 -36 -114 -11q-41 18 -61 54
q-308 552 -625 1003q-9 -378 -38 -954q-3 -62 -56 -97q-33 -21 -72 -19z" />
    <glyph glyph-name="O" unicode="O" horiz-adv-x="1485" 
d="M713 137q194 0 329 130q142 137 159 362q2 28 2 55q0 226 -111 379q-102 139 -253 158q-20 2 -40 2q-183 0 -325 -136q-139 -133 -178 -339q-13 -67 -13 -135q0 -230 134 -361q117 -115 296 -115zM713 -107q-253 0 -436 158q-173 150 -223 391q-17 84 -17 171
q0 265 136 488q131 215 343 309q134 59 283 59q265 0 442 -200q149 -168 192 -419q14 -83 14 -166q0 -282 -153 -495q-142 -196 -368 -265q-103 -31 -213 -31z" />
    <glyph glyph-name="P" unicode="P" horiz-adv-x="1269" 
d="M79 1075q-48 42 -40 107q5 38 29 66q117 134 339 191q115 30 229 30q220 0 384 -141q153 -130 196 -330q15 -67 15 -136q0 -230 -179 -391q-146 -131 -355 -171q-70 -13 -137 -13q-212 0 -328 46q-55 21 -72 79q-11 42 4 80q22 56 81 72q39 12 77 -3q40 -16 182 -27
q35 -3 56 -3q161 0 288 92q114 83 135 197q4 22 4 42q0 154 -101 258q-102 103 -250 103q-133 0 -272 -63q-79 -36 -112 -74q-42 -48 -107 -40q-38 5 -66 29zM356 1361q62 -5 95 -58q21 -34 18 -73l-89 -1238q-5 -63 -58 -96q-33 -21 -72 -18q-63 5 -96 58q-21 34 -18 72
l89 1240q5 62 58 95q34 21 73 18z" />
    <glyph glyph-name="Q" unicode="Q" horiz-adv-x="1485" 
d="M812 538q52 38 114 15q35 -14 56 -43q166 -229 336 -389q35 -32 71 -64q48 -42 40 -107q-5 -38 -29 -66q-42 -48 -107 -40q-38 5 -66 29q-217 190 -402 439q-20 27 -41 56q-38 52 -15 114q14 35 43 56zM713 137q194 0 329 130q142 137 159 362q2 28 2 55q0 226 -111 379
q-102 139 -253 158q-20 2 -40 2q-183 0 -325 -136q-139 -133 -178 -339q-13 -67 -13 -135q0 -230 134 -361q117 -115 296 -115zM713 -107q-253 0 -436 158q-173 150 -223 391q-17 84 -17 171q0 265 136 488q131 215 343 309q134 59 283 59q265 0 442 -200q149 -168 192 -419
q14 -83 14 -166q0 -282 -153 -495q-142 -196 -368 -265q-103 -31 -213 -31z" />
    <glyph glyph-name="R" unicode="R" horiz-adv-x="1270" 
d="M79 1075q-48 42 -40 107q5 38 29 66q118 135 333 192q110 29 221 29q227 0 387 -150q144 -136 180 -342q10 -57 10 -115q0 -213 -151 -373q-136 -144 -341 -188q-73 -16 -147 -16q-183 1 -349 91q-53 29 -62 90q-5 41 14 76q31 54 92 62q40 5 74 -14q110 -61 231 -61
q163 0 279 100q102 89 115 206q1 14 1 27q0 169 -104 271q-93 90 -229 90q-135 0 -267 -65q-70 -35 -103 -72q-42 -48 -107 -40q-38 5 -66 29zM164 544q32 54 94 61q40 4 74 -15l840 -484q53 -31 60 -94q3 -40 -16 -74q-31 -53 -94 -60q-40 -4 -74 16l-840 482
q-53 31 -60 94q-3 40 16 74zM360 1366q62 -4 96 -57q21 -33 19 -72l-71 -1244q-4 -62 -57 -96q-33 -21 -72 -19q-62 4 -96 57q-21 33 -19 72l71 1244q4 62 57 96q33 21 72 19z" />
    <glyph glyph-name="S" unicode="S" horiz-adv-x="1182" 
d="M1068 1200q-30 -53 -92 -61q-41 -5 -75 15q-124 69 -282 69q-168 0 -264 -86q-67 -62 -68 -141q0 -69 86 -119q71 -40 245 -93q165 -51 210 -68q243 -96 299 -259q18 -53 18 -114q0 -224 -193 -348q-146 -94 -347 -102h-27q-257 0 -445 91q-17 9 -32 17q-54 31 -62 92
q-5 40 14 74q30 54 92 62q41 5 75 -14q93 -52 252 -71q55 -7 106 -7q176 0 267 80q53 47 54 105q0 77 -114 137q-81 41 -239 89q-164 50 -229 79q-245 110 -271 316q-3 26 -3 53q0 214 175 347q142 107 341 123q31 3 60 3q218 -1 402 -103q54 -31 61 -92q5 -40 -14 -74z" />
    <glyph glyph-name="T" unicode="T" horiz-adv-x="1423" 
d="M712 -119q-63 -2 -101 49q-24 31 -25 69q-11 338 -11 552q0 355 19 750q3 62 56 97q33 21 72 19q62 -3 97 -56q20 -34 19 -72q-17 -349 -17 -738q0 -272 9 -544q2 -63 -49 -101q-31 -24 -69 -25zM38 1318q1 63 54 99q32 21 70 21l1103 -19q63 -1 99 -54q21 -32 21 -70
q-1 -63 -54 -99q-32 -21 -70 -21l-1103 19q-63 1 -99 54q-21 32 -21 70z" />
    <glyph glyph-name="U" unicode="U" horiz-adv-x="1310" 
d="M300 1454q58 -12 84 -67q18 -39 10 -79q-71 -328 -71 -574q0 -379 110 -511q72 -86 198 -86q340 0 355 870q1 44 1 88q0 109 -7 261q-3 63 47 102q31 23 69 25q63 3 103 -49q22 -31 25 -68q9 -157 9 -271q0 -394 -51 -630q-125 -571 -551 -572q-439 0 -530 530
q-24 138 -24 311q0 272 76 622q1 3 1 4q12 58 67 84q39 18 79 10z" />
    <glyph glyph-name="V" unicode="V" horiz-adv-x="1368" 
d="M120 1432q60 21 113 -18q31 -24 43 -58l342 -989l480 1002q26 55 87 67q40 7 76 -10q55 -26 67 -87q7 -40 -10 -76l-608 -1271q-17 -36 -56 -56q-3 -2 -5 -3q-59 -26 -114 8q-37 24 -51 63l-440 1272q-21 60 18 113q24 31 58 43z" />
    <glyph glyph-name="W" unicode="W" horiz-adv-x="2006" 
d="M125 1466q62 19 113 -23q29 -24 40 -59l294 -978l345 820q23 54 81 71q47 12 88 -9q44 -23 60 -69l269 -793l315 930q19 55 76 76q41 13 80 0q55 -19 76 -76q13 -41 0 -80l-431 -1271q-15 -46 -62 -70q-3 -2 -6 -3q-58 -25 -114 9q-37 24 -50 64l-281 829l-352 -836
q-17 -41 -58 -62q-6 -3 -11 -5q-60 -24 -114 14q-35 25 -47 65l-394 1304q-19 61 23 112q25 29 60 40z" />
    <glyph glyph-name="X" unicode="X" horiz-adv-x="1267" 
d="M91 -101q-51 34 -53 98q0 40 21 72l910 1338q34 51 98 53q40 0 72 -21q51 -34 53 -98q0 -40 -21 -72l-910 -1338q-34 -51 -98 -53q-40 -1 -72 21zM132 1377q52 37 114 14q36 -14 57 -43l904 -1281q37 -52 14 -114q-14 -36 -43 -57q-51 -37 -114 -15q-36 14 -57 44
l-904 1281q-37 51 -15 114q14 36 44 57z" />
    <glyph glyph-name="Y" unicode="Y" horiz-adv-x="1267" 
d="M89 1386q52 38 114 15q36 -14 57 -43l363 -511l383 560q34 51 98 53q40 0 72 -21q51 -34 53 -98q0 -40 -21 -72l-482 -705q-13 -17 -22 -25q-50 -41 -113 -23q-41 12 -65 46l-466 654q-38 52 -14 114q14 35 43 56zM638 -122q-63 -1 -101 50q-22 32 -23 70l-11 633
q-1 63 50 101q32 22 70 23q63 1 101 -50q22 -32 23 -70l11 -633q1 -63 -50 -101q-32 -22 -70 -23z" />
    <glyph glyph-name="Z" unicode="Z" horiz-adv-x="1422" 
d="M41 1240q-15 61 28 111q26 29 61 38q284 71 644 68q246 -2 418 -42q70 -16 96 -76q25 -62 -14 -116q-6 -8 -13 -15q-439 -441 -816 -1016q404 35 817 35q63 0 100 -52q23 -33 23 -71q0 -63 -52 -100q-33 -23 -71 -23q-545 0 -1043 -56q-70 -8 -111 49q-37 53 -18 112
q4 14 11 25q368 604 817 1091q-259 21 -543 -17q-105 -14 -185 -34q-61 -15 -111 28q-29 26 -38 61z" />
    <glyph glyph-name="bracketleft" unicode="[" horiz-adv-x="715" 
d="M637 1331q6 -64 -45 -105q-30 -23 -67 -27q-67 -4 -99 -5t-88 1q9 -113 9 -223q0 -199 -15 -430q-9 -149 -9 -276q0 -59 49 -79q39 -15 144 -20q63 -3 97 -56q20 -33 19 -71q-3 -62 -55 -97q-34 -21 -73 -20q-426 21 -427 343q0 144 9 290q15 257 15 416q0 179 -18 334
q-5 48 31 93q40 48 99 44q49 -4 148 -4q84 0 144 4q64 6 105 -45q23 -30 27 -67z" />
    <glyph glyph-name="backslash" unicode="\" horiz-adv-x="1105" 
d="M107 1414q53 39 115 17q34 -13 56 -42q284 -381 432 -633q199 -339 331 -716q21 -61 -18 -114q-23 -30 -57 -42q-60 -21 -113 18q-31 23 -44 58q-148 423 -389 801q-119 187 -338 482q-39 53 -17 115q13 34 42 56z" />
    <glyph glyph-name="bracketright" unicode="]" horiz-adv-x="726" 
d="M79 1362q9 59 64 88q37 20 77 14q149 -23 292 -26q64 -2 100 -58q28 -44 18 -90q-31 -144 -34 -285q-1 -42 -1 -130q0 -116 25 -277q29 -196 29 -313q0 -251 -231 -330q-93 -32 -211 -32q-63 0 -100 52q-22 32 -22 70q0 63 52 100q32 22 70 22q128 0 163 23q32 26 33 95
q0 114 -25 275q-29 196 -29 315q0 209 16 323q1 3 1 4q-98 6 -186 20q-59 9 -88 64q-19 37 -13 76z" />
    <glyph glyph-name="asciicircum" unicode="^" horiz-adv-x="718" 
d="M145 1113q-32 19 -30 61q1 17 9 30l166 269q17 28 62 26q32 -2 46 -20l192 -241q25 -30 8 -68q-7 -15 -19 -25q-30 -25 -68 -8q-15 7 -25 19l-134 167l-116 -189q-19 -32 -61 -30q-16 1 -30 9z" />
    <glyph glyph-name="underscore" unicode="_" horiz-adv-x="600" 
d="M723 45q0 -63 -52 -99q-33 -23 -71 -23h-600q-63 0 -100 52q-23 32 -23 70q0 63 52 99q33 23 71 23h600q63 0 100 -52q23 -32 23 -70z" />
    <glyph glyph-name="grave" unicode="`" horiz-adv-x="539" 
d="M140 1534q30 25 68 8q15 -8 24 -19q92 -118 183 -316q3 -6 5 -11q15 -35 -9 -68q-11 -14 -25 -20q-36 -16 -68 10q-13 11 -19 24q-73 160 -154 275q-9 14 -17 24q-25 31 -7 69q8 15 19 24z" />
    <glyph glyph-name="a" unicode="a" horiz-adv-x="1269" 
d="M521 137q221 0 291 309q10 43 16 90l64 466q8 61 63 91q35 19 74 14q61 -8 91 -63q19 -35 14 -74l-64 -468q-42 -295 -189 -456q-142 -153 -360 -153q-225 0 -360 163q-111 134 -123 324q-1 20 -1 39q0 190 95 369q108 202 288 285q107 50 230 50q144 0 262 -79
q51 -35 54 -98q1 -40 -20 -72q-35 -51 -98 -54q-40 -1 -72 20q-57 39 -126 39q-137 0 -243 -125q-98 -114 -119 -268q-5 -35 -5 -67q0 -181 110 -249q54 -33 128 -33zM1029 1107q61 -8 91 -63q19 -35 14 -74l-72 -523q-11 -82 -11 -154q0 -92 26 -114q15 -12 38 -12
q57 0 93 -50q24 -33 24 -72q0 -63 -52 -99q-33 -23 -71 -23q-175 0 -255 157q-47 94 -47 213q0 91 13 186l72 523q8 61 63 91q35 19 74 14z" />
    <glyph glyph-name="b" unicode="b" horiz-adv-x="1163" 
d="M246 1483q63 -2 98 -55q21 -33 20 -71l-42 -1316q-2 -63 -55 -98q-33 -21 -71 -20q-63 2 -98 55q-21 33 -20 71l42 1316q2 63 55 98q33 21 71 20zM182 613q-55 24 -69 84q-9 41 7 78q95 212 276 299q104 49 222 49q262 0 399 -218q101 -161 108 -385v-25
q0 -213 -132 -377q-128 -159 -328 -207q-73 -18 -150 -18q-90 0 -172 22q-57 15 -81 71q-16 39 -6 78q15 57 71 81q39 16 78 6q55 -14 110 -14q157 0 263 106q100 108 103 252q0 231 -110 329q-64 55 -153 55q-147 0 -232 -127q-23 -34 -42 -77q-24 -55 -84 -69
q-41 -9 -78 7z" />
    <glyph glyph-name="c" unicode="c" horiz-adv-x="1031" 
d="M948 827q-42 -47 -106 -42q-39 5 -67 29q-77 65 -164 65q-110 0 -204 -116q-95 -115 -118 -274q-6 -40 -6 -78q0 -222 158 -264q39 -10 87 -10q138 0 262 71l18 10q55 33 115 6q34 -17 53 -48q33 -56 5 -116q-17 -33 -47 -52q-191 -115 -406 -115q-258 0 -391 187
q-97 146 -100 331q0 187 87 368q103 213 278 297q98 47 209 47q183 -1 324 -123q47 -42 42 -106q-5 -39 -29 -67z" />
    <glyph glyph-name="d" unicode="d" horiz-adv-x="1197" 
d="M973 1483q63 -2 98 -54q22 -33 21 -71l-18 -848q0 -314 28 -372q5 -9 10 -15q41 -49 22 -113q-11 -36 -39 -60q-48 -41 -111 -23q-38 11 -62 40q-67 83 -83 226q-10 86 -10 319l19 852q2 63 54 98q33 22 71 21zM918 782q-48 -45 -112 -29q-35 9 -60 35q-83 89 -179 89
q-105 0 -187 -104q-89 -115 -96 -282q-1 -14 -1 -26q0 -235 140 -304q50 -24 114 -24q149 0 242 144q33 51 55 115q18 55 75 76q41 14 80 1q55 -18 76 -75q15 -41 2 -80q-61 -185 -196 -301q-145 -124 -334 -124q-227 0 -365 165q-123 146 -134 367q-1 21 -1 40
q0 195 90 367q104 199 282 263q75 26 158 26q183 0 331 -141q14 -13 26 -26q45 -48 29 -112q-9 -35 -35 -60z" />
    <glyph glyph-name="e" unicode="e" horiz-adv-x="1131" 
d="M703 879q-134 0 -239 -111t-124 -271q-3 -29 -3 -57q0 -201 101 -264q63 -39 182 -39q179 0 272 80q3 3 6 5q48 43 112 29q37 -10 62 -37q43 -48 29 -112q-10 -37 -37 -62q-164 -147 -444 -147q-224 0 -366 130q-161 147 -161 417q0 212 113 393q116 186 302 255
q94 35 195 35q129 0 231 -73q126 -91 127 -245q0 -168 -152 -302q-39 -34 -79 -58q-312 -185 -672 -210q-64 -5 -104 46q-23 30 -26 67q-5 63 45 103q31 25 69 28q305 22 564 176q110 67 111 142q0 61 -70 77q-21 5 -44 5z" />
    <glyph glyph-name="f" unicode="f" horiz-adv-x="773" 
d="M519 1731q101 -1 184 -95q42 -48 28 -111q-10 -37 -37 -62q-53 -47 -118 -23q-21 17 -40 18q-22 0 -41 -92q-7 -35 -10 -68q-37 -418 -39 -1253v-49q0 -63 -52 -99q-33 -23 -71 -23q-63 0 -100 52q-22 32 -22 70q0 879 40 1323q22 260 135 359q61 53 143 53zM38 820
q-5 64 45 104q31 24 68 27q70 6 161 6q151 0 315 -20q61 -7 92 -61q20 -36 16 -74q-7 -60 -61 -91q-36 -20 -75 -16q-143 16 -287 16q-79 0 -143 -4q-64 -5 -104 45q-24 31 -27 68z" />
    <glyph glyph-name="g" unicode="g" horiz-adv-x="1177" 
d="M879 890q-32 -53 -96 -58q-40 -4 -73 17q-40 25 -104 30h-13q-103 0 -189 -110q-93 -118 -110 -288q-3 -31 -3 -61q1 -282 233 -283q187 0 281 216q29 67 46 149q12 58 67 85q39 18 78 10q58 -12 85 -67q18 -39 10 -78q-47 -231 -176 -380q-155 -178 -391 -179
q-191 0 -322 124q-144 138 -154 371q-1 16 -1 32q0 197 86 378q102 215 281 290q84 35 179 35q138 -1 245 -64q53 -32 58 -96q3 -40 -17 -73zM968 1093q63 3 102 -47q24 -32 26 -70q3 -77 3 -212q0 -439 -12 -602q-19 -246 -77 -398q-67 -176 -242 -265q-124 -62 -265 -62
q-195 0 -345 111q-52 40 -93 89q-41 50 -21 113q11 36 39 59q50 41 113 21q36 -11 59 -39q73 -90 203 -105q23 -3 45 -3q139 0 224 83q37 37 55 84q61 160 70 604q3 125 3 310q0 137 -3 202q-3 63 47 102q31 23 69 25z" />
    <glyph glyph-name="h" unicode="h" horiz-adv-x="1126" 
d="M306 1508q63 -5 95 -58q21 -34 18 -72l-97 -1386q-5 -63 -58 -96q-33 -21 -72 -18q-63 5 -96 58q-21 34 -18 72l97 1386q5 62 58 96q34 21 73 18zM197 294q-56 16 -80 71q-16 40 -5 80q94 340 213 498q137 179 329 180q253 0 342 -241q41 -112 41 -256q0 -105 -15 -216
q-13 -115 -13 -183q0 -111 29 -177q26 -59 -8 -115q-21 -32 -54 -47q-60 -26 -116 9q-31 20 -46 53q-49 113 -49 277q0 100 15 213q13 114 13 186q0 174 -51 223q-32 28 -88 28q-74 0 -158 -135q-83 -134 -148 -363q-16 -56 -71 -80q-40 -16 -80 -5z" />
    <glyph glyph-name="i" unicode="i" horiz-adv-x="415" 
d="M60 1373q0 67 56 116q46 40 103 40q90 0 130 -81q17 -34 17 -68q0 -63 -45 -114q-45 -48 -107 -49q-101 0 -139 88q-15 34 -15 68zM220 1093q62 -3 97 -55q21 -34 20 -72q-14 -293 -14 -966q0 -63 -52 -99q-33 -23 -71 -23q-63 0 -100 52q-22 32 -22 70q0 648 15 976
q3 62 55 97q34 21 72 20z" />
    <glyph glyph-name="j" unicode="j" horiz-adv-x="404" 
d="M201 1093q63 0 100 -52q22 -32 22 -70q0 -526 -8 -751q-13 -328 -52 -475q-58 -219 -209 -267q-47 -15 -104 -15q-63 0 -99 52q-23 33 -23 71q0 63 52 100q32 23 70 23q56 0 82 95q27 103 39 426q8 219 8 741q0 63 52 100q32 22 70 22zM49 1373q0 67 56 116q46 40 103 40
q90 0 130 -81q17 -34 17 -68q0 -63 -45 -114q-45 -48 -107 -49q-101 0 -139 88q-15 34 -15 68z" />
    <glyph glyph-name="k" unicode="k" horiz-adv-x="1019" 
d="M965 -62q-31 -53 -94 -60q-40 -4 -74 16q-270 159 -542 436q-62 64 -117 126q-46 51 -21 120q18 49 58 70q224 113 416 305q48 50 88 98q39 48 103 44q41 -3 70 -27q48 -41 44 -105q-4 -39 -27 -68q-182 -220 -445 -384q215 -221 435 -364q32 -21 62 -39q53 -31 60 -94
q3 -40 -16 -74zM266 1483q63 -3 97 -56q20 -33 19 -71l-60 -1358q-3 -62 -56 -97q-33 -21 -72 -19q-62 3 -97 56q-21 33 -19 72l60 1356q3 62 55 97q34 21 73 20z" />
    <glyph glyph-name="l" unicode="l" horiz-adv-x="419" 
d="M224 1472q62 -3 97 -55q21 -34 20 -73q-18 -381 -18 -1344q0 -63 -52 -99q-33 -23 -71 -23q-63 0 -100 52q-22 32 -22 70q0 943 19 1356q3 63 56 97q33 21 71 19z" />
    <glyph glyph-name="m" unicode="m" horiz-adv-x="1582" 
d="M193 1108q62 13 110 -31q28 -27 36 -63q32 -152 32 -336q0 -63 -7 -162l-42 -518q-6 -63 -59 -95q-35 -20 -73 -17q-63 6 -95 59q-20 35 -17 73l42 516q5 62 5 144q0 166 -26 284q-13 62 31 110q27 28 63 36zM232 484q-60 7 -91 61q-19 36 -15 75q30 233 157 374
q116 128 267 129q356 0 377 -483q2 -39 2 -91q0 -242 -26 -559q-6 -61 -58 -94q-35 -21 -74 -18q-61 6 -94 59q-21 34 -18 73q26 307 26 539q0 217 -40 282q-31 48 -95 48q-34 0 -77 -41q-83 -81 -105 -248q-7 -60 -61 -91q-36 -19 -75 -15zM801 400q-63 4 -97 57
q-21 33 -19 71q10 196 104 360q105 183 267 224q42 11 86 11q219 0 309 -211q48 -116 48 -261q0 -94 -7 -247q-6 -131 -6 -235q0 -84 15 -137q16 -61 -26 -111q-25 -29 -60 -39q-61 -16 -111 26q-29 25 -39 60q-25 90 -25 201q0 74 8 247q7 151 7 235q0 210 -98 227
q-8 1 -15 1q-41 0 -97 -62q-91 -102 -112 -258q-3 -22 -4 -43q-4 -63 -57 -97q-33 -21 -71 -19z" />
    <glyph glyph-name="n" unicode="n" horiz-adv-x="1126" 
d="M135 1098q49 41 113 23q35 -12 59 -39q60 -73 67 -247q1 -36 1 -89q0 -236 -53 -758q-6 -61 -60 -93q-35 -21 -74 -17q-61 6 -93 60q-21 35 -17 74q53 518 53 734q0 161 -24 196q-31 45 -9 103q13 32 37 53zM205 294q-56 15 -80 70q-17 40 -6 80q93 343 220 503
q141 175 342 176q264 0 332 -295q22 -96 22 -219q0 -89 -13 -199q-11 -99 -11 -189q0 -110 27 -171q26 -59 -8 -115q-21 -32 -54 -47q-60 -26 -116 9q-31 20 -46 53q-49 112 -49 271q0 101 15 219q11 95 11 169q0 214 -63 255q-20 13 -47 13q-117 0 -220 -207
q-59 -118 -106 -290q-16 -57 -72 -81q-39 -15 -78 -5z" />
    <glyph glyph-name="o" unicode="o" horiz-adv-x="1109" 
d="M567 879q-130 0 -210 -117q-74 -109 -74 -276t90 -269q72 -79 167 -80q104 0 186 99q92 111 100 276q1 13 1 26q0 159 -86 258q-73 82 -174 83zM567 1123q227 0 368 -177q112 -141 132 -337q4 -37 4 -71q0 -199 -95 -370q-106 -190 -284 -251q-73 -24 -152 -24
q-213 0 -354 166q-119 140 -144 343q-5 42 -5 84q0 209 96 378q114 199 316 246q57 13 118 13z" />
    <glyph glyph-name="p" unicode="p" horiz-adv-x="1187" 
d="M313 15q0 63 52 99q33 23 71 23q293 0 409 196q60 102 60 235q0 211 -113 283q-44 28 -94 28q-82 0 -165 -81q-138 -133 -173 -398q-8 -55 -10 -114q-2 -62 -55 -97q-33 -21 -72 -20q-62 2 -97 55q-21 33 -20 72q13 335 161 564q128 197 316 248q57 15 115 15
q180 0 304 -134q130 -141 145 -368q2 -27 2 -53q0 -195 -102 -362q-135 -223 -398 -288q-100 -25 -213 -25q-63 0 -100 52q-23 32 -23 70zM188 -555q-62 3 -97 55q-21 34 -20 72l32 688q14 228 14 343q0 194 -40 297q-4 9 -7 16q-29 58 4 115q20 33 52 50q58 29 115 -4
q32 -19 49 -51q73 -148 73 -423q0 -98 -16 -357l-32 -684q-3 -62 -55 -97q-34 -21 -72 -20z" />
    <glyph glyph-name="q" unicode="q" horiz-adv-x="1163" 
d="M856 789q-50 -39 -113 -20q-36 12 -59 40q-56 69 -152 70q-105 0 -176 -109q-73 -113 -73 -286q0 -285 146 -335q35 -12 77 -12q196 0 291 255q8 23 16 48q18 57 74 78q39 14 79 2q56 -18 78 -74q15 -40 3 -80q-87 -277 -270 -397q-120 -78 -271 -78q-264 0 -386 226
q-83 153 -83 367q0 204 85 371q108 215 312 258q48 10 98 10q177 0 303 -117q22 -22 41 -45q39 -50 20 -113q-12 -36 -40 -59zM972 1099q62 -5 95 -58q21 -34 18 -73q-34 -456 -34 -881q0 -240 11 -507q3 -63 -47 -102q-31 -23 -69 -25q-63 -3 -102 47q-24 32 -26 70
q-11 271 -11 517q0 437 34 899q5 62 58 95q34 21 73 18z" />
    <glyph glyph-name="r" unicode="r" horiz-adv-x="905" 
d="M866 1014q11 -61 -33 -108q-28 -29 -65 -36q-202 -39 -296 -202q-78 -135 -112 -425q-11 -94 -24 -253q-6 -63 -59 -95q-35 -20 -73 -17q-63 6 -95 59q-20 35 -17 73q26 310 54 453q69 342 254 501q130 111 322 148q61 11 108 -33q29 -28 36 -65zM202 -122q-61 6 -93 60
q-21 35 -17 74q27 267 27 520q0 259 -33 391q-2 7 -4 13q-18 61 24 112q25 29 60 40q62 18 112 -23q29 -24 40 -59q45 -153 45 -474q0 -294 -27 -544q-6 -61 -60 -93q-35 -21 -74 -17z" />
    <glyph glyph-name="s" unicode="s" horiz-adv-x="980" 
d="M844 698q-62 -20 -114 22q-27 24 -39 58q-31 97 -172 101h-12q-93 0 -147 -55q-29 -31 -30 -63q2 -66 89 -106q49 -22 137 -44q208 -52 301 -149q86 -92 86 -223q0 -179 -170 -275q-128 -70 -285 -71q-199 0 -337 92q-57 39 -93 88q-36 53 -11 114q15 36 45 56
q67 42 169 -33q54 -49 156 -67q37 -6 71 -6q162 0 200 66q9 16 9 33q0 73 -125 116q-34 11 -76 21q-180 41 -273 111q-137 103 -138 276q0 151 125 257q109 93 257 106q21 2 40 2q170 0 293 -95q91 -72 125 -178q19 -61 -22 -113q-24 -30 -59 -41z" />
    <glyph glyph-name="t" unicode="t" horiz-adv-x="775" 
d="M736 804q-7 -61 -62 -91q-35 -19 -74 -14q-100 12 -212 12q-108 0 -213 -12q-63 -8 -106 40q-25 29 -30 66q-8 63 40 106q29 25 66 30q113 14 243 14q133 0 242 -14q60 -7 91 -62q19 -36 15 -75zM416 1337q61 -7 92 -61q19 -36 15 -74q-58 -500 -58 -847q0 -162 35 -201
q16 -17 38 -17q29 0 52 5q62 11 108 -35q27 -27 34 -63q11 -62 -35 -108q-27 -27 -63 -34q-53 -9 -96 -9q-230 0 -294 257q-23 90 -23 205q0 356 60 875q7 61 61 92q35 20 74 15z" />
    <glyph glyph-name="u" unicode="u" horiz-adv-x="1103" 
d="M274 1091q58 -12 84 -69q18 -38 10 -78q-33 -148 -43 -427q-2 -65 -2 -125q0 -191 63 -236q27 -19 68 -19q108 0 167 81q72 102 112 389q8 60 63 90q35 19 75 14q60 -8 90 -63q19 -36 14 -75q-52 -383 -196 -543q-124 -137 -325 -137q-245 0 -334 236q-43 115 -43 263
q0 337 45 576q3 16 6 30q13 58 69 84q38 17 77 9zM870 1093q62 -4 96 -57q21 -33 19 -72q-8 -143 -8 -325q0 -268 21 -422q10 -72 25 -148q12 -62 -33 -109q-27 -27 -63 -35q-62 -12 -109 33q-27 27 -35 63q-49 243 -52 534v84q0 155 10 339q4 62 57 96q33 21 72 19z" />
    <glyph glyph-name="v" unicode="v" horiz-adv-x="1084" 
d="M108 1082q60 28 117 -7q30 -20 46 -52q180 -383 254 -613q8 -24 15 -46q177 334 266 641q17 57 73 79q40 15 79 4q57 -17 80 -73q15 -39 4 -78q-138 -474 -436 -957q-26 -40 -71 -53q-62 -17 -112 26q-33 28 -41 69q-60 306 -287 798q-21 45 -46 99q-28 59 6 115
q20 32 53 48z" />
    <glyph glyph-name="w" unicode="w" horiz-adv-x="1501" 
d="M362 1060q54 -30 61 -92q4 -40 -15 -74q-45 -80 -87 -251q-38 -155 -38 -269q0 -205 102 -232q19 -5 40 -5q101 0 166 171q53 140 73 373q7 75 60 108q29 17 64 14q62 -5 95 -58q18 -30 18 -62q1 -359 44 -468q31 -77 93 -78q83 0 133 106q48 102 48 270q0 173 -54 326
q-12 33 -24 57q-29 58 3 115q20 33 52 50q58 29 115 -3q33 -20 50 -52q92 -185 101 -447q1 -24 1 -46q0 -254 -92 -420q-112 -199 -333 -200q-164 0 -260 176q-20 37 -35 79q-97 -186 -238 -237q-48 -18 -99 -18q-224 0 -317 212q-52 119 -52 269q0 233 91 486q33 92 68 154
q30 54 92 61q40 4 74 -15z" />
    <glyph glyph-name="x" unicode="x" horiz-adv-x="1137" 
d="M82 -95q-48 39 -44 103q3 40 27 70l795 971q39 48 103 44q41 -3 70 -27q48 -39 44 -103q-3 -41 -27 -70l-795 -971q-39 -48 -103 -44q-41 3 -70 27zM180 1067q58 29 115 -3q33 -20 50 -52q155 -313 527 -725q95 -105 191 -201q47 -47 33 -111q-8 -35 -33 -61
q-47 -47 -111 -33q-35 8 -61 33q-474 474 -706 877q-33 57 -60 111q-29 58 3 115q20 33 52 50z" />
    <glyph glyph-name="y" unicode="y" horiz-adv-x="1127" 
d="M239 1093q60 -6 92 -60q21 -36 17 -75q-21 -196 -21 -369q0 -290 67 -386q47 -66 132 -66q153 0 229 149q24 48 43 112q17 57 73 80q40 15 79 4q57 -17 80 -73q15 -40 4 -79q-70 -237 -230 -351q-121 -86 -278 -86q-408 0 -440 568q-3 57 -3 128q0 212 21 395q6 60 60 92
q36 21 75 17zM916 1086q63 3 102 -48q24 -32 26 -70q5 -105 5 -422q0 -295 -13 -427q-41 -428 -252 -582q-129 -94 -322 -94q-212 0 -346 127q-32 31 -57 67q-36 53 -12 114q14 36 44 56q53 36 114 12q36 -14 56 -44q60 -86 201 -86q189 0 267 172q65 144 74 478q2 84 2 207
q0 293 -5 412q-3 64 48 103q31 23 68 25z" />
    <glyph glyph-name="z" unicode="z" horiz-adv-x="1054" 
d="M40 862q-11 63 36 108q28 26 64 32q211 35 398 35q229 0 374 -89q54 -34 56 -99q2 -61 -42 -98q-124 -104 -318 -337q-123 -149 -210 -276q263 13 496 13q63 0 100 -52q23 -32 23 -70q0 -63 -52 -99q-33 -23 -71 -23q-365 0 -682 -24q-19 -2 -35 -3q-71 -6 -111 52
q-36 53 -16 111q3 9 7 16q121 232 391 546q80 94 156 173q-111 11 -220 6q-99 -5 -204 -22q-63 -11 -108 36q-26 28 -32 64z" />
    <glyph glyph-name="braceleft" unicode="{" horiz-adv-x="695" 
d="M-23 752q0 63 52 100q33 23 71 23q52 0 68 82q6 30 14 172q10 182 55 268q74 135 258 136q63 0 100 -52q23 -32 23 -70q0 -63 -52 -99q-33 -23 -71 -23q-62 0 -80 -82q-8 -38 -12 -177q-4 -173 -41 -254q-67 -146 -262 -147q-63 0 -100 52q-23 33 -23 71zM617 93
q0 -63 -52 -100q-32 -22 -70 -22q-85 0 -146.5 28.5t-92.5 74.5t-50 105t-23 121t-8.5 121t-8 105t-20 74.5t-46.5 28.5q-63 0 -99 52q-23 33 -23 71q0 63 52 100q32 23 70 23q78 0 133.5 -22.5t85.5 -61t47.5 -88t22 -104t6 -109t3.5 -104t10 -88t29 -61t58 -22.5
q63 0 100 -52q22 -32 22 -70z" />
    <glyph glyph-name="bar" unicode="|" horiz-adv-x="417" 
d="M217 1581q63 0 100 -52q22 -32 22 -70q0 -620 -16 -1461q-2 -63 -54 -99q-33 -22 -71 -21q-64 2 -99 54q-22 32 -21 70q17 889 17 1457q0 63 52 100q32 22 70 22z" />
    <glyph glyph-name="braceright" unicode="}" horiz-adv-x="695" 
d="M78 1411q0 63 52 100q32 22 70 22q85 0 146.5 -28.5t92.5 -74.5t50 -105t23 -121t8.5 -121t8 -105t20 -74.5t46.5 -28.5q63 0 99 -52q23 -33 23 -71q0 -63 -52 -100q-32 -23 -70 -23q-78 0 -133.5 22.5t-85.5 61t-47.5 88t-22 104t-6 109t-3.5 104t-10 88t-29 61
t-58 22.5q-63 0 -100 52q-22 32 -22 70zM718 752q0 -63 -52 -100q-33 -23 -71 -23q-52 0 -68 -82q-6 -30 -14 -172q-10 -182 -55 -268q-74 -135 -258 -136q-63 0 -100 52q-23 32 -23 70q0 63 52 99q33 23 71 23q62 0 80 82q8 38 12 177q4 173 41 254q67 146 262 147
q63 0 100 -52q23 -33 23 -71z" />
    <glyph glyph-name="asciitilde" unicode="~" horiz-adv-x="870" 
d="M95 1088q-35 11 -44 50q-4 18 1 34q41 123 137 166q42 19 90 19q92 0 196 -69q8 -5 17 -11q56 -38 99 -38q79 1 120 105q13 34 52 40q19 2 35 -5q34 -15 39 -53q2 -19 -4 -34q-57 -130 -161 -171q-40 -16 -81 -16q-93 1 -180 66q-61 45 -103 51q-11 2 -22 2
q-71 0 -104 -80q-2 -7 -4 -12q-11 -35 -48 -45q-18 -4 -35 1z" />
    <glyph glyph-name="uni00A0" unicode="&#xa0;" horiz-adv-x="801" 
 />
    <glyph glyph-name="exclamdown" unicode="&#xa1;" horiz-adv-x="583" 
d="M349 -368q-63 -9 -107 40q-25 29 -30 65q-43 319 -47 658v97q0 81 1 125q2 65 57 99q30 19 66 19q64 0 100 -51q23 -33 22 -71q-1 -41 -1 -121q0 -362 32 -629q5 -45 12 -94q9 -63 -40 -107q-29 -25 -65 -30zM128 1029q0 60 45 111q46 50 112 51q68 0 119 -43
q51 -45 52 -118q0 -79 -62 -130q-47 -37 -105 -37q-84 0 -132 74q-29 44 -29 92z" />
    <glyph glyph-name="cent" unicode="&#xa2;" horiz-adv-x="1031" 
d="M547 -487q-63 0 -100 52q-22 32 -22 70v375q0 63 52 100q32 22 70 22q63 0 100 -52q22 -32 22 -70v-375q0 -63 -52 -100q-32 -22 -70 -22zM547 879q-63 0 -100 52q-22 32 -22 70v315q0 63 52 100q32 23 70 23q63 0 99 -52q23 -33 23 -71v-315q0 -63 -52 -100
q-32 -22 -70 -22zM948 827q-42 -47 -106 -42q-39 5 -67 29q-77 65 -164 65q-110 0 -204 -116q-95 -115 -118 -274q-6 -40 -6 -78q0 -222 158 -264q39 -10 87 -10q138 0 262 71l18 10q55 33 115 6q34 -17 53 -48q33 -56 5 -116q-17 -33 -47 -52q-191 -115 -406 -115
q-258 0 -391 187q-97 146 -100 331q0 187 87 368q103 213 278 297q98 47 209 47q183 -1 324 -123q47 -42 42 -106q-5 -39 -29 -67z" />
    <glyph glyph-name="sterling" unicode="&#xa3;" horiz-adv-x="1454" 
d="M230 708q14 56 70 81q39 18 79 8q86 -22 199 -22q130 0 298 31q61 11 108 -33q29 -28 36 -65q11 -61 -33 -108q-28 -29 -65 -36q-166 -33 -344 -33q-147 0 -259 28q-56 14 -81 70q-18 39 -8 79zM1306 378q66 0 101 -57q20 -32 20 -67q-7 -191 -234 -289
q-156 -68 -348 -72h-17q-214 0 -436 90q-71 -38 -167 -38q-103 0 -159 60q-39 43 -39 105q0 88 91 133q49 24 101 24q49 0 93 -8q65 119 65 428v252q0 237 33 347q55 182 212 183q142 0 199 -103q29 -53 29 -125q0 -137 -59 -165q-12 -5 -25 -5q-35 0 -56 12q-13 38 -48 39
q-41 -1 -41 -183v-252q0 -329 -66 -500q150 -50 273 -50q268 0 334 90q16 23 22 51q14 63 71 89q25 11 51 11z" />
    <glyph glyph-name="currency" unicode="&#xa4;" horiz-adv-x="1109" 
d="M1039 -48q-48 -42 -112 -25q-37 11 -61 38l-118 136q-42 48 -25 112q10 37 37 61q48 42 112 25q37 -10 61 -37l119 -137q42 -48 25 -112q-11 -37 -38 -61zM346 758q-47 -43 -110 -29q-38 9 -63 36l-113 122q-43 47 -29 110q9 38 36 63q47 43 110 29q38 -9 63 -36
l113 -122q43 -47 29 -110q-9 -38 -36 -63zM1040 1062q48 -42 40 -107q-5 -38 -29 -66l-101 -114q-42 -48 -107 -40q-38 5 -66 29q-47 42 -40 107q5 39 29 67l101 113q42 48 107 40q38 -5 66 -29zM332 246q48 -42 40 -106q-5 -38 -30 -66l-100 -112q-41 -47 -106 -39
q-39 5 -68 31q-47 43 -38 108q6 38 30 66l100 110q44 48 109 38q36 -6 63 -30zM567 879q-130 0 -210 -117q-74 -109 -74 -276t90 -269q72 -79 167 -80q104 0 186 99q92 111 100 276q1 13 1 26q0 159 -86 258q-73 82 -174 83zM567 1123q227 0 368 -177q112 -141 132 -337
q4 -37 4 -71q0 -199 -95 -370q-106 -190 -284 -251q-73 -24 -152 -24q-213 0 -354 166q-119 140 -144 343q-5 42 -5 84q0 209 96 378q114 199 316 246q57 13 118 13z" />
    <glyph glyph-name="yen" unicode="&#xa5;" horiz-adv-x="1267" 
d="M190 214q-4 48 35 77q19 14 41 16q267 24 711 24h1h1h1h1h1h9q48 0 73 -42q12 -20 12 -43q0 -48 -41 -73q-21 -12 -44 -12q-425 0 -709 -24q-47 -4 -76 36q-14 19 -16 41zM181 538q-4 48 35 77q19 14 41 16q267 24 711 24h1h1h1h1h1h9q48 0 73 -42q12 -20 12 -43
q0 -48 -41 -73q-21 -12 -44 -12q-425 0 -709 -24q-47 -4 -76 36q-14 19 -16 41zM89 1386q52 38 114 15q36 -14 57 -43l363 -511l383 560q34 51 98 53q40 0 72 -21q51 -34 53 -98q0 -40 -21 -72l-482 -705q-13 -17 -22 -25q-50 -41 -113 -23q-41 12 -65 46l-466 654
q-38 52 -14 114q14 35 43 56zM638 -122q-63 -1 -101 50q-22 32 -23 70l-11 633q-1 63 50 101q32 22 70 23q63 1 101 -50q22 -32 23 -70l11 -633q1 -63 -50 -101q-32 -22 -70 -23z" />
    <glyph glyph-name="brokenbar" unicode="&#xa6;" horiz-adv-x="419" 
d="M204 1483q63 0 100 -52q23 -32 23 -70q0 -250 -4 -468q-2 -63 -54 -99q-33 -22 -71 -21q-64 2 -99 54q-22 32 -21 70q3 163 3 464q0 63 52 99q33 23 71 23zM221 619q64 -2 99 -54q22 -32 21 -70q-6 -286 -18 -502q-4 -63 -57 -96q-33 -21 -71 -19q-62 4 -97 57
q-21 33 -19 72q12 212 18 492q2 64 54 99q32 22 70 21z" />
    <glyph glyph-name="section" unicode="&#xa7;" horiz-adv-x="916" 
d="M591 872q0 -63 -52 -100q-32 -23 -70 -23q-88 0 -149 -35q-37 -22 -38 -46q0 -60 165 -80q5 -1 9 -1q149 -15 266 -89q166 -107 167 -289q0 -186 -190 -268q-110 -48 -242 -48q-215 1 -383 134q-49 38 -46 103q3 39 26 69q38 49 103 46q39 -2 69 -26q105 -82 231 -82
t170 50q16 19 16 40q0 72 -133 103q-37 8 -80 13q-215 22 -318 130q-77 81 -77 200q0 166 167 256q124 64 267 66q63 0 99 -52q23 -33 23 -71zM786 1039q-62 -13 -110 30q-28 27 -36 63q-11 52 -77 76q-39 15 -91 15q-102 0 -159 -55q-31 -31 -32 -64q0 -52 47 -76
q46 -22 154 -34q221 -22 328 -131q79 -81 79 -201q0 -192 -204 -274q-112 -45 -242 -45q-63 0 -100 52q-22 32 -22 70q0 63 52 100q32 22 70 22q102 0 163 33q35 20 36 45q-2 66 -186 85q-302 31 -386 199q-33 68 -33 155q0 162 142 268q113 84 258 96q18 1 35 1
q160 0 274 -81q106 -75 134 -202q13 -61 -30 -110q-28 -29 -64 -37z" />
    <glyph glyph-name="dieresis" unicode="&#xa8;" horiz-adv-x="688" 
d="M599 1210q0 -59 -53 -88q-25 -14 -53 -14q-58 0 -89 49q-16 25 -16 52q0 62 45 94q24 16 51 16q62 0 96 -50q19 -27 19 -59zM300 1224q0 -65 -52 -98q-29 -18 -64 -18q-54 0 -81 53q-14 26 -14 53q0 57 48 88q27 17 57 17q55 0 87 -40q19 -25 19 -55z" />
    <glyph glyph-name="copyright" unicode="&#xa9;" horiz-adv-x="1693" 
d="M1058 896q-29 -33 -72 -21q-17 5 -29 15q-44 39 -103 39q-94 0 -162 -82q-64 -76 -64 -173q2 -180 176 -181q89 1 173 50q38 24 76 -2q14 -10 23 -23q24 -39 -1 -76q-10 -14 -23 -22q-113 -70 -248 -70q-169 0 -257 120q-63 86 -63 204q0 142 88 256q95 122 239 139
q22 3 43 3q115 -1 198 -74q33 -29 22 -72q-5 -17 -16 -30zM283 616q0 -138 114 -268q104 -118 242 -162q59 -19 113 -19q355 0 527 197q132 152 132 396q0 154 -110 282q-127 148 -340 186q-63 11 -130 11q-173 0 -318 -114q-163 -128 -212 -344q-18 -80 -18 -165zM37 616
q0 316 177 550q148 196 372 275q121 42 245 42q295 0 519 -158q193 -137 267 -347q38 -106 38 -218q0 -338 -202 -560q-189 -208 -504 -261q-95 -16 -197 -16q-205 0 -394 128q-179 123 -264 309q-57 125 -57 256z" />
    <glyph glyph-name="ordfeminine" unicode="&#xaa;" horiz-adv-x="936" 
d="M394 942q108 0 163 122q35 81 35 183q0 143 -110 163q-21 4 -45 4q-96 0 -157 -83q-54 -73 -54 -175q0 -126 76 -183q41 -31 92 -31zM394 850q-124 0 -199 103q-61 86 -61 203q0 144 85 245q88 102 218 103q135 0 201 -94q46 -65 46 -163q0 -148 -63 -259
q-79 -137 -227 -138zM717 1500q27 -14 25 -44q0 -9 -4 -17q-32 -68 -51 -196q-9 -60 -9 -109q0 -127 45 -175q16 -16 33 -17q30 0 42 -28q4 -9 4 -18q0 -30 -28 -42q-8 -4 -18 -4q-124 0 -159 167q-11 54 -11 117q0 151 49 294q11 30 21 51q14 27 44 25q9 0 17 -4z" />
    <glyph glyph-name="guillemotleft" unicode="&#xab;" horiz-adv-x="1103" 
d="M947 340q-41 -25 -86 -1q-20 12 -31 30q-104 171 -248 296q-34 29 -23 82q6 31 25 47q146 122 245 293q24 41 72 43q24 1 44 -11q41 -24 43 -72q0 -24 -11 -44q-77 -134 -214 -275q132 -138 213 -271q25 -41 1 -86q-12 -20 -30 -31zM509 340q-41 -25 -86 -1
q-20 12 -31 30q-104 171 -248 296q-34 29 -23 82q6 31 25 47q146 122 245 293q24 41 72 43q24 1 44 -11q41 -24 43 -72q0 -24 -11 -44q-77 -134 -214 -275q132 -138 213 -271q25 -41 1 -86q-12 -20 -30 -31z" />
    <glyph glyph-name="logicalnot" unicode="&#xac;" horiz-adv-x="975" 
d="M27 661q0 63 52 99q33 23 71 23h645q64 0 102 -58q20 -32 20 -64v-273q0 -63 -52 -100q-32 -23 -70 -23q-63 0 -99 52q-23 33 -23 71v151h-523q-63 0 -100 52q-23 32 -23 70z" />
    <glyph glyph-name="uni00AD" unicode="&#xad;" horiz-adv-x="1037" 
d="M76 629q-4 48 35 77q19 14 41 16q267 24 711 24h1h1h1h1h1h9q48 0 73 -42q12 -20 12 -43q0 -48 -41 -73q-21 -12 -44 -12q-425 0 -709 -24q-47 -4 -76 36q-14 19 -16 41z" />
    <glyph glyph-name="registered" unicode="&#xae;" horiz-adv-x="1693" 
d="M561 866q-35 27 -27 69q3 17 13 30q71 96 190 120q31 6 61 6q112 0 200 -68q98 -78 99 -196q0 -108 -83 -176q-29 -24 -63 -38q55 -49 149 -102q36 -20 36 -64q-1 -18 -9 -34q-20 -36 -62 -37q-19 1 -35 9q-180 100 -278 219q-12 16 -16 40q-3 43 34 66q18 11 38 11
q113 0 139 71q6 17 6 35q0 52 -54 90q-45 30 -101 30q-72 0 -123 -52q-8 -8 -13 -15q-26 -34 -69 -28q-18 4 -32 14zM712 973q42 -2 60 -40q8 -17 7 -34q-8 -198 -35 -465q-4 -41 -43 -58q-18 -8 -36 -6q-40 4 -57 42q-8 19 -6 38q26 249 34 455q2 41 40 60q18 9 36 8z
M283 616q0 -138 114 -268q104 -118 242 -162q59 -19 113 -19q355 0 527 197q132 152 132 396q0 154 -110 282q-127 148 -340 186q-63 11 -130 11q-173 0 -318 -114q-163 -128 -212 -344q-18 -80 -18 -165zM37 616q0 316 177 550q148 196 372 275q121 42 245 42
q295 0 519 -158q193 -137 267 -347q38 -106 38 -218q0 -338 -202 -560q-189 -208 -504 -261q-95 -16 -197 -16q-205 0 -394 128q-179 123 -264 309q-57 125 -57 256z" />
    <glyph glyph-name="macron" unicode="&#xaf;" horiz-adv-x="1037" 
d="M76 1137q-4 48 35 77q19 14 41 16q267 24 711 24h1h1h1h1h1h9q48 0 73 -42q12 -20 12 -43q0 -48 -41 -73q-21 -12 -44 -12q-425 0 -709 -24q-47 -4 -76 36q-14 19 -16 41z" />
    <glyph glyph-name="degree" unicode="&#xb0;" horiz-adv-x="830" 
d="M604 1398q0 81 -63 142q-57 54 -127 54t-129 -64q-58 -64 -59 -139q0 -75 62 -131q51 -46 112 -46q92 0 154 67q50 54 50 117zM696 1398q0 -114 -90 -195q-88 -79 -206 -79q-108 0 -188 81q-78 80 -78 186q0 114 84 203q90 86 196 90q118 0 202 -90q80 -86 80 -196z" />
    <glyph glyph-name="plusminus" unicode="&#xb1;" horiz-adv-x="1037" 
d="M441 1377q62 14 110 -30q28 -27 37 -63q52 -231 52 -514q0 -209 -36 -314q-19 -55 -76 -75q-41 -13 -81 0q-55 19 -75 76q-13 41 0 81q19 55 22 203v29q0 242 -43 445q-1 8 -3 15q-14 62 30 110q27 28 63 37zM40 830q-8 63 40 106q29 25 66 30q219 27 473 27
q129 0 260 -6q62 -3 97 -55q21 -34 20 -72q-3 -62 -55 -97q-34 -21 -72 -20q-126 6 -250 6q-232 0 -443 -25q-63 -8 -106 40q-25 29 -30 66zM76 137q-4 48 35 77q19 14 41 16q267 24 711 24h1h1h1h1h1h9q48 0 73 -42q12 -20 12 -43q0 -48 -41 -73q-21 -12 -44 -12
q-425 0 -709 -24q-47 -4 -76 36q-14 19 -16 41z" />
    <glyph glyph-name="uni00B2" unicode="&#xb2;" horiz-adv-x="718" 
d="M180 1252q-30 0 -42 28q-4 9 -4 18q0 99 66 166q59 58 143 58q98 0 153 -76q38 -52 38 -119q0 -114 -91 -218q-25 -29 -73 -75l-64 -61l230 13q29 2 43 -26q4 -9 5 -18q2 -29 -26 -43q-9 -4 -18 -5l-350 -18q-19 -1 -33 11q-24 21 -12 51q5 10 11 16l150 146
q84 81 108 121q28 48 28 106q0 68 -52 94q-21 11 -47 11q-66 0 -99 -60q-18 -33 -18 -74q0 -30 -28 -42q-8 -4 -18 -4z" />
    <glyph glyph-name="uni00B3" unicode="&#xb3;" horiz-adv-x="664" 
d="M199 1303q-26 5 -34 33q-3 12 -1 22q18 79 85 120q43 26 94 26q84 0 135 -69q36 -49 36 -109q0 -141 -233 -191q-7 -2 -14 -3q-29 -6 -47 20q-5 8 -7 16q-6 29 20 47q8 5 16 7q164 42 173 104q0 49 -39 75q-19 13 -40 13q-53 0 -79 -49q-7 -13 -10 -27q-5 -26 -33 -34
q-12 -3 -22 -1zM214 1166q-7 30 18 48q7 5 15 7q59 13 96 13q95 0 149 -59q35 -41 38 -98q0 -107 -88 -165q-59 -38 -132 -38q-91 1 -158 54q-24 20 -16 49q3 9 8 16q20 24 49 15q9 -3 16 -8q42 -34 101 -34q84 0 115 58q12 23 13 51q-3 56 -66 67q-14 2 -29 2
q-32 0 -74 -11q-30 -7 -48 18q-5 7 -7 15z" />
    <glyph glyph-name="acute" unicode="&#xb4;" horiz-adv-x="522" 
d="M403 1533q30 -24 24 -64q-4 -17 -13 -29q-113 -142 -166 -243q-14 -28 -27 -55q-14 -33 -53 -38q-19 -3 -35 4q-34 15 -38 55q-1 18 5 33q63 140 191 302q9 11 19 24q24 30 64 24q17 -3 29 -13z" />
    <glyph glyph-name="mu" unicode="&#xb5;" horiz-adv-x="1099" 
d="M260 -569q-62 -7 -104 42q-26 30 -30 67q-49 494 -49 827q0 316 58 588q11 51 23 93q17 57 73 80q40 15 79 4q58 -17 80 -73q15 -38 4 -77q-47 -166 -65 -446q-6 -90 -6 -169q0 -335 47 -801q7 -61 -42 -104q-30 -27 -68 -31zM306 1134q56 -14 81 -70q18 -39 8 -79
q-55 -209 -66 -393q-2 -31 -2 -57q0 -234 41 -317q42 -80 143 -81q205 0 244 607q8 125 8 271q0 63 52 99q33 23 71 23q63 0 100 -52q22 -32 22 -70q-1 -249 -1 -269q-21 -678 -321 -817q-79 -36 -175 -36q-391 0 -424 509q-4 58 -4 133q0 214 74 510q14 56 70 81
q39 18 79 8zM893 1137q62 -4 96 -58q20 -34 18 -72q-8 -125 -8 -420q0 -309 22 -527q7 -62 -42 -104q-30 -26 -67 -30q-61 -7 -104 42q-27 30 -31 68q-22 213 -22 551q0 300 8 436q4 62 58 96q33 20 72 18z" />
    <glyph glyph-name="paragraph" unicode="&#xb6;" horiz-adv-x="1319" 
d="M620 1092q44 0 64 -38q8 -17 8 -34v-1402q0 -44 -38 -64q-17 -8 -34 -8q-44 0 -64 38q-8 17 -8 34v1402q0 44 38 64q17 8 34 8zM923 1032q43 0 61 -40q7 -15 7 -32v-1402q0 -46 -38 -65q-14 -7 -30 -7q-43 0 -61 40q-7 15 -7 32v1402q0 46 38 65q14 7 30 7zM1240 1054
q-48 -42 -112 -26q-37 11 -62 38q-138 157 -351 157q-163 0 -287 -106q-119 -102 -141 -250q-4 -28 -4 -56q0 -143 118 -250q117 -108 289 -127q30 -3 60 -3q96 0 186 33q60 22 114 -14q31 -22 44 -56q22 -60 -14 -114q-22 -31 -56 -44q-133 -51 -274 -51q-216 0 -403 111
q-195 116 -270 305q-40 100 -40 210q0 230 149 409q135 163 340 222q93 27 189 27q272 0 469 -173q37 -32 68 -68q42 -48 26 -112q-11 -37 -38 -62z" />
    <glyph glyph-name="periodcentered" unicode="&#xb7;" horiz-adv-x="488" 
d="M91 750q0 67 56 116q46 40 103 40q90 0 130 -81q17 -34 17 -68q0 -63 -45 -114q-45 -48 -107 -49q-101 0 -139 88q-15 34 -15 68z" />
    <glyph glyph-name="cedilla" unicode="&#xb8;" horiz-adv-x="717" 
d="M232 77q40 49 104 45q38 -3 68 -27q145 -116 219 -254q56 -105 56 -202q0 -163 -161 -228q-86 -34 -199 -34q-110 0 -193 24q-57 16 -79 72q-16 40 -5 79q16 56 72 80q40 16 80 5q58 -16 125 -16q110 1 111 46q0 48 -100 159q-45 51 -80 79q-49 40 -45 104q4 39 27 68z
" />
    <glyph glyph-name="uni00B9" unicode="&#xb9;" horiz-adv-x="526" 
d="M323 788q-31 2 -41 30q-2 9 -2 18l34 525q-69 -47 -137 -74q-29 -12 -51 12q-5 6 -8 13q-11 28 12 50q7 6 14 9q97 38 191 122q15 11 30 11q30 0 43 -27q5 -10 4 -21l-40 -626q-2 -29 -30 -39q-10 -4 -19 -3z" />
    <glyph glyph-name="ordmasculine" unicode="&#xba;" horiz-adv-x="830" 
d="M604 1398q0 81 -63 142q-57 54 -127 54t-129 -64q-58 -64 -59 -139q0 -75 62 -131q51 -46 112 -46q92 0 154 67q50 54 50 117zM696 1398q0 -114 -90 -195q-88 -79 -206 -79q-108 0 -188 81q-78 80 -78 186q0 114 84 203q90 86 196 90q118 0 202 -90q80 -86 80 -196z" />
    <glyph glyph-name="guillemotright" unicode="&#xbb;" horiz-adv-x="1103" 
d="M594 1119q41 25 86 1q20 -12 31 -30q104 -171 248 -296q34 -29 24 -82q-6 -32 -25 -48q-151 -126 -246 -292q-22 -40 -69 -43q-26 -1 -47 11q-41 24 -43 72q0 24 11 44q77 135 214 276q-134 139 -213 270q-25 41 -1 86q12 20 30 31zM156 1119q41 25 86 1q20 -12 31 -30
q104 -171 248 -296q34 -29 24 -82q-6 -32 -25 -48q-151 -126 -246 -292q-22 -40 -69 -43q-26 -1 -47 11q-41 24 -43 72q0 24 11 44q77 135 214 276q-134 139 -213 270q-25 41 -1 86q12 20 30 31z" />
    <glyph glyph-name="onequarter" unicode="&#xbc;" horiz-adv-x="2006" 
d="M380 436q-47 3 -69 46q-10 21 -9 44l58 894q-97 -67 -156 -103q-41 -25 -86 -1q-21 12 -32 30q-25 43 1 86q12 19 30 30q121 70 245 187q27 19 59 23h35q47 0 72 -41q13 -24 12 -49l-70 -1068q-3 -47 -46 -69q-21 -10 -44 -9zM1553 764q44 -18 52 -64q4 -25 -5 -47
q-98 -244 -361 -659q-8 -12 -15 -24q339 -8 570 42q17 3 32 7q46 11 81 -24q16 -17 21 -38q11 -46 -24 -81q-17 -16 -38 -21q-248 -60 -557 -58q-138 1 -250 17q-21 3 -33 11q-38 23 -40 71q0 29 16 52q117 159 275 440q115 204 165 329q18 44 64 52q25 4 47 -5zM1611 342
q44 -4 67 -46q12 -23 10 -47l-62 -625q-4 -45 -46 -67q-23 -11 -46 -9q-45 4 -67 46q-11 23 -9 46l60 625q4 44 46 67q23 12 47 10zM426 -18q-34 33 -25 81q6 25 21 41q320 340 647 788q236 324 369 563q23 41 72 43q24 1 44 -10q42 -24 42 -73q0 -23 -10 -42
q-205 -369 -578 -847q-240 -307 -460 -540q-33 -35 -81 -25q-24 5 -41 21z" />
    <glyph glyph-name="onehalf" unicode="&#xbd;" horiz-adv-x="2060" 
d="M426 -18q-34 33 -25 81q6 25 21 41q320 339 647 788q236 323 369 563q23 41 72 43q24 1 44 -10q42 -24 42 -73q0 -23 -10 -42q-205 -369 -578 -847q-240 -307 -460 -540q-33 -35 -81 -25q-24 5 -41 21zM380 436q-47 3 -69 46q-10 21 -9 44l58 894q-97 -67 -156 -103
q-41 -25 -86 -1q-21 12 -32 30q-25 43 1 86q12 19 30 30q121 70 245 187q27 19 59 23h35q47 0 72 -41q13 -24 12 -49l-70 -1068q-3 -47 -46 -69q-21 -10 -44 -9zM1293 284q-47 0 -72 41q-13 21 -13 45q0 158 93 277q102 130 266 142q15 1 30 1q162 0 261 -117
q88 -104 88 -249q0 -225 -198 -426q-41 -41 -92 -84l-175 -150q112 4 235 1q162 -5 189 -7q47 -2 70 -45q11 -22 10 -45q-2 -47 -45 -70q-22 -11 -45 -10q-157 8 -291 8q-181 0 -346 -16q-44 -4 -75 36q-33 45 -10 88q8 14 19 24l287 261q203 185 263 308q32 67 32 127
q0 115 -83 167q-46 29 -105 29q-110 0 -168 -95q-40 -67 -40 -155q0 -47 -41 -73q-21 -13 -44 -13z" />
    <glyph glyph-name="threequarters" unicode="&#xbe;" horiz-adv-x="2156" 
d="M195 1268q-43 10 -60 53q-9 25 -4 49q30 137 151 215q93 59 197 59q123 0 209 -87q92 -95 92 -250q0 -244 -330 -344q-49 -15 -124 -32q-47 -10 -81 25q-16 18 -21 39q-10 47 25 81q18 16 39 21q238 54 298 143q24 37 24 80q0 96 -68 136q-31 18 -68 18q-85 0 -140 -66
q-27 -35 -37 -76q-10 -43 -53 -60q-25 -9 -49 -4zM810 828q-1 -173 -130 -280q-119 -94 -278 -96q-160 0 -283 94q-7 5 -13 10q-36 28 -30 77q4 25 18 43q30 37 80 29q23 -4 40 -17q77 -64 188 -64q137 0 200 78q38 47 38 112q-1 82 -77 119q-42 21 -99 21t-136 -22
q-46 -12 -81 23q-16 17 -22 38q-12 46 23 81q17 16 38 22q111 30 178 30q140 0 239 -81q102 -84 107 -217zM576 -18q-34 33 -25 81q6 25 21 41q320 340 647 788q236 324 369 563q23 41 72 43q24 1 44 -10q42 -24 42 -73q0 -23 -10 -42q-205 -369 -578 -847
q-240 -307 -460 -540q-33 -35 -81 -25q-24 5 -41 21zM1703 764q44 -18 52 -64q4 -25 -5 -47q-98 -244 -361 -659q-8 -12 -15 -24q339 -8 570 42q17 3 32 7q46 11 81 -24q16 -17 21 -38q11 -46 -24 -81q-17 -16 -38 -21q-248 -60 -557 -58q-138 1 -250 17q-21 3 -33 11
q-38 23 -40 71q0 29 16 52q117 159 275 440q115 204 165 329q18 44 64 52q25 4 47 -5zM1761 342q44 -4 67 -46q12 -23 10 -47l-62 -625q-4 -45 -46 -67q-23 -11 -46 -9q-45 4 -67 46q-11 23 -9 46l60 625q4 44 46 67q23 12 47 10z" />
    <glyph glyph-name="questiondown" unicode="&#xbf;" horiz-adv-x="1155" 
d="M802 300q57 29 115 -2q33 -19 50 -51q61 -119 61 -230q0 -175 -136 -284q-131 -101 -318 -102q-186 0 -312 114q-124 113 -133 286q-1 13 -1 25q0 134 119 244q22 21 117 95q17 13 29 23q80 67 98 108q12 28 12 66q0 20 -6 36q-16 47 21 95q26 34 63 46q62 19 113 -21
q30 -24 41 -59q12 -42 12 -97q0 -131 -122 -254q-35 -34 -95 -84q-103 -85 -131 -126q-27 -41 -27 -93q0 -86 77 -130q53 -30 132 -30q132 0 181 75q20 31 20 67q-1 55 -33 118q-29 57 2 115q19 33 51 50zM458 1025q0 80 63 130q47 36 104 36q80 0 130 -61q37 -45 37 -105
q0 -82 -63 -132q-46 -36 -104 -36q-82 0 -132 66q-35 46 -35 102z" />
    <glyph glyph-name="Agrave" unicode="&#xc0;" horiz-adv-x="1416" 
d="M110 -80q-55 24 -69 84q-10 41 7 78l578 1284q25 55 85 69q46 9 86 -12q40 -23 55 -62l518 -1316q23 -60 -13 -114q-22 -32 -56 -45q-60 -23 -114 13q-32 22 -45 56l-412 1046l-458 -1019q-24 -55 -84 -69q-41 -9 -78 7zM1210 328q-6 -61 -59 -93q-35 -20 -74 -17
l-750 68q-62 6 -94 59q-20 35 -17 73q6 62 60 95q35 20 73 17l750 -68q61 -5 94 -60q20 -35 17 -74zM591 2132q30 25 68 8q15 -8 24 -19q92 -118 183 -316q3 -6 5 -11q15 -35 -9 -68q-11 -14 -25 -20q-36 -16 -68 10q-13 11 -19 24q-73 160 -154 275q-9 14 -17 24
q-25 31 -7 69q8 15 19 24z" />
    <glyph glyph-name="Aacute" unicode="&#xc1;" horiz-adv-x="1416" 
d="M110 -80q-55 24 -69 84q-10 41 7 78l578 1284q25 55 85 69q46 9 86 -12q40 -23 55 -62l518 -1316q23 -60 -13 -114q-22 -32 -56 -45q-60 -23 -114 13q-32 22 -45 56l-412 1046l-458 -1019q-24 -55 -84 -69q-41 -9 -78 7zM1210 328q-6 -61 -59 -93q-35 -20 -74 -17
l-750 68q-62 6 -94 59q-20 35 -17 73q6 62 60 95q35 20 73 17l750 -68q61 -5 94 -60q20 -35 17 -74zM854 2130q30 -24 24 -64q-4 -17 -13 -29q-113 -142 -166 -243q-14 -28 -27 -55q-14 -33 -53 -38q-19 -3 -35 4q-34 15 -38 55q-1 18 5 33q63 140 191 302q9 11 19 24
q24 30 64 24q17 -3 29 -13z" />
    <glyph glyph-name="Acircumflex" unicode="&#xc2;" horiz-adv-x="1416" 
d="M110 -80q-55 24 -69 84q-10 41 7 78l578 1284q25 55 85 69q46 9 86 -12q40 -23 55 -62l518 -1316q23 -60 -13 -114q-22 -32 -56 -45q-60 -23 -114 13q-32 22 -45 56l-412 1046l-458 -1019q-24 -55 -84 -69q-41 -9 -78 7zM1210 328q-6 -61 -59 -93q-35 -20 -74 -17
l-750 68q-62 6 -94 59q-20 35 -17 73q6 62 60 95q35 20 73 17l750 -68q61 -5 94 -60q20 -35 17 -74zM507 1710q-32 19 -30 61q1 17 9 30l166 269q17 28 62 26q32 -2 46 -20l192 -241q25 -30 8 -68q-7 -15 -19 -25q-30 -25 -68 -8q-15 7 -25 19l-134 167l-116 -189
q-19 -32 -61 -30q-16 1 -30 9z" />
    <glyph glyph-name="Atilde" unicode="&#xc3;" horiz-adv-x="1416" 
d="M110 -80q-55 24 -69 84q-10 41 7 78l578 1284q25 55 85 69q46 9 86 -12q40 -23 55 -62l518 -1316q23 -60 -13 -114q-22 -32 -56 -45q-60 -23 -114 13q-32 22 -45 56l-412 1046l-458 -1019q-24 -55 -84 -69q-41 -9 -78 7zM1210 328q-6 -61 -59 -93q-35 -20 -74 -17
l-750 68q-62 6 -94 59q-20 35 -17 73q6 62 60 95q35 20 73 17l750 -68q61 -5 94 -60q20 -35 17 -74zM372 1705q-35 11 -44 50q-4 18 1 34q41 123 137 166q42 19 90 19q92 0 196 -69q8 -5 17 -11q56 -38 99 -38q79 1 120 105q13 34 52 40q19 2 35 -5q34 -15 39 -53
q2 -19 -4 -34q-57 -130 -161 -171q-40 -16 -81 -16q-93 1 -180 66q-61 45 -103 51q-11 2 -22 2q-71 0 -104 -80q-2 -7 -4 -12q-11 -35 -48 -45q-18 -4 -35 1z" />
    <glyph glyph-name="Adieresis" unicode="&#xc4;" horiz-adv-x="1416" 
d="M110 -80q-55 24 -69 84q-10 41 7 78l578 1284q25 55 85 69q46 9 86 -12q40 -23 55 -62l518 -1316q23 -60 -13 -114q-22 -32 -56 -45q-60 -23 -114 13q-32 22 -45 56l-412 1046l-458 -1019q-24 -55 -84 -69q-41 -9 -78 7zM1210 328q-6 -61 -59 -93q-35 -20 -74 -17
l-750 68q-62 6 -94 59q-20 35 -17 73q6 62 60 95q35 20 73 17l750 -68q61 -5 94 -60q20 -35 17 -74zM979 1827q0 -59 -53 -88q-25 -14 -53 -14q-58 0 -89 49q-16 25 -16 52q0 62 45 94q24 16 51 16q62 0 96 -50q19 -27 19 -59zM680 1841q0 -65 -52 -98q-29 -18 -64 -18
q-54 0 -81 53q-14 26 -14 53q0 57 48 88q27 17 57 17q55 0 87 -40q19 -25 19 -55z" />
    </font>
</defs>
</svg>
